<?xml version="1.0" encoding="UTF-8"?>
<svg width="222px" height="80px" viewBox="0 0 222 80" version="1.1" xmlns="http://www.w3.org/2000/svg" xmlns:xlink="http://www.w3.org/1999/xlink">
    <!-- Generator: Sketch 50.2 (55047) - http://www.bohemiancoding.com/sketch -->
    <title>BCBSM_blue_with_black_cmyk</title>
    <desc>Created with Sketch.</desc>
    <defs></defs>
    <g id="BCBSM_blue_with_black_cmyk" stroke="none" stroke-width="1" fill="none" fill-rule="evenodd">
        <path d="M16.504,67.4512 L15.4832,64.4064 L15.464,64.4064 L14.3552,67.4512 L16.504,67.4512 Z M14.0672,68.2784 L13.344,70.2928 L12.3808,70.2928 L14.9824,63.376 L16.0416,63.376 L18.5456,70.2928 L17.5248,70.2928 L16.8416,68.2784 L14.0672,68.2784 Z" id="Fill-1" fill="#1A1919"></path>
        <path d="M26.08,70.2928 L25.232,70.2928 L25.232,67.1904 C25.232,66.3136 24.9808,65.8704 24.152,65.8704 C23.6704,65.8704 22.824,66.1792 22.824,67.5472 L22.824,70.2928 L21.976,70.2928 L21.976,65.2544 L22.7744,65.2544 L22.7744,65.9664 L22.7952,65.9664 C22.9776,65.6976 23.4496,65.1088 24.3168,65.1088 C25.0976,65.1088 26.08,65.4272 26.08,66.8624 L26.08,70.2928" id="Fill-2" fill="#1A1919"></path>
        <path d="M29.384,69.6944 C30.5984,69.6944 30.848,68.4416 30.848,67.768 C30.848,67.0944 30.5984,65.8416 29.384,65.8416 C28.1696,65.8416 27.92,67.0944 27.92,67.768 C27.92,68.4416 28.1696,69.6944 29.384,69.6944 Z M29.384,65.1088 C30.992,65.1088 31.7248,66.4672 31.7248,67.768 C31.7248,69.0688 30.992,70.4272 29.384,70.4272 C27.7744,70.4272 27.0416,69.0688 27.0416,67.768 C27.0416,66.4672 27.7744,65.1088 29.384,65.1088 Z" id="Fill-3" fill="#1A1919"></path>
        <path d="M36.792,70.2928 L35.944,70.2928 L35.944,67.1904 C35.944,66.3136 35.6944,65.8704 34.8656,65.8704 C34.384,65.8704 33.536,66.1792 33.536,67.5472 L33.536,70.2928 L32.688,70.2928 L32.688,65.2544 L33.488,65.2544 L33.488,65.9664 L33.5056,65.9664 C33.6896,65.6976 34.1616,65.1088 35.0288,65.1088 C35.8096,65.1088 36.792,65.4272 36.792,66.8624 L36.792,70.2928" id="Fill-4" fill="#1A1919"></path>
        <path d="M40.1632,69.704 C41.088,69.704 41.5216,68.8672 41.5216,67.7584 C41.5216,67.1136 41.4544,65.8704 40.144,65.8704 C38.92,65.8704 38.7856,67.1904 38.7856,68.008 C38.7856,69.3472 39.624,69.704 40.1632,69.704 Z M37.976,65.2544 L38.776,65.2544 L38.776,65.9664 L38.7952,65.9664 C38.9984,65.6768 39.3824,65.1088 40.2976,65.1088 C41.6368,65.1088 42.3984,66.208 42.3984,67.624 C42.3984,68.8288 41.896,70.4368 40.1824,70.4368 C39.5088,70.4368 39.0656,70.1184 38.8432,69.7632 L38.824,69.7632 L38.824,72.2864 L37.976,72.2864 L37.976,65.2544 Z" id="Fill-5" fill="#1A1919"></path>
        <path d="M44.3632,70.2928 L43.5152,70.2928 L43.5152,65.2544 L44.3152,65.2544 L44.3152,66.0912 L44.3344,66.0912 C44.6704,65.504 45.1136,65.1088 45.7504,65.1088 C45.856,65.1088 45.904,65.12 45.9712,65.1376 L45.9712,66.0144 L45.6544,66.0144 C44.864,66.0144 44.3632,66.632 44.3632,67.3632 L44.3632,70.2928" id="Fill-6" fill="#1A1919"></path>
        <path d="M48.6592,69.6944 C49.8736,69.6944 50.1232,68.4416 50.1232,67.768 C50.1232,67.0944 49.8736,65.8416 48.6592,65.8416 C47.4464,65.8416 47.1952,67.0944 47.1952,67.768 C47.1952,68.4416 47.4464,69.6944 48.6592,69.6944 Z M48.6592,65.1088 C50.2688,65.1088 51,66.4672 51,67.768 C51,69.0688 50.2688,70.4272 48.6592,70.4272 C47.0512,70.4272 46.3184,69.0688 46.3184,67.768 C46.3184,66.4672 47.0512,65.1088 48.6592,65.1088 Z" id="Fill-7" fill="#1A1919"></path>
        <path d="M53.0128,65.9568 L53.0128,70.2928 L52.1664,70.2928 L52.1664,65.9568 L51.472,65.9568 L51.472,65.2544 L52.1664,65.2544 L52.1664,64.3872 C52.1664,63.6272 52.6464,63.2784 53.4752,63.2784 C53.6016,63.2784 53.7264,63.288 53.8608,63.2992 L53.8608,64.0592 C53.7552,64.0496 53.6208,64.04 53.5152,64.04 C53.1488,64.04 53.0128,64.2224 53.0128,64.6272 L53.0128,65.2544 L53.8608,65.2544 L53.8608,65.9568 L53.0128,65.9568" id="Fill-8" fill="#1A1919"></path>
        <path d="M54.6608,70.2928 L55.5088,70.2928 L55.5088,65.2544 L54.6608,65.2544 L54.6608,70.2928 Z M54.6608,64.3376 L55.5088,64.3376 L55.5088,63.376 L54.6608,63.376 L54.6608,64.3376 Z" id="Fill-9" fill="#1A1919"></path>
        <path d="M57.8208,65.9568 L57.8208,69.2336 C57.8208,69.6272 58.1584,69.6272 58.3312,69.6272 L58.6304,69.6272 L58.6304,70.2928 C58.3216,70.3216 58.08,70.36 57.9936,70.36 C57.1552,70.36 56.9728,69.888 56.9728,69.28 L56.9728,65.9568 L56.2896,65.9568 L56.2896,65.2544 L56.9728,65.2544 L56.9728,63.8464 L57.8208,63.8464 L57.8208,65.2544 L58.6304,65.2544 L58.6304,65.9568 L57.8208,65.9568" id="Fill-10" fill="#1A1919"></path>
        <path d="M65.2864,66.9488 C65.1792,66.2752 64.8048,65.8704 64.0928,65.8704 C63.0416,65.8704 62.704,66.872 62.704,67.768 C62.704,68.6352 62.9168,69.704 64.0816,69.704 C64.6496,69.704 65.1408,69.28 65.2864,68.5104 L66.104,68.5104 C66.0176,69.3088 65.528,70.4368 64.0528,70.4368 C62.6368,70.4368 61.7984,69.3664 61.7984,67.912 C61.7984,66.352 62.5504,65.1088 64.2176,65.1088 C65.536,65.1088 66.0368,66.072 66.104,66.9488 L65.2864,66.9488" id="Fill-11" fill="#1A1919"></path>
        <path d="M69.0032,69.6944 C70.2176,69.6944 70.4688,68.4416 70.4688,67.768 C70.4688,67.0944 70.2176,65.8416 69.0032,65.8416 C67.7904,65.8416 67.5392,67.0944 67.5392,67.768 C67.5392,68.4416 67.7904,69.6944 69.0032,69.6944 Z M69.0032,65.1088 C70.6128,65.1088 71.3456,66.4672 71.3456,67.768 C71.3456,69.0688 70.6128,70.4272 69.0032,70.4272 C67.3968,70.4272 66.664,69.0688 66.664,67.768 C66.664,66.4672 67.3968,65.1088 69.0032,65.1088 Z" id="Fill-12" fill="#1A1919"></path>
        <path d="M73.272,70.2928 L72.424,70.2928 L72.424,65.2544 L73.224,65.2544 L73.224,66.0912 L73.2432,66.0912 C73.5808,65.504 74.024,65.1088 74.6592,65.1088 C74.7648,65.1088 74.8128,65.12 74.8816,65.1376 L74.8816,66.0144 L74.5632,66.0144 C73.7728,66.0144 73.272,66.632 73.272,67.3632 L73.272,70.2928" id="Fill-13" fill="#1A1919"></path>
        <path d="M77.6352,69.704 C78.56,69.704 78.9936,68.8672 78.9936,67.7584 C78.9936,67.1136 78.9264,65.8704 77.616,65.8704 C76.3936,65.8704 76.2592,67.1904 76.2592,68.008 C76.2592,69.3472 77.096,69.704 77.6352,69.704 Z M75.4496,65.2544 L76.248,65.2544 L76.248,65.9664 L76.2688,65.9664 C76.4704,65.6768 76.856,65.1088 77.7712,65.1088 C79.1104,65.1088 79.8704,66.208 79.8704,67.624 C79.8704,68.8288 79.3696,70.4368 77.6544,70.4368 C76.9808,70.4368 76.536,70.1184 76.3152,69.7632 L76.2976,69.7632 L76.2976,72.2864 L75.4496,72.2864 L75.4496,65.2544 Z" id="Fill-14" fill="#1A1919"></path>
        <path d="M82.9248,69.6944 C84.1376,69.6944 84.3888,68.4416 84.3888,67.768 C84.3888,67.0944 84.1376,65.8416 82.9248,65.8416 C81.7104,65.8416 81.4592,67.0944 81.4592,67.768 C81.4592,68.4416 81.7104,69.6944 82.9248,69.6944 Z M82.9248,65.1088 C84.5328,65.1088 85.2656,66.4672 85.2656,67.768 C85.2656,69.0688 84.5328,70.4272 82.9248,70.4272 C81.3152,70.4272 80.584,69.0688 80.584,67.768 C80.584,66.4672 81.3152,65.1088 82.9248,65.1088 Z" id="Fill-15" fill="#1A1919"></path>
        <path d="M87.192,70.2928 L86.344,70.2928 L86.344,65.2544 L87.144,65.2544 L87.144,66.0912 L87.1632,66.0912 C87.4992,65.504 87.9424,65.1088 88.5792,65.1088 C88.6848,65.1088 88.7328,65.12 88.8,65.1376 L88.8,66.0144 L88.4832,66.0144 C87.6928,66.0144 87.192,66.632 87.192,67.3632 L87.192,70.2928" id="Fill-16" fill="#1A1919"></path>
        <path d="M92.5088,67.72 C92.3744,67.8256 92.1616,67.9024 91.112,68.0368 C90.6976,68.096 90.0336,68.2208 90.0336,68.856 C90.0336,69.4064 90.312,69.7328 90.9488,69.7328 C91.7376,69.7328 92.5088,69.2224 92.5088,68.5488 L92.5088,67.72 Z M89.408,66.7856 C89.4464,65.5824 90.2448,65.1088 91.488,65.1088 C91.8928,65.1088 93.3568,65.2256 93.3568,66.5168 L93.3568,69.416 C93.3568,69.6272 93.4624,69.7136 93.6368,69.7136 C93.7136,69.7136 93.8192,69.6944 93.9152,69.6752 L93.9152,70.2928 C93.7712,70.3312 93.6464,70.3888 93.4528,70.3888 C92.7024,70.3888 92.5872,70.0016 92.5568,69.6176 C92.2304,69.9744 91.72,70.4368 90.736,70.4368 C89.8128,70.4368 89.1568,69.8496 89.1568,68.9824 C89.1568,68.5584 89.2816,67.576 90.688,67.4016 L92.0848,67.2288 C92.288,67.2096 92.528,67.1328 92.528,66.632 C92.528,66.1024 92.1424,65.8128 91.3424,65.8128 C90.3808,65.8128 90.2448,66.4 90.1872,66.7856 L89.408,66.7856 Z" id="Fill-17" fill="#1A1919"></path>
        <path d="M95.8336,65.9568 L95.8336,69.2336 C95.8336,69.6272 96.1696,69.6272 96.3424,69.6272 L96.6416,69.6272 L96.6416,70.2928 C96.3344,70.3216 96.0928,70.36 96.0064,70.36 C95.168,70.36 94.9856,69.888 94.9856,69.28 L94.9856,65.9568 L94.3008,65.9568 L94.3008,65.2544 L94.9856,65.2544 L94.9856,63.8464 L95.8336,63.8464 L95.8336,65.2544 L96.6416,65.2544 L96.6416,65.9568 L95.8336,65.9568" id="Fill-18" fill="#1A1919"></path>
        <path d="M97.4896,70.2928 L98.3376,70.2928 L98.3376,65.2544 L97.4896,65.2544 L97.4896,70.2928 Z M97.4896,64.3376 L98.3376,64.3376 L98.3376,63.376 L97.4896,63.376 L97.4896,64.3376 Z" id="Fill-19" fill="#1A1919"></path>
        <path d="M101.6608,69.6944 C102.8736,69.6944 103.1248,68.4416 103.1248,67.768 C103.1248,67.0944 102.8736,65.8416 101.6608,65.8416 C100.4464,65.8416 100.1968,67.0944 100.1968,67.768 C100.1968,68.4416 100.4464,69.6944 101.6608,69.6944 Z M101.6608,65.1088 C103.2688,65.1088 104.0016,66.4672 104.0016,67.768 C104.0016,69.0688 103.2688,70.4272 101.6608,70.4272 C100.0512,70.4272 99.32,69.0688 99.32,67.768 C99.32,66.4672 100.0512,65.1088 101.6608,65.1088 Z" id="Fill-20" fill="#1A1919"></path>
        <path d="M109.0688,70.2928 L108.2208,70.2928 L108.2208,67.1904 C108.2208,66.3136 107.9696,65.8704 107.1408,65.8704 C106.6608,65.8704 105.8128,66.1792 105.8128,67.5472 L105.8128,70.2928 L104.9648,70.2928 L104.9648,65.2544 L105.7648,65.2544 L105.7648,65.9664 L105.784,65.9664 C105.9664,65.6976 106.4384,65.1088 107.3056,65.1088 C108.0864,65.1088 109.0688,65.4272 109.0688,66.8624 L109.0688,70.2928" id="Fill-21" fill="#1A1919"></path>
        <path d="M116.072,67.72 C115.9376,67.8256 115.7248,67.9024 114.6752,68.0368 C114.2608,68.096 113.5968,68.2208 113.5968,68.856 C113.5968,69.4064 113.8752,69.7328 114.512,69.7328 C115.3008,69.7328 116.072,69.2224 116.072,68.5488 L116.072,67.72 Z M112.9696,66.7856 C113.008,65.5824 113.808,65.1088 115.0512,65.1088 C115.456,65.1088 116.92,65.2256 116.92,66.5168 L116.92,69.416 C116.92,69.6272 117.0256,69.7136 117.2,69.7136 C117.2752,69.7136 117.3824,69.6944 117.4784,69.6752 L117.4784,70.2928 C117.3344,70.3312 117.208,70.3888 117.016,70.3888 C116.264,70.3888 116.1488,70.0016 116.12,69.6176 C115.792,69.9744 115.2816,70.4368 114.2992,70.4368 C113.3744,70.4368 112.72,69.8496 112.72,68.9824 C112.72,68.5584 112.8448,67.576 114.2512,67.4016 L115.648,67.2288 C115.8496,67.2096 116.0912,67.1328 116.0912,66.632 C116.0912,66.1024 115.7056,65.8128 114.9056,65.8128 C113.9424,65.8128 113.808,66.4 113.7504,66.7856 L112.9696,66.7856 Z" id="Fill-22" fill="#1A1919"></path>
        <path d="M122.4592,70.2928 L121.6112,70.2928 L121.6112,67.1904 C121.6112,66.3136 121.36,65.8704 120.5312,65.8704 C120.0496,65.8704 119.2032,66.1792 119.2032,67.5472 L119.2032,70.2928 L118.3552,70.2928 L118.3552,65.2544 L119.1552,65.2544 L119.1552,65.9664 L119.1728,65.9664 C119.3568,65.6976 119.8288,65.1088 120.696,65.1088 C121.4752,65.1088 122.4592,65.4272 122.4592,66.8624 L122.4592,70.2928" id="Fill-23" fill="#1A1919"></path>
        <path d="M125.656,69.704 C126.1968,69.704 127.0336,69.3472 127.0336,68.008 C127.0336,67.1904 126.8992,65.8704 125.6752,65.8704 C124.3664,65.8704 124.2992,67.1136 124.2992,67.7584 C124.2992,68.8672 124.7312,69.704 125.656,69.704 Z M127.8912,70.2928 L127.0928,70.2928 L127.0928,69.5984 L127.072,69.5984 C126.7056,70.2816 126.128,70.4368 125.6368,70.4368 C123.9232,70.4368 123.4224,68.8288 123.4224,67.624 C123.4224,66.208 124.1824,65.1088 125.5216,65.1088 C126.4368,65.1088 126.8224,65.6768 127.024,65.9664 L127.0432,65.9664 L127.0432,63.376 L127.8912,63.376 L127.8912,70.2928 Z" id="Fill-24" fill="#1A1919"></path>
        <path d="M131.7648,70.2928 L132.6128,70.2928 L132.6128,65.2544 L131.7648,65.2544 L131.7648,70.2928 Z M131.7648,64.3376 L132.6128,64.3376 L132.6128,63.376 L131.7648,63.376 L131.7648,64.3376 Z" id="Fill-25" fill="#1A1919"></path>
        <path d="M137.9872,70.2928 L137.1392,70.2928 L137.1392,67.1904 C137.1392,66.3136 136.888,65.8704 136.0608,65.8704 C135.5776,65.8704 134.7296,66.1792 134.7296,67.5472 L134.7296,70.2928 L133.8832,70.2928 L133.8832,65.2544 L134.6816,65.2544 L134.6816,65.9664 L134.7024,65.9664 C134.8848,65.6976 135.3568,65.1088 136.224,65.1088 C137.0032,65.1088 137.9872,65.4272 137.9872,66.8624 L137.9872,70.2928" id="Fill-26" fill="#1A1919"></path>
        <path d="M141.1856,69.704 C141.7248,69.704 142.5632,69.3472 142.5632,68.008 C142.5632,67.1904 142.4288,65.8704 141.2032,65.8704 C139.8944,65.8704 139.8272,67.1136 139.8272,67.7584 C139.8272,68.8672 140.2608,69.704 141.1856,69.704 Z M143.4192,70.2928 L142.6208,70.2928 L142.6208,69.5984 L142.6016,69.5984 C142.2352,70.2816 141.6576,70.4368 141.1664,70.4368 C139.4512,70.4368 138.9504,68.8288 138.9504,67.624 C138.9504,66.208 139.7104,65.1088 141.0496,65.1088 C141.9664,65.1088 142.3504,65.6768 142.5536,65.9664 L142.5712,65.9664 L142.5712,63.376 L143.4192,63.376 L143.4192,70.2928 Z" id="Fill-27" fill="#1A1919"></path>
        <path d="M148.064,67.3728 C148.0144,66.5936 147.688,65.8704 146.656,65.8704 C145.8768,65.8704 145.2608,66.5936 145.2608,67.3728 L148.064,67.3728 Z M148.872,68.712 C148.8432,68.9536 148.6128,69.6656 147.976,70.0896 C147.7456,70.2432 147.4176,70.4368 146.608,70.4368 C145.192,70.4368 144.3552,69.3664 144.3552,67.912 C144.3552,66.352 145.1056,65.1088 146.7712,65.1088 C148.2272,65.1088 148.9392,66.2656 148.9392,68.048 L145.2608,68.048 C145.2608,69.0976 145.7504,69.704 146.7248,69.704 C147.5232,69.704 147.9952,69.088 148.0256,68.712 L148.872,68.712 Z" id="Fill-28" fill="#1A1919"></path>
        <path d="M152.0704,69.704 C152.9952,69.704 153.4288,68.8672 153.4288,67.7584 C153.4288,67.1136 153.3616,65.8704 152.0512,65.8704 C150.8288,65.8704 150.6928,67.1904 150.6928,68.008 C150.6928,69.3472 151.5312,69.704 152.0704,69.704 Z M149.8832,65.2544 L150.6832,65.2544 L150.6832,65.9664 L150.7024,65.9664 C150.9056,65.6768 151.2896,65.1088 152.2048,65.1088 C153.544,65.1088 154.3056,66.208 154.3056,67.624 C154.3056,68.8288 153.8048,70.4368 152.0896,70.4368 C151.4144,70.4368 150.9728,70.1184 150.7504,69.7632 L150.7312,69.7632 L150.7312,72.2864 L149.8832,72.2864 L149.8832,65.2544 Z" id="Fill-29" fill="#1A1919"></path>
        <path d="M158.7744,67.3728 C158.7264,66.5936 158.3984,65.8704 157.368,65.8704 C156.5888,65.8704 155.9712,66.5936 155.9712,67.3728 L158.7744,67.3728 Z M159.584,68.712 C159.5552,68.9536 159.3248,69.6656 158.688,70.0896 C158.4576,70.2432 158.1296,70.4368 157.32,70.4368 C155.904,70.4368 155.0656,69.3664 155.0656,67.912 C155.0656,66.352 155.8176,65.1088 157.4848,65.1088 C158.9376,65.1088 159.6528,66.2656 159.6528,68.048 L155.9712,68.048 C155.9712,69.0976 156.4624,69.704 157.4352,69.704 C158.2368,69.704 158.7072,69.088 158.736,68.712 L159.584,68.712 Z" id="Fill-30" fill="#1A1919"></path>
        <path d="M164.7664,70.2928 L163.92,70.2928 L163.92,67.1904 C163.92,66.3136 163.6688,65.8704 162.84,65.8704 C162.3584,65.8704 161.5104,66.1792 161.5104,67.5472 L161.5104,70.2928 L160.664,70.2928 L160.664,65.2544 L161.4624,65.2544 L161.4624,65.9664 L161.4816,65.9664 C161.6656,65.6976 162.1376,65.1088 163.0032,65.1088 C163.784,65.1088 164.7664,65.4272 164.7664,66.8624 L164.7664,70.2928" id="Fill-31" fill="#1A1919"></path>
        <path d="M167.9648,69.704 C168.504,69.704 169.3424,69.3472 169.3424,68.008 C169.3424,67.1904 169.208,65.8704 167.984,65.8704 C166.6736,65.8704 166.6064,67.1136 166.6064,67.7584 C166.6064,68.8672 167.04,69.704 167.9648,69.704 Z M170.2,70.2928 L169.4,70.2928 L169.4,69.5984 L169.3808,69.5984 C169.0144,70.2816 168.4368,70.4368 167.9456,70.4368 C166.2304,70.4368 165.7312,68.8288 165.7312,67.624 C165.7312,66.208 166.4912,65.1088 167.8304,65.1088 C168.7456,65.1088 169.1312,65.6768 169.3328,65.9664 L169.352,65.9664 L169.352,63.376 L170.2,63.376 L170.2,70.2928 Z" id="Fill-32" fill="#1A1919"></path>
        <path d="M174.8432,67.3728 C174.7952,66.5936 174.4672,65.8704 173.4368,65.8704 C172.656,65.8704 172.04,66.5936 172.04,67.3728 L174.8432,67.3728 Z M175.6528,68.712 C175.624,68.9536 175.3936,69.6656 174.7568,70.0896 C174.5248,70.2432 174.1984,70.4368 173.3888,70.4368 C171.9728,70.4368 171.1344,69.3664 171.1344,67.912 C171.1344,66.352 171.8864,65.1088 173.552,65.1088 C175.0064,65.1088 175.72,66.2656 175.72,68.048 L172.04,68.048 C172.04,69.0976 172.5312,69.704 173.504,69.704 C174.304,69.704 174.776,69.088 174.8048,68.712 L175.6528,68.712 Z" id="Fill-33" fill="#1A1919"></path>
        <path d="M180.8352,70.2928 L179.9872,70.2928 L179.9872,67.1904 C179.9872,66.3136 179.736,65.8704 178.9088,65.8704 C178.4272,65.8704 177.5792,66.1792 177.5792,67.5472 L177.5792,70.2928 L176.7312,70.2928 L176.7312,65.2544 L177.5312,65.2544 L177.5312,65.9664 L177.5504,65.9664 C177.7328,65.6976 178.2048,65.1088 179.072,65.1088 C179.8528,65.1088 180.8352,65.4272 180.8352,66.8624 L180.8352,70.2928" id="Fill-34" fill="#1A1919"></path>
        <path d="M183.128,65.9568 L183.128,69.2336 C183.128,69.6272 183.4656,69.6272 183.6384,69.6272 L183.9376,69.6272 L183.9376,70.2928 C183.6288,70.3216 183.3872,70.36 183.3008,70.36 C182.4624,70.36 182.28,69.888 182.28,69.28 L182.28,65.9568 L181.5968,65.9568 L181.5968,65.2544 L182.28,65.2544 L182.28,63.8464 L183.128,63.8464 L183.128,65.2544 L183.9376,65.2544 L183.9376,65.9568 L183.128,65.9568" id="Fill-35" fill="#1A1919"></path>
        <polygon id="Fill-36" fill="#1A1919" points="187.4624 70.2928 188.3104 70.2928 188.3104 63.376 187.4624 63.376"></polygon>
        <path d="M189.6,70.2928 L190.4496,70.2928 L190.4496,65.2544 L189.6,65.2544 L189.6,70.2928 Z M189.6,64.3376 L190.4496,64.3376 L190.4496,63.376 L189.6,63.376 L189.6,64.3376 Z" id="Fill-37" fill="#1A1919"></path>
        <path d="M194.8704,66.9488 C194.7648,66.2752 194.3888,65.8704 193.6752,65.8704 C192.6256,65.8704 192.2896,66.872 192.2896,67.768 C192.2896,68.6352 192.5008,69.704 193.6672,69.704 C194.2336,69.704 194.7264,69.28 194.8704,68.5104 L195.6896,68.5104 C195.6016,69.3088 195.1104,70.4368 193.6368,70.4368 C192.2208,70.4368 191.3824,69.3664 191.3824,67.912 C191.3824,66.352 192.1344,65.1088 193.8,65.1088 C195.12,65.1088 195.6224,66.072 195.6896,66.9488 L194.8704,66.9488" id="Fill-38" fill="#1A1919"></path>
        <path d="M200.0048,67.3728 C199.9568,66.5936 199.6288,65.8704 198.5984,65.8704 C197.8176,65.8704 197.2016,66.5936 197.2016,67.3728 L200.0048,67.3728 Z M200.8128,68.712 C200.7856,68.9536 200.5536,69.6656 199.9184,70.0896 C199.688,70.2432 199.36,70.4368 198.5504,70.4368 C197.1344,70.4368 196.296,69.3664 196.296,67.912 C196.296,66.352 197.048,65.1088 198.7136,65.1088 C200.168,65.1088 200.8816,66.2656 200.8816,68.048 L197.2016,68.048 C197.2016,69.0976 197.6928,69.704 198.6656,69.704 C199.4656,69.704 199.9376,69.088 199.9664,68.712 L200.8128,68.712 Z" id="Fill-39" fill="#1A1919"></path>
        <path d="M205.9968,70.2928 L205.1488,70.2928 L205.1488,67.1904 C205.1488,66.3136 204.8992,65.8704 204.0688,65.8704 C203.5872,65.8704 202.7408,66.1792 202.7408,67.5472 L202.7408,70.2928 L201.8928,70.2928 L201.8928,65.2544 L202.6912,65.2544 L202.6912,65.9664 L202.712,65.9664 C202.8944,65.6976 203.3664,65.1088 204.2336,65.1088 C205.0128,65.1088 205.9968,65.4272 205.9968,66.8624 L205.9968,70.2928" id="Fill-40" fill="#1A1919"></path>
        <path d="M210.1104,66.6896 C210.1008,66.3712 209.9856,65.8416 208.9152,65.8416 C208.656,65.8416 207.9136,65.928 207.9136,66.5552 C207.9136,66.968 208.1728,67.0656 208.8288,67.2288 L209.6752,67.4416 C210.7264,67.7008 211.0928,68.0864 211.0928,68.7696 C211.0928,69.8112 210.2352,70.4368 209.0992,70.4368 C207.104,70.4368 206.96,69.28 206.9312,68.6736 L207.7504,68.6736 C207.7776,69.0688 207.8944,69.704 209.0896,69.704 C209.696,69.704 210.2448,69.464 210.2448,68.9056 C210.2448,68.5008 209.9648,68.3664 209.2416,68.1824 L208.2608,67.9408 C207.5568,67.768 207.0944,67.4112 207.0944,66.7184 C207.0944,65.6112 208.0096,65.1088 209.0016,65.1088 C210.8032,65.1088 210.9296,66.4384 210.9296,66.6896 L210.1104,66.6896" id="Fill-41" fill="#1A1919"></path>
        <path d="M215.5328,67.3728 C215.4848,66.5936 215.1584,65.8704 214.1264,65.8704 C213.3456,65.8704 212.7296,66.5936 212.7296,67.3728 L215.5328,67.3728 Z M216.3424,68.712 C216.3136,68.9536 216.0816,69.6656 215.4464,70.0896 C215.2144,70.2432 214.888,70.4368 214.0784,70.4368 C212.6624,70.4368 211.8256,69.3664 211.8256,67.912 C211.8256,66.352 212.576,65.1088 214.2416,65.1088 C215.6976,65.1088 216.4096,66.2656 216.4096,68.048 L212.7296,68.048 C212.7296,69.0976 213.2208,69.704 214.1952,69.704 C214.9936,69.704 215.4656,69.088 215.4944,68.712 L216.3424,68.712 Z" id="Fill-42" fill="#1A1919"></path>
        <path d="M220.8896,67.3728 C220.84,66.5936 220.5136,65.8704 219.4832,65.8704 C218.7024,65.8704 218.0864,66.5936 218.0864,67.3728 L220.8896,67.3728 Z M221.6992,68.712 C221.6688,68.9536 221.4384,69.6656 220.8016,70.0896 C220.5712,70.2432 220.2432,70.4368 219.4352,70.4368 C218.0192,70.4368 217.1808,69.3664 217.1808,67.912 C217.1808,66.352 217.9328,65.1088 219.5984,65.1088 C221.0528,65.1088 221.7664,66.2656 221.7664,68.048 L218.0864,68.048 C218.0864,69.0976 218.5776,69.704 219.5504,69.704 C220.3488,69.704 220.8224,69.088 220.8512,68.712 L221.6992,68.712 Z" id="Fill-43" fill="#1A1919"></path>
        <path d="M14.9248,79.2192 C16.1376,79.2192 16.3888,77.968 16.3888,77.2944 C16.3888,76.6192 16.1376,75.3664 14.9248,75.3664 C13.7104,75.3664 13.4592,76.6192 13.4592,77.2944 C13.4592,77.968 13.7104,79.2192 14.9248,79.2192 Z M14.9248,74.6352 C16.5328,74.6352 17.2656,75.9936 17.2656,77.2944 C17.2656,78.5936 16.5328,79.952 14.9248,79.952 C13.3152,79.952 12.584,78.5936 12.584,77.2944 C12.584,75.9936 13.3152,74.6352 14.9248,74.6352 Z" id="Fill-44" fill="#1A1919"></path>
        <path d="M19.2784,75.4816 L19.2784,79.8176 L18.432,79.8176 L18.432,75.4816 L17.7376,75.4816 L17.7376,74.7792 L18.432,74.7792 L18.432,73.912 C18.432,73.152 18.912,72.8048 19.7408,72.8048 C19.8672,72.8048 19.992,72.8144 20.1264,72.824 L20.1264,73.5856 C20.0208,73.5744 19.8848,73.5648 19.7792,73.5648 C19.4128,73.5648 19.2784,73.7488 19.2784,74.1536 L19.2784,74.7792 L20.1264,74.7792 L20.1264,75.4816 L19.2784,75.4816" id="Fill-45" fill="#1A1919"></path>
        <path d="M24.6256,75.4816 L24.6256,78.7584 C24.6256,79.152 24.9616,79.152 25.1344,79.152 L25.4336,79.152 L25.4336,79.8176 C25.1264,79.8464 24.8848,79.8848 24.7984,79.8848 C23.96,79.8848 23.7776,79.4128 23.7776,78.8048 L23.7776,75.4816 L23.0928,75.4816 L23.0928,74.7792 L23.7776,74.7792 L23.7776,73.3728 L24.6256,73.3728 L24.6256,74.7792 L25.4336,74.7792 L25.4336,75.4816 L24.6256,75.4816" id="Fill-46" fill="#1A1919"></path>
        <path d="M30.3664,79.8176 L29.5184,79.8176 L29.5184,76.5232 C29.5184,75.8384 29.3264,75.3952 28.5168,75.3952 C27.8224,75.3952 27.1104,75.8 27.1104,77.072 L27.1104,79.8176 L26.2624,79.8176 L26.2624,72.9008 L27.1104,72.9008 L27.1104,75.4544 L27.1296,75.4544 C27.3696,75.136 27.7952,74.6352 28.6032,74.6352 C29.384,74.6352 30.3664,74.952 30.3664,76.3888 L30.3664,79.8176" id="Fill-47" fill="#1A1919"></path>
        <path d="M35.0864,76.8976 C35.0384,76.1184 34.7104,75.3952 33.68,75.3952 C32.8992,75.3952 32.2832,76.1184 32.2832,76.8976 L35.0864,76.8976 Z M35.896,78.2368 C35.8656,78.4784 35.6352,79.192 35,79.6144 C34.768,79.7696 34.4416,79.9616 33.632,79.9616 C32.216,79.9616 31.3776,78.8928 31.3776,77.4368 C31.3776,75.8768 32.1296,74.6352 33.7952,74.6352 C35.2496,74.6352 35.9632,75.7904 35.9632,77.5728 L32.2832,77.5728 C32.2832,78.6224 32.7744,79.2304 33.7472,79.2304 C34.5472,79.2304 35.0192,78.6128 35.048,78.2368 L35.896,78.2368 Z" id="Fill-48" fill="#1A1919"></path>
        <path d="M40.6736,79.0176 L42.6672,79.0176 C43.64,79.0176 44.1328,78.5264 44.1328,77.7552 C44.1328,76.7824 43.2736,76.5904 42.5136,76.5904 L40.6736,76.5904 L40.6736,79.0176 Z M40.6736,75.8304 L42.36,75.8304 C43.256,75.8304 43.8048,75.56 43.8048,74.712 C43.8048,74.0656 43.4096,73.7008 42.3696,73.7008 L40.6736,73.7008 L40.6736,75.8304 Z M39.7392,72.9008 L42.784,72.9008 C44.0736,72.9008 44.7392,73.7008 44.7392,74.6448 C44.7392,75.096 44.5744,75.7328 43.8144,76.0896 C44.2672,76.272 45.0672,76.5904 45.0672,77.7744 C45.0672,78.8832 44.248,79.8176 42.7152,79.8176 L39.7392,79.8176 L39.7392,72.9008 Z" id="Fill-49" fill="#1A1919"></path>
        <polygon id="Fill-50" fill="#1A1919" points="46.096 79.8176 46.944 79.8176 46.944 72.9008 46.096 72.9008"></polygon>
        <path d="M51.5008,79.8176 L51.5008,79.0848 L51.4816,79.0656 C51.1264,79.6544 50.6912,79.9616 49.8832,79.9616 C49.1408,79.9616 48.2448,79.6048 48.2448,78.4 L48.2448,74.7792 L49.0928,74.7792 L49.0928,78.1216 C49.0928,78.9504 49.5168,79.2304 50.0656,79.2304 C51.136,79.2304 51.4528,78.2848 51.4528,77.5536 L51.4528,74.7792 L52.3008,74.7792 L52.3008,79.8176 L51.5008,79.8176" id="Fill-51" fill="#1A1919"></path>
        <path d="M57.04,76.8976 C56.992,76.1184 56.6656,75.3952 55.6336,75.3952 C54.8544,75.3952 54.2368,76.1184 54.2368,76.8976 L57.04,76.8976 Z M57.8496,78.2368 C57.8208,78.4784 57.5888,79.192 56.9536,79.6144 C56.7232,79.7696 56.3952,79.9616 55.5856,79.9616 C54.1696,79.9616 53.3312,78.8928 53.3312,77.4368 C53.3312,75.8768 54.0832,74.6352 55.7504,74.6352 C57.2032,74.6352 57.9168,75.7904 57.9168,77.5728 L54.2368,77.5728 C54.2368,78.6224 54.7296,79.2304 55.7008,79.2304 C56.5008,79.2304 56.9728,78.6128 57.0016,78.2368 L57.8496,78.2368 Z" id="Fill-52" fill="#1A1919"></path>
        <path d="M66.5664,74.9808 C66.3072,73.768 65.296,73.5456 64.632,73.5456 C63.3792,73.5456 62.3664,74.4704 62.3664,76.2912 C62.3664,77.92 62.944,79.1712 64.6608,79.1712 C65.2672,79.1712 66.3168,78.8832 66.6336,77.2736 L67.5392,77.2736 C67.1552,79.8848 65.0352,80 64.5152,80 C62.944,80 61.4048,78.9792 61.4048,76.32 C61.4048,74.192 62.6176,72.7168 64.632,72.7168 C66.4128,72.7168 67.3376,73.8256 67.4736,74.9808 L66.5664,74.9808" id="Fill-53" fill="#1A1919"></path>
        <path d="M69.5248,79.8176 L68.6768,79.8176 L68.6768,74.7792 L69.4768,74.7792 L69.4768,75.6176 L69.496,75.6176 C69.8336,75.0304 70.2768,74.6352 70.912,74.6352 C71.0176,74.6352 71.0656,74.6448 71.1344,74.6624 L71.1344,75.5408 L70.816,75.5408 C70.0256,75.5408 69.5248,76.1568 69.5248,76.8896 L69.5248,79.8176" id="Fill-54" fill="#1A1919"></path>
        <path d="M73.8208,79.2192 C75.0352,79.2192 75.2848,77.968 75.2848,77.2944 C75.2848,76.6192 75.0352,75.3664 73.8208,75.3664 C72.6064,75.3664 72.3568,76.6192 72.3568,77.2944 C72.3568,77.968 72.6064,79.2192 73.8208,79.2192 Z M73.8208,74.6352 C75.4304,74.6352 76.1616,75.9936 76.1616,77.2944 C76.1616,78.5936 75.4304,79.952 73.8208,79.952 C72.2112,79.952 71.48,78.5936 71.48,77.2944 C71.48,75.9936 72.2112,74.6352 73.8208,74.6352 Z" id="Fill-55" fill="#1A1919"></path>
        <path d="M79.9856,76.2144 C79.976,75.896 79.8608,75.3664 78.792,75.3664 C78.5312,75.3664 77.7904,75.4544 77.7904,76.08 C77.7904,76.4944 78.0496,76.5904 78.7056,76.7552 L79.5536,76.9664 C80.6016,77.2256 80.968,77.6112 80.968,78.2944 C80.968,79.336 80.1104,79.9616 78.9744,79.9616 C76.9808,79.9616 76.8352,78.8048 76.8064,78.1984 L77.6256,78.1984 C77.6544,78.5936 77.7696,79.2304 78.9648,79.2304 C79.5712,79.2304 80.1216,78.9888 80.1216,78.4304 C80.1216,78.0256 79.8416,77.8912 79.12,77.7072 L78.136,77.4672 C77.4336,77.2944 76.9712,76.936 76.9712,76.2432 C76.9712,75.136 77.8864,74.6352 78.8784,74.6352 C80.68,74.6352 80.8048,75.9632 80.8048,76.2144 L79.9856,76.2144" id="Fill-56" fill="#1A1919"></path>
        <path d="M84.8032,76.2144 C84.7936,75.896 84.6768,75.3664 83.608,75.3664 C83.3488,75.3664 82.6064,75.4544 82.6064,76.08 C82.6064,76.4944 82.8672,76.5904 83.5216,76.7552 L84.3696,76.9664 C85.4192,77.2256 85.7856,77.6112 85.7856,78.2944 C85.7856,79.336 84.928,79.9616 83.792,79.9616 C81.7984,79.9616 81.6528,78.8048 81.624,78.1984 L82.4432,78.1984 C82.4704,78.5936 82.5872,79.2304 83.7808,79.2304 C84.3888,79.2304 84.9376,78.9888 84.9376,78.4304 C84.9376,78.0256 84.6576,77.8912 83.9344,77.7072 L82.9536,77.4672 C82.2496,77.2944 81.7872,76.936 81.7872,76.2432 C81.7872,75.136 82.7024,74.6352 83.6944,74.6352 C85.4976,74.6352 85.6224,75.9632 85.6224,76.2144 L84.8032,76.2144" id="Fill-57" fill="#1A1919"></path>
        <path d="M92.5088,77.2448 C92.3744,77.352 92.1616,77.4288 91.112,77.5632 C90.6976,77.6208 90.0336,77.7456 90.0336,78.3824 C90.0336,78.9312 90.312,79.2592 90.9488,79.2592 C91.7376,79.2592 92.5088,78.7488 92.5088,78.0736 L92.5088,77.2448 Z M89.408,76.3104 C89.4464,75.1072 90.2448,74.6352 91.488,74.6352 C91.8928,74.6352 93.3568,74.7504 93.3568,76.0416 L93.3568,78.9408 C93.3568,79.152 93.4624,79.24 93.6368,79.24 C93.7136,79.24 93.8192,79.2192 93.9152,79.2 L93.9152,79.8176 C93.7712,79.856 93.6464,79.9136 93.4528,79.9136 C92.7024,79.9136 92.5872,79.528 92.5568,79.1424 C92.2304,79.4992 91.72,79.9616 90.736,79.9616 C89.8128,79.9616 89.1568,79.3744 89.1568,78.5072 C89.1568,78.0832 89.2816,77.1008 90.688,76.928 L92.0848,76.7552 C92.288,76.7344 92.528,76.6576 92.528,76.1568 C92.528,75.6272 92.1424,75.3376 91.3424,75.3376 C90.3808,75.3376 90.2448,75.9248 90.1872,76.3104 L89.408,76.3104 Z" id="Fill-58" fill="#1A1919"></path>
        <path d="M98.896,79.8176 L98.048,79.8176 L98.048,76.7152 C98.048,75.8384 97.7984,75.3952 96.9696,75.3952 C96.488,75.3952 95.64,75.704 95.64,77.072 L95.64,79.8176 L94.792,79.8176 L94.792,74.7792 L95.592,74.7792 L95.592,75.4928 L95.6112,75.4928 C95.7952,75.2224 96.2656,74.6352 97.1328,74.6352 C97.9136,74.6352 98.896,74.952 98.896,76.3888 L98.896,79.8176" id="Fill-59" fill="#1A1919"></path>
        <path d="M102.0944,79.2304 C102.6336,79.2304 103.4704,78.8736 103.4704,77.5344 C103.4704,76.7152 103.336,75.3952 102.1136,75.3952 C100.8032,75.3952 100.736,76.6384 100.736,77.2832 C100.736,78.392 101.1696,79.2304 102.0944,79.2304 Z M104.3296,79.8176 L103.5296,79.8176 L103.5296,79.1248 L103.5104,79.1248 C103.144,79.808 102.5664,79.9616 102.0752,79.9616 C100.36,79.9616 99.8592,78.3536 99.8592,77.1488 C99.8592,75.7328 100.6208,74.6352 101.96,74.6352 C102.8752,74.6352 103.2592,75.2016 103.4624,75.4928 L103.4816,75.4928 L103.4816,72.9008 L104.3296,72.9008 L104.3296,79.8176 Z" id="Fill-60" fill="#1A1919"></path>
        <path d="M109.2032,79.0176 L111.1968,79.0176 C112.1696,79.0176 112.6624,78.5264 112.6624,77.7552 C112.6624,76.7824 111.8032,76.5904 111.0432,76.5904 L109.2032,76.5904 L109.2032,79.0176 Z M109.2032,75.8304 L110.8896,75.8304 C111.7856,75.8304 112.3344,75.56 112.3344,74.712 C112.3344,74.0656 111.9392,73.7008 110.8992,73.7008 L109.2032,73.7008 L109.2032,75.8304 Z M108.2688,72.9008 L111.3136,72.9008 C112.6032,72.9008 113.2688,73.7008 113.2688,74.6448 C113.2688,75.096 113.104,75.7328 112.344,76.0896 C112.7968,76.272 113.5968,76.5904 113.5968,77.7744 C113.5968,78.8832 112.7776,79.8176 111.2448,79.8176 L108.2688,79.8176 L108.2688,72.9008 Z" id="Fill-61" fill="#1A1919"></path>
        <polygon id="Fill-62" fill="#1A1919" points="114.6272 79.8176 115.4752 79.8176 115.4752 72.9008 114.6272 72.9008"></polygon>
        <path d="M120.0304,79.8176 L120.0304,79.0848 L120.0112,79.0656 C119.6544,79.6544 119.2208,79.9616 118.4112,79.9616 C117.6704,79.9616 116.7744,79.6048 116.7744,78.4 L116.7744,74.7792 L117.6224,74.7792 L117.6224,78.1216 C117.6224,78.9504 118.0464,79.2304 118.5952,79.2304 C119.664,79.2304 119.9824,78.2848 119.9824,77.5536 L119.9824,74.7792 L120.8304,74.7792 L120.8304,79.8176 L120.0304,79.8176" id="Fill-63" fill="#1A1919"></path>
        <path d="M125.5696,76.8976 C125.5216,76.1184 125.1936,75.3952 124.1632,75.3952 C123.384,75.3952 122.7664,76.1184 122.7664,76.8976 L125.5696,76.8976 Z M126.3792,78.2368 C126.3504,78.4784 126.1184,79.192 125.4832,79.6144 C125.2512,79.7696 124.9248,79.9616 124.1152,79.9616 C122.6992,79.9616 121.8608,78.8928 121.8608,77.4368 C121.8608,75.8768 122.6128,74.6352 124.28,74.6352 C125.7344,74.6352 126.4464,75.7904 126.4464,77.5728 L122.7664,77.5728 C122.7664,78.6224 123.2576,79.2304 124.2304,79.2304 C125.0304,79.2304 125.5024,78.6128 125.5312,78.2368 L126.3792,78.2368 Z" id="Fill-64" fill="#1A1919"></path>
        <path d="M134.4128,74.9248 C134.3648,73.8544 133.4784,73.5168 132.6976,73.5168 C132.1104,73.5168 131.1184,73.68 131.1184,74.7312 C131.1184,75.3184 131.5328,75.5104 131.9376,75.6064 L133.912,76.0608 C134.808,76.272 135.4816,76.8112 135.4816,77.9104 C135.4816,79.5472 133.96,80 132.7744,80 C131.4944,80 130.9936,79.6144 130.6848,79.336 C130.0976,78.8048 129.9824,78.2288 129.9824,77.5824 L130.8592,77.5824 C130.8592,78.8352 131.8784,79.2 132.7664,79.2 C133.44,79.2 134.5776,79.0272 134.5776,78.0352 C134.5776,77.312 134.2384,77.0816 133.1024,76.8112 L131.688,76.4848 C131.2336,76.3776 130.2128,76.0608 130.2128,74.856 C130.2128,73.7776 130.9168,72.7168 132.592,72.7168 C135.0096,72.7168 135.2512,74.1632 135.2896,74.9248 L134.4128,74.9248" id="Fill-65" fill="#1A1919"></path>
        <path d="M140.664,79.8176 L139.8176,79.8176 L139.8176,76.5232 C139.8176,75.8384 139.6256,75.3952 138.816,75.3952 C138.1216,75.3952 137.408,75.8 137.408,77.072 L137.408,79.8176 L136.5616,79.8176 L136.5616,72.9008 L137.408,72.9008 L137.408,75.4544 L137.4288,75.4544 C137.6688,75.136 138.0928,74.6352 138.9024,74.6352 C139.6816,74.6352 140.664,74.952 140.664,76.3888 L140.664,79.8176" id="Fill-66" fill="#1A1919"></path>
        <path d="M141.936,79.8176 L142.784,79.8176 L142.784,74.7792 L141.936,74.7792 L141.936,79.8176 Z M141.936,73.864 L142.784,73.864 L142.784,72.9008 L141.936,72.9008 L141.936,73.864 Z" id="Fill-67" fill="#1A1919"></path>
        <path d="M147.5232,76.8976 C147.4752,76.1184 147.1488,75.3952 146.1168,75.3952 C145.336,75.3952 144.72,76.1184 144.72,76.8976 L147.5232,76.8976 Z M148.3328,78.2368 C148.304,78.4784 148.072,79.192 147.4368,79.6144 C147.2048,79.7696 146.8784,79.9616 146.0688,79.9616 C144.6528,79.9616 143.8144,78.8928 143.8144,77.4368 C143.8144,75.8768 144.5664,74.6352 146.2336,74.6352 C147.688,74.6352 148.4,75.7904 148.4,77.5728 L144.72,77.5728 C144.72,78.6224 145.2112,79.2304 146.1856,79.2304 C146.984,79.2304 147.456,78.6128 147.4848,78.2368 L148.3328,78.2368 Z" id="Fill-68" fill="#1A1919"></path>
        <polygon id="Fill-69" fill="#1A1919" points="149.432 79.8176 150.2784 79.8176 150.2784 72.9008 149.432 72.9008"></polygon>
        <path d="M153.496,79.2304 C154.0368,79.2304 154.872,78.8736 154.872,77.5344 C154.872,76.7152 154.7376,75.3952 153.5152,75.3952 C152.2048,75.3952 152.1376,76.6384 152.1376,77.2832 C152.1376,78.392 152.5712,79.2304 153.496,79.2304 Z M155.7296,79.8176 L154.9312,79.8176 L154.9312,79.1248 L154.912,79.1248 C154.5456,79.808 153.968,79.9616 153.4768,79.9616 C151.7616,79.9616 151.2608,78.3536 151.2608,77.1488 C151.2608,75.7328 152.0224,74.6352 153.3616,74.6352 C154.2768,74.6352 154.6624,75.2016 154.864,75.4928 L154.8832,75.4928 L154.8832,72.9008 L155.7296,72.9008 L155.7296,79.8176 Z" id="Fill-70" fill="#1A1919"></path>
        <path d="M163.216,76.9744 L162.1952,73.9312 L162.176,73.9312 L161.0672,76.9744 L163.216,76.9744 Z M160.7776,77.8032 L160.056,79.8176 L159.0928,79.8176 L161.6944,72.9008 L162.7536,72.9008 L165.2592,79.8176 L164.2368,79.8176 L163.5536,77.8032 L160.7776,77.8032 Z" id="Fill-71" fill="#1A1919"></path>
        <path d="M168.8688,76.2144 C168.8608,75.896 168.744,75.3664 167.6752,75.3664 C167.416,75.3664 166.6736,75.4544 166.6736,76.08 C166.6736,76.4944 166.9344,76.5904 167.5888,76.7552 L168.4368,76.9664 C169.4864,77.2256 169.8528,77.6112 169.8528,78.2944 C169.8528,79.336 168.9952,79.9616 167.8592,79.9616 C165.8656,79.9616 165.72,78.8048 165.6912,78.1984 L166.5104,78.1984 C166.5392,78.5936 166.6544,79.2304 167.8496,79.2304 C168.456,79.2304 169.0048,78.9888 169.0048,78.4304 C169.0048,78.0256 168.7264,77.8912 168.0032,77.7072 L167.0208,77.4672 C166.3184,77.2944 165.8544,76.936 165.8544,76.2432 C165.8544,75.136 166.7696,74.6352 167.7632,74.6352 C169.5632,74.6352 169.6896,75.9632 169.6896,76.2144 L168.8688,76.2144" id="Fill-72" fill="#1A1919"></path>
        <path d="M173.6864,76.2144 C173.6768,75.896 173.5616,75.3664 172.4928,75.3664 C172.232,75.3664 171.4912,75.4544 171.4912,76.08 C171.4912,76.4944 171.7504,76.5904 172.4048,76.7552 L173.2528,76.9664 C174.3024,77.2256 174.6688,77.6112 174.6688,78.2944 C174.6688,79.336 173.8128,79.9616 172.6752,79.9616 C170.6816,79.9616 170.536,78.8048 170.5088,78.1984 L171.328,78.1984 C171.3552,78.5936 171.4704,79.2304 172.6672,79.2304 C173.272,79.2304 173.8224,78.9888 173.8224,78.4304 C173.8224,78.0256 173.5424,77.8912 172.8192,77.7072 L171.8368,77.4672 C171.1344,77.2944 170.672,76.936 170.672,76.2432 C170.672,75.136 171.5872,74.6352 172.5792,74.6352 C174.3808,74.6352 174.5056,75.9632 174.5056,76.2144 L173.6864,76.2144" id="Fill-73" fill="#1A1919"></path>
        <path d="M177.6944,79.2192 C178.9072,79.2192 179.1584,77.968 179.1584,77.2944 C179.1584,76.6192 178.9072,75.3664 177.6944,75.3664 C176.48,75.3664 176.2304,76.6192 176.2304,77.2944 C176.2304,77.968 176.48,79.2192 177.6944,79.2192 Z M177.6944,74.6352 C179.3024,74.6352 180.0352,75.9936 180.0352,77.2944 C180.0352,78.5936 179.3024,79.952 177.6944,79.952 C176.0864,79.952 175.3536,78.5936 175.3536,77.2944 C175.3536,75.9936 176.0864,74.6352 177.6944,74.6352 Z" id="Fill-74" fill="#1A1919"></path>
        <path d="M184.1488,76.4752 C184.0416,75.8 183.6672,75.3952 182.9536,75.3952 C181.904,75.3952 181.5664,76.3984 181.5664,77.2944 C181.5664,78.16 181.7792,79.2304 182.944,79.2304 C183.512,79.2304 184.0032,78.8048 184.1488,78.0352 L184.9664,78.0352 C184.88,78.8352 184.3888,79.9616 182.9152,79.9616 C181.4992,79.9616 180.6608,78.8928 180.6608,77.4368 C180.6608,75.8768 181.4128,74.6352 183.0784,74.6352 C184.4,74.6352 184.8992,75.5968 184.9664,76.4752 L184.1488,76.4752" id="Fill-75" fill="#1A1919"></path>
        <path d="M185.8336,79.8176 L186.6816,79.8176 L186.6816,74.7792 L185.8336,74.7792 L185.8336,79.8176 Z M185.8336,73.864 L186.6816,73.864 L186.6816,72.9008 L185.8336,72.9008 L185.8336,73.864 Z" id="Fill-76" fill="#1A1919"></path>
        <path d="M191.0272,77.2448 C190.8912,77.352 190.68,77.4288 189.6304,77.5632 C189.2144,77.6208 188.5504,77.7456 188.5504,78.3824 C188.5504,78.9312 188.8304,79.2592 189.4656,79.2592 C190.256,79.2592 191.0272,78.7488 191.0272,78.0736 L191.0272,77.2448 Z M187.9248,76.3104 C187.9632,75.1072 188.7632,74.6352 190.0048,74.6352 C190.4096,74.6352 191.8736,74.7504 191.8736,76.0416 L191.8736,78.9408 C191.8736,79.152 191.9792,79.24 192.1536,79.24 C192.2304,79.24 192.336,79.2192 192.4336,79.2 L192.4336,79.8176 C192.288,79.856 192.1632,79.9136 191.9696,79.9136 C191.2192,79.9136 191.104,79.528 191.0752,79.1424 C190.7472,79.4992 190.2352,79.9616 189.2544,79.9616 C188.3296,79.9616 187.6736,79.3744 187.6736,78.5072 C187.6736,78.0832 187.8,77.1008 189.2048,76.928 L190.6016,76.7552 C190.8048,76.7344 191.0448,76.6576 191.0448,76.1568 C191.0448,75.6272 190.6608,75.3376 189.8608,75.3376 C188.8976,75.3376 188.7632,75.9248 188.704,76.3104 L187.9248,76.3104 Z" id="Fill-77" fill="#1A1919"></path>
        <path d="M194.3488,75.4816 L194.3488,78.7584 C194.3488,79.152 194.688,79.152 194.8608,79.152 L195.1584,79.152 L195.1584,79.8176 C194.8512,79.8464 194.6096,79.8848 194.5232,79.8848 C193.6848,79.8848 193.5024,79.4128 193.5024,78.8048 L193.5024,75.4816 L192.8176,75.4816 L192.8176,74.7792 L193.5024,74.7792 L193.5024,73.3728 L194.3488,73.3728 L194.3488,74.7792 L195.1584,74.7792 L195.1584,75.4816 L194.3488,75.4816" id="Fill-78" fill="#1A1919"></path>
        <path d="M196.0064,79.8176 L196.8544,79.8176 L196.8544,74.7792 L196.0064,74.7792 L196.0064,79.8176 Z M196.0064,73.864 L196.8544,73.864 L196.8544,72.9008 L196.0064,72.9008 L196.0064,73.864 Z" id="Fill-79" fill="#1A1919"></path>
        <path d="M200.1776,79.2192 C201.392,79.2192 201.6416,77.968 201.6416,77.2944 C201.6416,76.6192 201.392,75.3664 200.1776,75.3664 C198.9648,75.3664 198.7136,76.6192 198.7136,77.2944 C198.7136,77.968 198.9648,79.2192 200.1776,79.2192 Z M200.1776,74.6352 C201.7872,74.6352 202.5184,75.9936 202.5184,77.2944 C202.5184,78.5936 201.7872,79.952 200.1776,79.952 C198.568,79.952 197.8368,78.5936 197.8368,77.2944 C197.8368,75.9936 198.568,74.6352 200.1776,74.6352 Z" id="Fill-80" fill="#1A1919"></path>
        <path d="M207.5856,79.8176 L206.7376,79.8176 L206.7376,76.7152 C206.7376,75.8384 206.488,75.3952 205.6592,75.3952 C205.1776,75.3952 204.3296,75.704 204.3296,77.072 L204.3296,79.8176 L203.4816,79.8176 L203.4816,74.7792 L204.2816,74.7792 L204.2816,75.4928 L204.3008,75.4928 C204.4832,75.2224 204.9552,74.6352 205.8224,74.6352 C206.6032,74.6352 207.5856,74.952 207.5856,76.3888 L207.5856,79.8176" id="Fill-81" fill="#1A1919"></path>
        <path d="M82.0528,46.4768 C82.4832,46.4768 82.8704,46.4464 82.8704,45.9296 C82.8704,45.5136 82.4912,45.4368 82.1376,45.4368 L81.4432,45.4368 L81.4432,46.4768 L82.0528,46.4768 Z M81.4432,48.3648 L80.9344,48.3648 L80.9344,45.0048 L82.2144,45.0048 C83.008,45.0048 83.4016,45.2976 83.4016,45.9616 C83.4016,46.5616 83.024,46.824 82.5312,46.8848 L83.4864,48.3648 L82.9152,48.3648 L82.0288,46.9072 L81.4432,46.9072 L81.4432,48.3648 Z M82.0608,49.112 C83.3776,49.112 84.4176,48.08 84.4176,46.6768 C84.4176,45.2976 83.3776,44.2576 82.0608,44.2576 C80.7264,44.2576 79.6864,45.2976 79.6864,46.6768 C79.6864,48.08 80.7264,49.112 82.0608,49.112 Z M79.0992,46.6768 C79.0992,45.0048 80.4576,43.7712 82.0608,43.7712 C83.648,43.7712 85.0032,45.0048 85.0032,46.6768 C85.0032,48.3648 83.648,49.5968 82.0608,49.5968 C80.4576,49.5968 79.0992,48.3648 79.0992,46.6768 Z" id="Fill-82" fill="#003C68"></path>
        <path d="M39.1632,46.4768 C39.5936,46.4768 39.9792,46.4464 39.9792,45.9296 C39.9792,45.5136 39.6016,45.4368 39.2464,45.4368 L38.5536,45.4368 L38.5536,46.4768 L39.1632,46.4768 Z M38.5536,48.3648 L38.0448,48.3648 L38.0448,45.0048 L39.3248,45.0048 C40.1184,45.0048 40.5104,45.2976 40.5104,45.9616 C40.5104,46.5616 40.1328,46.824 39.64,46.8848 L40.5952,48.3648 L40.0256,48.3648 L39.1392,46.9072 L38.5536,46.9072 L38.5536,48.3648 Z M39.1696,49.112 C40.488,49.112 41.528,48.08 41.528,46.6768 C41.528,45.2976 40.488,44.2576 39.1696,44.2576 C37.8368,44.2576 36.7968,45.2976 36.7968,46.6768 C36.7968,48.08 37.8368,49.112 39.1696,49.112 Z M36.2112,46.6768 C36.2112,45.0048 37.5664,43.7712 39.1696,43.7712 C40.7584,43.7712 42.1136,45.0048 42.1136,46.6768 C42.1136,48.3648 40.7584,49.5968 39.1696,49.5968 C37.5664,49.5968 36.2112,48.3648 36.2112,46.6768 Z" id="Fill-83" fill="#003C68"></path>
        <polyline id="Fill-84" fill="#003C68" points="12.8272 2.6864 33.6688 2.6848 33.6688 15.56 46.4736 15.5472 46.4736 36.3488 33.6688 36.3488 33.6688 49.0656 12.8272 49.0656 12.8272 36.3488 0 36.3488 0 15.56 12.8272 15.56 12.8272 2.6864"></polyline>
        <path d="M55.504,2.9856 C47.8352,21.2576 57.7056,41.1616 71.64,49.144 C85.4944,41.1616 95.4464,21.3376 87.7248,2.9856 C77.4208,7.6 65.8608,7.48 55.504,2.9856" id="Fill-85" fill="#003C68"></path>
        <path d="M10.2688,25.864 C10.2688,18.6816 16.0912,12.8592 23.2736,12.8592 C30.456,12.8592 36.2784,18.6816 36.2784,25.864 C36.2784,33.0464 30.456,38.8672 23.2736,38.8672 C16.0912,38.8672 10.2688,33.0464 10.2688,25.864" id="Fill-86" fill="#FFFFFE"></path>
        <path d="M71.5264,11.6112 C71.8144,11.624 78.632,11.872 84.936,9.4304 L83.9424,9.08 C87.0384,14.4672 86.4,32.704 71.0912,43.5776 L72.0288,43.5776 C56.7184,32.704 56.08,14.4672 59.176,9.08 L58.1824,9.4304 C64.488,11.872 71.3056,11.624 71.5264,11.6112 Z M71.5264,9.9952 C71.4608,9.9984 64.7504,10.2368 58.7664,7.9216 L58.12,7.6704 L57.7728,8.2736 C54.4576,14.0416 54.9904,33.4624 71.0912,44.8976 L71.56,45.2304 L72.0288,44.8976 C88.1296,33.4624 88.6624,14.0416 85.3456,8.2736 L85.0016,7.6704 L84.352,7.9216 C78.368,10.2368 71.6592,9.9984 71.5264,9.9952 Z" id="Fill-87" fill="#FFFFFE"></path>
        <path d="M19.9248,15.4928 C19.9248,15.4928 18.8512,15.7504 17.3856,16.6368 C15.9872,17.4816 15.0752,18.5488 15.0752,18.5488 C15.0752,18.5488 19.6496,18.5504 20.0512,18.5488 C20.6352,18.5472 20.3952,18.1568 20.2944,18.016 C20.0912,17.736 19.824,17.272 19.7616,16.48 C19.7184,15.9408 19.9248,15.4928 19.9248,15.4928" id="Fill-88" fill="#003C68"></path>
        <path d="M26.464,15.5008 C26.464,15.5008 27.536,15.76 29.0016,16.6448 C30.4,17.4912 31.3136,18.5584 31.3136,18.5584 C31.3136,18.5584 26.7392,18.56 26.3376,18.5584 C25.752,18.5568 25.9936,18.1664 26.0944,18.0256 C26.2976,17.744 26.5648,17.28 26.6288,16.4896 C26.6704,15.9488 26.464,15.5008 26.464,15.5008" id="Fill-89" fill="#003C68"></path>
        <path d="M23.3024,26.6672 C23.7328,26.6672 23.9648,26.8576 24.3664,27.4608 C24.768,28.0624 30.6672,36.7008 30.6672,36.7008 L31.632,35.9296 L31.2,35.608 C31.2,35.608 25.6112,25.2832 25.4304,24.8816 C25.2176,24.4096 25.088,23.7168 25.2896,23.1152 C25.4592,22.6064 26.2192,22.2048 26.64,22.1456 C27.0624,22.0848 35.6848,21.3328 35.6848,21.3328 L35.2208,20.3264 C35.2208,20.3264 25.9712,20.224 25.5312,20.2256 C24.8304,20.2272 24.2256,19.912 23.9648,19.4512 C23.704,18.9904 24.016,18.3184 24.0896,18.0784 C24.2048,17.704 24.8816,17.096 24.848,16.0624 C24.7984,14.5648 23.2512,14.536 23.2512,14.536 C23.2512,14.536 21.7216,14.5648 21.6704,16.0624 C21.6368,17.096 22.3136,17.704 22.4304,18.0784 C22.504,18.3184 22.8144,18.9904 22.5536,19.4512 C22.2944,19.912 21.688,20.2272 20.9888,20.2256 C20.5472,20.224 11.2976,20.3264 11.2976,20.3264 L10.8336,21.3328 C10.8336,21.3328 19.4576,22.0848 19.8784,22.1456 C20.3008,22.2048 21.0608,22.6064 21.2304,23.1152 C21.4304,23.7168 21.3008,24.4096 21.0896,24.8816 C20.9088,25.2832 15.3184,35.608 15.3184,35.608 L14.888,35.9296 L15.8512,36.7008 C15.8512,36.7008 21.752,28.0624 22.1536,27.4608 C22.5536,26.8576 22.8704,26.6672 23.3024,26.6672" id="Fill-90" fill="#003C68"></path>
        <path d="M12.1648,26.0176 C12.1648,25.0768 12.2816,24.1648 12.5024,23.2944 L18.848,23.8768 C19.4384,23.9312 19.5088,24.1776 19.2896,24.5792 L14.7056,33.0576 C13.1184,31.1472 12.1648,28.6944 12.1648,26.0176" id="Fill-91" fill="#003C68"></path>
        <path d="M23.1984,37.04 C21.6496,37.04 20.1744,36.7216 18.8368,36.144 C19.5136,35.1136 22.7888,30.128 22.9008,29.9344 C23.0256,29.7216 23.1136,29.4544 23.3104,29.4544 C23.5056,29.4544 23.6368,29.7216 23.7616,29.9344 C23.8704,30.1232 26.976,34.8512 27.7648,36.0528 C26.3728,36.6864 24.8272,37.04 23.1984,37.04" id="Fill-92" fill="#003C68"></path>
        <path d="M34.2144,26.0176 C34.2144,25.0768 34.0976,24.1648 33.8752,23.2944 L27.5312,23.8768 C26.9392,23.9312 26.8704,24.1776 27.0896,24.5792 L31.6736,33.0576 C33.2608,31.1472 34.2144,28.6944 34.2144,26.0176" id="Fill-93" fill="#003C68"></path>
        <path d="M72.6432,19.6832 C71.4384,19.6016 70.496,19.4016 70.0544,19.3216 L69.8736,17.8768 C70.5568,17.7552 70.8176,17.4752 70.9376,17.2944 C71.4192,17.3344 72.3632,17.4752 72.384,17.3536 C72.4336,17.048 70.7968,16.8336 70.7968,16.7328 C70.7968,16.6512 71.7808,16.552 71.8208,16.4512 C71.888,16.2848 71.4112,15.6128 70.9776,15.1472 C70.5696,14.7088 69.9552,14.4048 69.9552,14.4048 C69.9552,14.072 69.9344,13.7216 69.9744,13.3808 C70.016,13.0224 72.5808,13.8416 72.5632,14.4048 C72.5232,15.7088 72.944,16.3312 72.944,16.3312 C73.928,15.9488 74.3152,15.2848 74.792,14.9872 C75.6544,14.4448 76.4976,15.568 76.216,15.9296 C75.3728,17.1328 74.6432,17.3824 73.688,18.4976 C73.4464,18.7792 72.6432,19.6832 72.6432,19.6832" id="Fill-94" fill="#FFFFFE"></path>
        <path d="M67.6864,19.0608 C69.352,19.8016 71.2784,20.0672 73.1856,20.2848 C76.3568,20.6448 77.4208,25.5824 72.9648,26.2848 L72.9104,26.0368 L72.9248,23.776 C73.728,23.6352 73.6064,22.6928 72.6032,22.6128 C69.6592,22.376 68.1696,22.3504 66.2624,21.248 C63.6256,19.7232 63.2368,15.8864 66.6768,14.6144 C67.7872,14.2032 69.4272,14.6032 69.8336,14.8256 C70.3296,15.096 70.76,15.5856 71.0592,15.8688 C71.48,16.2704 71.0176,16.2512 70.6368,16.2512 L68.6496,16.2704 C68.4096,16.2704 68.2304,16.2912 68.208,16.3712 C68.1472,16.592 69.3552,16.96 69.7728,17.1136 C70.4576,17.3648 70.2752,17.4336 69.9136,17.4752 C69.304,17.5424 68.4448,17.4704 68.0288,17.4144 C67.728,17.3744 67.0448,17.1936 67.0448,17.1936 C66.4032,17.5344 66.7936,18.6624 67.6864,19.0608 Z M68.8304,14.9872 C68.4704,14.9664 68.3696,15.0272 68.7312,15.2464 C68.9168,15.3616 69.0928,15.4112 69.152,15.488 C69.2368,15.5984 69.384,15.6848 69.6128,15.608 C69.8544,15.528 69.8944,15.3472 69.8336,15.1872 C69.7888,15.0656 69.16,15.0032 68.8304,14.9872 Z" id="Fill-95" fill="#FFFFFE"></path>
        <path d="M70.3552,26.6064 C70.7376,26.7664 71.4384,26.8272 72.3632,26.8864 L72.3824,23.0736 L69.9744,22.9136 C69.9744,22.9136 69.472,23.576 69.232,23.976 L70.3552,26.6064" id="Fill-96" fill="#FFFFFE"></path>
        <path d="M72.3824,29.9584 L72.2416,32.9872 C71.32,32.728 70.8784,32.3056 70.8784,32.3056 L70.7168,29.7968 L71.72,29.8976 L72.3824,29.9584" id="Fill-97" fill="#FFFFFE"></path>
        <path d="M70.9376,35.4576 L71.2784,40.8544 C71.3152,41.0912 72.128,41.0704 72.1424,40.8352 C72.1744,40.3216 72.3232,36.4992 72.3232,36.4992 C71.8416,35.4768 71.2592,35.4352 70.9376,35.4576" id="Fill-98" fill="#FFFFFE"></path>
        <path d="M69.6336,39.5104 C69.7344,40.2736 70.2144,40.3952 70.2144,39.8528 C70.2144,39.6112 70.376,39.0288 70.6976,38.768 L70.656,37.2224 C69.9136,37.7248 69.4864,38.4 69.6336,39.5104" id="Fill-99" fill="#FFFFFE"></path>
        <path d="M72.8256,30.3792 C72.5872,30.5856 72.6848,32.1856 72.6848,32.1856 C72.6848,32.1856 73.0784,32.1872 73.3856,32.064 C76.6576,30.7616 75.0512,27.4688 71.7008,27.3296 C70.7968,27.248 69.9952,27.3488 69.784,26.5936 L69.0704,24.76 C69.0704,24.76 68.0448,25.2096 67.8672,26.0032 C67.6784,26.8448 67.7072,28.0576 69.0336,28.7712 C70.0528,29.408 71.7968,29.2384 72.4432,29.3552 C73.888,29.6176 72.9856,30.2384 72.8256,30.3792" id="Fill-100" fill="#FFFFFE"></path>
        <path d="M72.0208,33.5296 C74.5712,34.5808 74.6704,36.4992 72.6848,37.6448 L72.624,35.8976 C72.4032,35.0752 70.6144,34.7296 69.7728,34.3728 C68.1072,33.4688 68.208,31.944 69.3728,31.0416 C69.6992,30.7888 70.336,30.7008 70.336,30.7008 L70.496,32.2864 C69.7136,32.6864 70.416,32.8672 72.0208,33.5296" id="Fill-101" fill="#FFFFFE"></path>
        <path d="M105.2304,6.9696 L105.2304,9.7264 L107.1568,9.7264 C107.9072,9.7264 108.3824,9.7056 108.584,9.664 C108.8944,9.6064 109.1456,9.4688 109.3392,9.2528 C109.5344,9.0336 109.632,8.7424 109.632,8.376 C109.632,8.0672 109.5568,7.8048 109.4064,7.5888 C109.2576,7.3728 109.04,7.216 108.7568,7.1184 C108.472,7.0192 107.8576,6.9696 106.9104,6.9696 L105.2304,6.9696 Z M105.2304,2.8704 L105.2304,5.2544 L106.5952,5.2544 C107.4048,5.2544 107.9088,5.2432 108.1056,5.2192 C108.4624,5.1776 108.7424,5.0544 108.9456,4.8512 C109.1504,4.6464 109.2528,4.3776 109.2528,4.0448 C109.2528,3.7264 109.1648,3.4672 108.9888,3.2672 C108.8128,3.0688 108.552,2.9488 108.2048,2.9056 C107.9984,2.8832 107.4048,2.8704 106.4256,2.8704 L105.2304,2.8704 Z M103.1488,1.1552 L107.2704,1.1552 C108.0848,1.1552 108.6928,1.1904 109.0944,1.2576 C109.4944,1.3264 109.8544,1.4672 110.1696,1.6832 C110.4864,1.8992 110.7504,2.1856 110.9616,2.544 C111.1712,2.9024 111.2768,3.304 111.2768,3.7504 C111.2768,4.2336 111.1472,4.6752 110.8864,5.0784 C110.6272,5.4816 110.2736,5.784 109.8288,5.9856 C110.4576,6.168 110.9392,6.48 111.2768,6.9216 C111.6144,7.3616 111.784,7.88 111.784,8.4752 C111.784,8.944 111.6736,9.4 111.4576,9.8432 C111.2384,10.2848 110.9408,10.64 110.5632,10.904 C110.1856,11.1696 109.7216,11.3328 109.168,11.3936 C108.8208,11.4304 107.984,11.4544 106.6576,11.464 L103.1488,11.464 L103.1488,1.1552 Z" id="Fill-102" fill="#1A1919"></path>
        <polygon id="Fill-103" fill="#1A1919" points="112.664 11.4624 114.64 11.4624 114.64 1.1552 112.664 1.1552"></polygon>
        <path d="M120.7152,11.464 L120.7152,10.3456 C120.4432,10.744 120.0848,11.0576 119.6432,11.288 C119.1984,11.5168 118.7312,11.632 118.24,11.632 C117.7376,11.632 117.288,11.5216 116.8896,11.3008 C116.4912,11.0816 116.2032,10.7712 116.0256,10.3728 C115.8464,9.9744 115.7584,9.424 115.7584,8.7216 L115.7584,3.9968 L117.7344,3.9968 L117.7344,7.4272 C117.7344,8.4768 117.7696,9.1216 117.8432,9.3568 C117.9152,9.5952 118.048,9.7824 118.24,9.92 C118.432,10.0592 118.6752,10.128 118.9712,10.128 C119.3088,10.128 119.6112,10.0352 119.8784,9.8496 C120.1456,9.6656 120.328,9.4352 120.4272,9.16 C120.5248,8.8864 120.5744,8.2144 120.5744,7.1456 L120.5744,3.9968 L122.5504,3.9968 L122.5504,11.464 L120.7152,11.464" id="Fill-104" fill="#1A1919"></path>
        <path d="M128.168,7.0896 C128.1552,6.5184 128.0064,6.0832 127.7264,5.7856 C127.4448,5.488 127.1024,5.3392 126.6992,5.3392 C126.2688,5.3392 125.912,5.496 125.6304,5.8096 C125.3488,6.1248 125.2112,6.5504 125.216,7.0896 L128.168,7.0896 Z M128.056,9.0864 L130.0256,9.4176 C129.7712,10.1392 129.3712,10.6896 128.8272,11.0672 C128.28,11.4432 127.5968,11.632 126.776,11.632 C125.4784,11.632 124.5168,11.208 123.8944,10.36 C123.4016,9.68 123.1552,8.8224 123.1552,7.7856 C123.1552,6.5488 123.4784,5.5792 124.1264,4.8784 C124.7728,4.1776 125.5904,3.8272 126.5792,3.8272 C127.6912,3.8272 128.5664,4.1952 129.2096,4.928 C129.8512,5.6624 130.1584,6.7856 130.1296,8.2992 L125.1808,8.2992 C125.1952,8.8848 125.3536,9.3408 125.6592,9.6656 C125.9632,9.9936 126.3424,10.1552 126.7968,10.1552 C127.1072,10.1552 127.3664,10.0704 127.5776,9.9024 C127.7888,9.7328 127.9488,9.4624 128.056,9.0864 Z" id="Fill-105" fill="#1A1919"></path>
        <path d="M140.6224,7.6736 L142.64,8.3136 C142.3312,9.4384 141.816,10.2736 141.0976,10.8192 C140.3776,11.3664 139.464,11.6384 138.3584,11.6384 C136.9904,11.6384 135.864,11.1712 134.984,10.2368 C134.1024,9.3008 133.6624,8.0224 133.6624,6.4 C133.6624,4.6848 134.104,3.352 134.9904,2.4032 C135.8768,1.4544 137.0416,0.9792 138.4848,0.9792 C139.7456,0.9792 140.7696,1.352 141.5584,2.0976 C142.0272,2.5376 142.3776,3.1712 142.6128,3.9968 L140.552,4.488 C140.4304,3.9536 140.176,3.5328 139.7888,3.2224 C139.4032,2.9136 138.9328,2.7584 138.3792,2.7584 C137.616,2.7584 136.9952,3.0336 136.52,3.5808 C136.0432,4.1296 135.8064,5.0176 135.8064,6.2464 C135.8064,7.5488 136.04,8.4768 136.5088,9.0304 C136.9776,9.584 137.5872,9.8608 138.3376,9.8608 C138.8912,9.8608 139.3664,9.6848 139.7648,9.3328 C140.1632,8.9808 140.4496,8.4288 140.6224,7.6736" id="Fill-106" fill="#1A1919"></path>
        <path d="M145.44,11.464 L143.464,11.464 L143.464,3.9968 L145.2992,3.9968 L145.2992,5.0576 C145.6128,4.5568 145.896,4.2256 146.1456,4.0656 C146.3968,3.9072 146.6816,3.8272 147.0016,3.8272 C147.4512,3.8272 147.8848,3.952 148.3008,4.2 L147.6896,5.9232 C147.3568,5.7072 147.048,5.6 146.7616,5.6 C146.4848,5.6 146.2512,5.6752 146.0592,5.8272 C145.8656,5.9808 145.7152,6.256 145.6048,6.6544 C145.4944,7.0528 145.44,7.8864 145.44,9.1568 L145.44,11.464" id="Fill-107" fill="#1A1919"></path>
        <path d="M149.8576,7.7296 C149.8576,8.4704 150.0336,9.0368 150.384,9.432 C150.736,9.8256 151.1696,10.0224 151.6848,10.0224 C152.2016,10.0224 152.6336,9.8256 152.9824,9.432 C153.3312,9.0368 153.5056,8.4656 153.5056,7.7152 C153.5056,6.984 153.3312,6.4224 152.9824,6.0288 C152.6336,5.6336 152.2016,5.4368 151.6848,5.4368 C151.1696,5.4368 150.736,5.6336 150.384,6.0288 C150.0336,6.4224 149.8576,6.9888 149.8576,7.7296 Z M147.832,7.624 C147.832,6.968 147.9936,6.3328 148.3168,5.7184 C148.64,5.104 149.0992,4.6352 149.6912,4.312 C150.2848,3.9888 150.9472,3.8272 151.6784,3.8272 C152.808,3.8272 153.7344,4.1952 154.456,4.928 C155.1776,5.6624 155.5376,6.5888 155.5376,7.7088 C155.5376,8.8384 155.1728,9.7744 154.4448,10.5184 C153.7152,11.2608 152.7984,11.632 151.6928,11.632 C151.008,11.632 150.3552,11.4768 149.7344,11.168 C149.112,10.8592 148.64,10.4048 148.3168,9.8064 C147.9936,9.2096 147.832,8.4816 147.832,7.624 Z" id="Fill-108" fill="#1A1919"></path>
        <path d="M155.5248,9.3328 L157.5072,9.0304 C157.592,9.4144 157.7632,9.7072 158.0208,9.9056 C158.2784,10.1056 158.64,10.2048 159.104,10.2048 C159.6144,10.2048 159.9984,10.1104 160.2576,9.9232 C160.4304,9.792 160.5168,9.616 160.5168,9.3968 C160.5168,9.2464 160.4704,9.1216 160.376,9.024 C160.2784,8.9296 160.0576,8.8432 159.7152,8.7632 C158.1216,8.4112 157.112,8.0912 156.6848,7.8 C156.0944,7.3968 155.7984,6.8368 155.7984,6.12 C155.7984,5.472 156.0544,4.9296 156.5664,4.488 C157.0768,4.048 157.8688,3.8272 158.9424,3.8272 C159.9648,3.8272 160.7232,3.9936 161.2208,4.3264 C161.7168,4.6592 162.0592,5.152 162.2464,5.8032 L160.384,6.1472 C160.304,5.8576 160.152,5.6336 159.9296,5.48 C159.7072,5.3248 159.3904,5.248 158.9776,5.248 C158.4576,5.248 158.0848,5.32 157.8592,5.4656 C157.7088,5.568 157.6336,5.7024 157.6336,5.8656 C157.6336,6.0064 157.6992,6.1264 157.832,6.2256 C158.0096,6.3568 158.624,6.5408 159.6768,6.7808 C160.7296,7.0192 161.464,7.312 161.8816,7.6592 C162.2944,8.0112 162.5008,8.5008 162.5008,9.1296 C162.5008,9.8128 162.2144,10.4016 161.6416,10.8944 C161.0704,11.3856 160.224,11.632 159.104,11.632 C158.0864,11.632 157.2816,11.4256 156.6896,11.0128 C156.096,10.6 155.7072,10.04 155.5248,9.3328" id="Fill-109" fill="#1A1919"></path>
        <path d="M162.6688,9.3328 L164.6528,9.0304 C164.736,9.4144 164.9072,9.7072 165.1664,9.9056 C165.424,10.1056 165.784,10.2048 166.248,10.2048 C166.76,10.2048 167.144,10.1104 167.4016,9.9232 C167.5744,9.792 167.6624,9.616 167.6624,9.3968 C167.6624,9.2464 167.6144,9.1216 167.5216,9.024 C167.4224,8.9296 167.2016,8.8432 166.8608,8.7632 C165.2672,8.4112 164.256,8.0912 163.8304,7.8 C163.2384,7.3968 162.944,6.8368 162.944,6.12 C162.944,5.472 163.2,4.9296 163.7104,4.488 C164.2208,4.048 165.0128,3.8272 166.0864,3.8272 C167.1088,3.8272 167.8672,3.9936 168.3648,4.3264 C168.8624,4.6592 169.2032,5.152 169.392,5.8032 L167.528,6.1472 C167.448,5.8576 167.2976,5.6336 167.0736,5.48 C166.8512,5.3248 166.5344,5.248 166.1216,5.248 C165.6016,5.248 165.2288,5.32 165.0032,5.4656 C164.8544,5.568 164.7792,5.7024 164.7792,5.8656 C164.7792,6.0064 164.8448,6.1264 164.976,6.2256 C165.1536,6.3568 165.768,6.5408 166.8208,6.7808 C167.8736,7.0192 168.608,7.312 169.0256,7.6592 C169.4384,8.0112 169.6448,8.5008 169.6448,9.1296 C169.6448,9.8128 169.3584,10.4016 168.7872,10.8944 C168.2144,11.3856 167.368,11.632 166.248,11.632 C165.232,11.632 164.4256,11.4256 163.8336,11.0128 C163.24,10.6 162.8528,10.04 162.6688,9.3328" id="Fill-110" fill="#1A1919"></path>
        <path d="M105.2304,19.7696 L105.2304,22.5264 L107.1568,22.5264 C107.9072,22.5264 108.3824,22.5056 108.584,22.4624 C108.8944,22.4064 109.1456,22.2688 109.3392,22.0528 C109.5344,21.8336 109.632,21.5424 109.632,21.176 C109.632,20.8672 109.5568,20.6048 109.4064,20.3888 C109.2576,20.1728 109.04,20.016 108.7568,19.9184 C108.472,19.8192 107.8576,19.7696 106.9104,19.7696 L105.2304,19.7696 Z M105.2304,15.6704 L105.2304,18.0544 L106.5952,18.0544 C107.4048,18.0544 107.9088,18.0432 108.1056,18.0192 C108.4624,17.9776 108.7424,17.8544 108.9456,17.6512 C109.1504,17.4464 109.2528,17.1776 109.2528,16.8448 C109.2528,16.5264 109.1648,16.2672 108.9888,16.0672 C108.8128,15.8688 108.552,15.7488 108.2048,15.7056 C107.9984,15.6832 107.4048,15.6704 106.4256,15.6704 L105.2304,15.6704 Z M103.1488,13.9552 L107.2704,13.9552 C108.0848,13.9552 108.6928,13.9904 109.0944,14.0576 C109.4944,14.1264 109.8544,14.2672 110.1696,14.4832 C110.4864,14.6992 110.7504,14.9856 110.9616,15.344 C111.1712,15.7024 111.2768,16.104 111.2768,16.5504 C111.2768,17.0336 111.1472,17.4752 110.8864,17.8784 C110.6272,18.2816 110.2736,18.584 109.8288,18.7856 C110.4576,18.968 110.9392,19.28 111.2768,19.7216 C111.6144,20.1616 111.784,20.68 111.784,21.2752 C111.784,21.744 111.6736,22.2 111.4576,22.6432 C111.2384,23.0848 110.9408,23.44 110.5632,23.704 C110.1856,23.9696 109.7216,24.1312 109.168,24.1936 C108.8208,24.2304 107.984,24.2544 106.6576,24.2624 L103.1488,24.2624 L103.1488,13.9552 Z" id="Fill-111" fill="#1A1919"></path>
        <polygon id="Fill-112" fill="#1A1919" points="112.664 24.2624 114.64 24.2624 114.64 13.9552 112.664 13.9552"></polygon>
        <path d="M120.7152,24.2624 L120.7152,23.1456 C120.4432,23.544 120.0848,23.8576 119.6432,24.088 C119.1984,24.3168 118.7312,24.432 118.24,24.432 C117.7376,24.432 117.288,24.3216 116.8896,24.1008 C116.4912,23.8816 116.2032,23.5712 116.0256,23.1728 C115.8464,22.7744 115.7584,22.224 115.7584,21.5216 L115.7584,16.7968 L117.7344,16.7968 L117.7344,20.2272 C117.7344,21.2768 117.7696,21.9216 117.8432,22.1568 C117.9152,22.3952 118.048,22.5824 118.24,22.72 C118.432,22.8592 118.6752,22.928 118.9712,22.928 C119.3088,22.928 119.6112,22.8352 119.8784,22.6496 C120.1456,22.464 120.328,22.2352 120.4272,21.96 C120.5248,21.6864 120.5744,21.0144 120.5744,19.9456 L120.5744,16.7968 L122.5504,16.7968 L122.5504,24.2624 L120.7152,24.2624" id="Fill-113" fill="#1A1919"></path>
        <path d="M128.168,19.8896 C128.1552,19.3184 128.0064,18.8832 127.7264,18.5856 C127.4448,18.288 127.1024,18.1392 126.6992,18.1392 C126.2688,18.1392 125.912,18.296 125.6304,18.6096 C125.3488,18.9248 125.2112,19.3504 125.216,19.8896 L128.168,19.8896 Z M128.056,21.8864 L130.0256,22.2176 C129.7712,22.9392 129.3712,23.4896 128.8272,23.8672 C128.28,24.2432 127.5968,24.432 126.776,24.432 C125.4784,24.432 124.5168,24.008 123.8944,23.16 C123.4016,22.48 123.1552,21.6224 123.1552,20.5856 C123.1552,19.3488 123.4784,18.3792 124.1264,17.6784 C124.7728,16.9776 125.5904,16.6272 126.5792,16.6272 C127.6912,16.6272 128.5664,16.9952 129.2096,17.728 C129.8512,18.4624 130.1584,19.5856 130.1296,21.0992 L125.1808,21.0992 C125.1952,21.6848 125.3536,22.1408 125.6592,22.4656 C125.9632,22.7936 126.3424,22.9552 126.7968,22.9552 C127.1072,22.9552 127.3664,22.8704 127.5776,22.7024 C127.7888,22.5328 127.9488,22.2624 128.056,21.8864 Z" id="Fill-114" fill="#1A1919"></path>
        <path d="M133.4992,20.9088 L135.5248,20.712 C135.6464,21.392 135.8944,21.8912 136.2672,22.2096 C136.6384,22.5296 137.1424,22.688 137.7744,22.688 C138.4448,22.688 138.9504,22.5472 139.2912,22.2624 C139.6304,21.9792 139.8,21.648 139.8,21.2672 C139.8,21.024 139.728,20.8176 139.5856,20.6464 C139.4416,20.4752 139.1936,20.3264 138.8368,20.2 C138.5936,20.1152 138.0368,19.9648 137.1696,19.7488 C136.0544,19.472 135.272,19.1328 134.8224,18.7296 C134.1888,18.1632 133.872,17.4704 133.872,16.656 C133.872,16.1312 134.0208,15.64 134.3184,15.1824 C134.616,14.7264 135.0448,14.3776 135.6064,14.1376 C136.1664,13.8992 136.8416,13.7792 137.6336,13.7792 C138.928,13.7792 139.9008,14.064 140.5568,14.6304 C141.2096,15.1984 141.5536,15.9552 141.5856,16.9008 L139.504,16.9936 C139.416,16.464 139.224,16.0816 138.9312,15.8512 C138.6384,15.6176 138.1984,15.5024 137.6128,15.5024 C137.008,15.5024 136.536,15.6272 136.1936,15.8752 C135.9728,16.0336 135.8624,16.248 135.8624,16.5152 C135.8624,16.7584 135.9664,16.9664 136.1712,17.1408 C136.4336,17.3616 137.072,17.5904 138.0848,17.8304 C139.0976,18.0688 139.8448,18.3168 140.3312,18.5712 C140.816,18.8272 141.1952,19.176 141.4704,19.6192 C141.744,20.0624 141.8816,20.6096 141.8816,21.2608 C141.8816,21.8512 141.7168,22.4048 141.3888,22.92 C141.0608,23.4352 140.5968,23.8192 139.9968,24.0688 C139.3968,24.32 138.6496,24.4464 137.7536,24.4464 C136.4512,24.4464 135.4496,24.1456 134.752,23.5424 C134.0528,22.9408 133.6352,22.0624 133.4992,20.9088" id="Fill-115" fill="#1A1919"></path>
        <path d="M144.7232,13.9552 L144.7232,17.7456 C145.36,17 146.1216,16.6272 147.008,16.6272 C147.4624,16.6272 147.872,16.712 148.2384,16.88 C148.6032,17.0496 148.8784,17.2656 149.064,17.528 C149.2496,17.7904 149.376,18.08 149.4432,18.4 C149.512,18.7184 149.5456,19.2128 149.5456,19.8832 L149.5456,24.2624 L147.5696,24.2624 L147.5696,20.3184 C147.5696,19.536 147.5328,19.0384 147.4576,18.8288 C147.3824,18.6176 147.2496,18.4496 147.0608,18.3264 C146.8704,18.2016 146.6336,18.1392 146.3472,18.1392 C146.0192,18.1392 145.7264,18.2192 145.4688,18.3776 C145.2096,18.5376 145.0224,18.7776 144.9008,19.0992 C144.7824,19.4208 144.7232,19.8944 144.7232,20.5232 L144.7232,24.2624 L142.7472,24.2624 L142.7472,13.9552 L144.7232,13.9552" id="Fill-116" fill="#1A1919"></path>
        <path d="M150.6864,24.264 L152.6624,24.264 L152.6624,16.7968 L150.6864,16.7968 L150.6864,24.264 Z M150.6864,15.784 L152.6624,15.784 L152.6624,13.9552 L150.6864,13.9552 L150.6864,15.784 Z" id="Fill-117" fill="#1A1919"></path>
        <path d="M158.2608,19.8896 C158.2464,19.3184 158.0992,18.8832 157.8176,18.5856 C157.536,18.288 157.1936,18.1392 156.7904,18.1392 C156.36,18.1392 156.0032,18.296 155.7216,18.6096 C155.44,18.9248 155.3024,19.3504 155.3072,19.8896 L158.2608,19.8896 Z M158.1472,21.8864 L160.1168,22.2176 C159.864,22.9392 159.464,23.4896 158.9184,23.8672 C158.3712,24.2432 157.688,24.432 156.8688,24.432 C155.5696,24.432 154.608,24.008 153.9856,23.16 C153.4928,22.48 153.2464,21.6224 153.2464,20.5856 C153.2464,19.3488 153.5696,18.3792 154.2176,17.6784 C154.864,16.9776 155.6816,16.6272 156.6704,16.6272 C157.7824,16.6272 158.6592,16.9952 159.3008,17.728 C159.9424,18.4624 160.2496,19.5856 160.2224,21.0992 L155.272,21.0992 C155.2864,21.6848 155.4448,22.1408 155.7504,22.4656 C156.0544,22.7936 156.4336,22.9552 156.8896,22.9552 C157.1984,22.9552 157.4592,22.8704 157.6704,22.7024 C157.88,22.5328 158.04,22.2624 158.1472,21.8864 Z" id="Fill-118" fill="#1A1919"></path>
        <polygon id="Fill-119" fill="#1A1919" points="160.968 24.2624 162.944 24.2624 162.944 13.9552 160.968 13.9552"></polygon>
        <path d="M165.68,20.368 C165.68,21.1648 165.7904,21.7408 166.0096,22.0976 C166.3296,22.6128 166.7744,22.8704 167.3456,22.8704 C167.8,22.8704 168.1872,22.6768 168.5056,22.2912 C168.8256,21.904 168.984,21.3264 168.984,20.5584 C168.984,19.7008 168.8304,19.0832 168.52,18.7056 C168.2112,18.328 167.8144,18.1392 167.3328,18.1392 C166.864,18.1392 166.4704,18.3264 166.1536,18.6976 C165.8384,19.0704 165.68,19.6272 165.68,20.368 Z M170.9536,24.2624 L169.1184,24.2624 L169.1184,23.1664 C168.8128,23.5936 168.4544,23.9104 168.0384,24.12 C167.624,24.328 167.2048,24.432 166.784,24.432 C165.9264,24.432 165.192,24.0864 164.5792,23.3952 C163.968,22.704 163.6624,21.7392 163.6624,20.5008 C163.6624,19.2352 163.96,18.2736 164.5552,17.6144 C165.1504,16.9568 165.9024,16.6272 166.8112,16.6272 C167.6464,16.6272 168.368,16.9744 168.9776,17.6672 L168.9776,13.9552 L170.9536,13.9552 L170.9536,24.2624 Z" id="Fill-120" fill="#1A1919"></path>
        <path d="M105.2304,32.5696 L105.2304,35.3264 L107.1568,35.3264 C107.9072,35.3264 108.3824,35.3056 108.584,35.2624 C108.8944,35.2064 109.1456,35.0704 109.3392,34.8528 C109.5344,34.6336 109.632,34.3424 109.632,33.976 C109.632,33.6672 109.5568,33.4048 109.4064,33.1888 C109.2576,32.9728 109.04,32.816 108.7568,32.7184 C108.472,32.6192 107.8576,32.5696 106.9104,32.5696 L105.2304,32.5696 Z M105.2304,28.4704 L105.2304,30.8544 L106.5952,30.8544 C107.4048,30.8544 107.9088,30.8432 108.1056,30.8192 C108.4624,30.7776 108.7424,30.6544 108.9456,30.4512 C109.1504,30.2464 109.2528,29.9776 109.2528,29.6448 C109.2528,29.3264 109.1648,29.0672 108.9888,28.8672 C108.8128,28.6688 108.552,28.5488 108.2048,28.5056 C107.9984,28.4832 107.4048,28.4704 106.4256,28.4704 L105.2304,28.4704 Z M103.1488,26.7552 L107.2704,26.7552 C108.0848,26.7552 108.6928,26.7904 109.0944,26.8576 C109.4944,26.9264 109.8544,27.0672 110.1696,27.2832 C110.4864,27.4992 110.7504,27.7856 110.9616,28.144 C111.1712,28.5024 111.2768,28.904 111.2768,29.3504 C111.2768,29.8336 111.1472,30.2752 110.8864,30.6784 C110.6272,31.0816 110.2736,31.384 109.8288,31.5856 C110.4576,31.768 110.9392,32.08 111.2768,32.5216 C111.6144,32.9616 111.784,33.48 111.784,34.0752 C111.784,34.544 111.6736,34.9984 111.4576,35.4432 C111.2384,35.8848 110.9408,36.24 110.5632,36.504 C110.1856,36.7696 109.7216,36.9328 109.168,36.9936 C108.8208,37.0304 107.984,37.0544 106.6576,37.0624 L103.1488,37.0624 L103.1488,26.7552 Z" id="Fill-121" fill="#1A1919"></path>
        <polygon id="Fill-122" fill="#1A1919" points="112.664 37.0624 114.64 37.0624 114.64 26.7552 112.664 26.7552"></polygon>
        <path d="M120.7152,37.0624 L120.7152,35.9456 C120.4432,36.344 120.0848,36.6576 119.6432,36.888 C119.1984,37.1168 118.7312,37.232 118.24,37.232 C117.7376,37.232 117.288,37.1216 116.8896,36.9008 C116.4912,36.6816 116.2032,36.3712 116.0256,35.9728 C115.8464,35.5744 115.7584,35.024 115.7584,34.3216 L115.7584,29.5968 L117.7344,29.5968 L117.7344,33.0272 C117.7344,34.0768 117.7696,34.7216 117.8432,34.9568 C117.9152,35.1952 118.048,35.3824 118.24,35.52 C118.432,35.6592 118.6752,35.728 118.9712,35.728 C119.3088,35.728 119.6112,35.6352 119.8784,35.4496 C120.1456,35.2656 120.328,35.0352 120.4272,34.76 C120.5248,34.4864 120.5744,33.8144 120.5744,32.7456 L120.5744,29.5968 L122.5504,29.5968 L122.5504,37.0624 L120.7152,37.0624" id="Fill-123" fill="#1A1919"></path>
        <path d="M128.168,32.6896 C128.1552,32.1184 128.0064,31.6832 127.7264,31.3856 C127.4448,31.088 127.1024,30.9392 126.6992,30.9392 C126.2688,30.9392 125.912,31.096 125.6304,31.4096 C125.3488,31.7248 125.2112,32.1504 125.216,32.6896 L128.168,32.6896 Z M128.056,34.6864 L130.0256,35.0176 C129.7712,35.7392 129.3712,36.2896 128.8272,36.6656 C128.28,37.0432 127.5968,37.232 126.776,37.232 C125.4784,37.232 124.5168,36.808 123.8944,35.96 C123.4016,35.28 123.1552,34.4224 123.1552,33.3856 C123.1552,32.1488 123.4784,31.1792 124.1264,30.4784 C124.7728,29.7776 125.5904,29.4272 126.5792,29.4272 C127.6912,29.4272 128.5664,29.7952 129.2096,30.528 C129.8512,31.2624 130.1584,32.3856 130.1296,33.8992 L125.1808,33.8992 C125.1952,34.4848 125.3536,34.9408 125.6592,35.2672 C125.9632,35.5936 126.3424,35.7552 126.7968,35.7552 C127.1072,35.7552 127.3664,35.6704 127.5776,35.5024 C127.7888,35.3328 127.9488,35.0624 128.056,34.6864 Z" id="Fill-124" fill="#1A1919"></path>
        <path d="M140.6224,33.2736 L142.64,33.9136 C142.3312,35.0384 141.816,35.8736 141.0976,36.4192 C140.3776,36.9664 139.464,37.2384 138.3584,37.2384 C136.9904,37.2384 135.864,36.7712 134.984,35.8368 C134.1024,34.9008 133.6624,33.6224 133.6624,32 C133.6624,30.2848 134.104,28.952 134.9904,28.0032 C135.8768,27.0544 137.0416,26.5792 138.4848,26.5792 C139.7456,26.5792 140.7696,26.952 141.5584,27.6976 C142.0272,28.1376 142.3776,28.7712 142.6128,29.5968 L140.552,30.088 C140.4304,29.5536 140.176,29.1328 139.7888,28.8224 C139.4032,28.5136 138.9328,28.3584 138.3792,28.3584 C137.616,28.3584 136.9952,28.6336 136.52,29.1808 C136.0432,29.7296 135.8064,30.6176 135.8064,31.8464 C135.8064,33.1488 136.04,34.0768 136.5088,34.6304 C136.9776,35.184 137.5872,35.4608 138.3376,35.4608 C138.8912,35.4608 139.3664,35.2848 139.7648,34.9328 C140.1632,34.5808 140.4496,34.0288 140.6224,33.2736" id="Fill-125" fill="#1A1919"></path>
        <path d="M147.6688,33.4768 C147.416,33.5616 147.0144,33.6624 146.4656,33.7792 C145.9184,33.896 145.56,34.0112 145.3904,34.1248 C145.1328,34.3072 145.0032,34.5392 145.0032,34.8208 C145.0032,35.096 145.1072,35.336 145.3136,35.5376 C145.52,35.7392 145.7824,35.84 146.1008,35.84 C146.4576,35.84 146.7968,35.7232 147.12,35.488 C147.36,35.3104 147.5168,35.0928 147.592,34.8336 C147.6432,34.6656 147.6688,34.344 147.6688,33.8704 L147.6688,33.4768 Z M145.0256,31.8736 L143.232,31.5504 C143.4336,30.8288 143.7808,30.2944 144.272,29.9472 C144.7648,29.6 145.496,29.4272 146.4656,29.4272 C147.3472,29.4272 148.0032,29.5312 148.4352,29.7392 C148.8656,29.9488 149.1696,30.2144 149.3456,30.5344 C149.5216,30.856 149.6096,31.4448 149.6096,32.3024 L149.5888,34.6096 C149.5888,35.2656 149.6192,35.7504 149.6832,36.0624 C149.7456,36.3728 149.864,36.7072 150.0384,37.0624 L148.0832,37.0624 C148.032,36.9328 147.968,36.7376 147.8944,36.48 C147.8608,36.3632 147.8368,36.2848 147.824,36.248 C147.4864,36.576 147.1248,36.8224 146.7408,36.9856 C146.3568,37.1504 145.9456,37.232 145.5104,37.232 C144.7408,37.232 144.136,37.024 143.6928,36.6064 C143.2496,36.1888 143.0288,35.6624 143.0288,35.024 C143.0288,34.6016 143.1296,34.2256 143.3296,33.896 C143.5312,33.5648 143.8144,33.312 144.1776,33.136 C144.5408,32.96 145.064,32.8064 145.7488,32.6752 C146.672,32.5024 147.312,32.3408 147.6688,32.1904 L147.6688,31.9936 C147.6688,31.6144 147.5744,31.3424 147.3872,31.1824 C147.2,31.0192 146.8464,30.9392 146.3264,30.9392 C145.9744,30.9392 145.6992,31.008 145.5024,31.1456 C145.3056,31.2848 145.1472,31.528 145.0256,31.8736 Z" id="Fill-126" fill="#1A1919"></path>
        <path d="M152.5856,37.0624 L150.6096,37.0624 L150.6096,29.5968 L152.4448,29.5968 L152.4448,30.6576 C152.7584,30.1568 153.04,29.8256 153.2912,29.6656 C153.5424,29.5072 153.8272,29.4272 154.1456,29.4272 C154.5968,29.4272 155.0304,29.552 155.4464,29.8 L154.8352,31.5232 C154.5024,31.3072 154.1936,31.2 153.9072,31.2 C153.6304,31.2 153.3968,31.2752 153.2032,31.4272 C153.0112,31.5808 152.8608,31.856 152.7504,32.2544 C152.64,32.6528 152.5856,33.4864 152.5856,34.7568 L152.5856,37.0624" id="Fill-127" fill="#1A1919"></path>
        <path d="M159.8704,32.6896 C159.856,32.1184 159.7088,31.6832 159.4272,31.3856 C159.1456,31.088 158.8032,30.9392 158.4016,30.9392 C157.9696,30.9392 157.6128,31.096 157.3312,31.4096 C157.0512,31.7248 156.912,32.1504 156.9168,32.6896 L159.8704,32.6896 Z M159.7584,34.6864 L161.7264,35.0176 C161.4736,35.7392 161.0736,36.2896 160.528,36.6656 C159.9808,37.0432 159.2992,37.232 158.4784,37.232 C157.1792,37.232 156.2192,36.808 155.5952,35.96 C155.1024,35.28 154.8576,34.4224 154.8576,33.3856 C154.8576,32.1488 155.1808,31.1792 155.8272,30.4784 C156.4736,29.7776 157.2928,29.4272 158.2816,29.4272 C159.392,29.4272 160.2688,29.7952 160.9104,30.528 C161.5536,31.2624 161.8608,32.3856 161.832,33.8992 L156.8816,33.8992 C156.896,34.4848 157.056,34.9408 157.36,35.2672 C157.664,35.5936 158.0448,35.7552 158.4992,35.7552 C158.808,35.7552 159.0688,35.6704 159.28,35.5024 C159.4912,35.3328 159.6496,35.0624 159.7584,34.6864 Z" id="Fill-128" fill="#1A1919"></path>
        <polyline id="Fill-129" fill="#1A1919" points="165.7504 37.0624 165.7504 26.7552 167.7744 26.7552 171.9936 33.6384 171.9936 26.7552 173.928 26.7552 173.928 37.0624 171.8384 37.0624 167.6832 30.3408 167.6832 37.0624 165.7504 37.0624"></polyline>
        <path d="M179.6864,32.6896 C179.672,32.1184 179.5248,31.6832 179.2432,31.3856 C178.9632,31.088 178.6208,30.9392 178.2176,30.9392 C177.7856,30.9392 177.4304,31.096 177.1488,31.4096 C176.8672,31.7248 176.7296,32.1504 176.7328,32.6896 L179.6864,32.6896 Z M179.5744,34.6864 L181.5424,35.0176 C181.2896,35.7392 180.8896,36.2896 180.344,36.6656 C179.7984,37.0432 179.1152,37.232 178.2944,37.232 C176.9968,37.232 176.0352,36.808 175.4112,35.96 C174.92,35.28 174.6736,34.4224 174.6736,33.3856 C174.6736,32.1488 174.9968,31.1792 175.6432,30.4784 C176.2912,29.7776 177.1088,29.4272 178.0976,29.4272 C179.208,29.4272 180.0848,29.7952 180.728,30.528 C181.3696,31.2624 181.6768,32.3856 181.648,33.8992 L176.6992,33.8992 C176.712,34.4848 176.872,34.9408 177.176,35.2672 C177.4816,35.5936 177.8608,35.7552 178.3152,35.7552 C178.6256,35.7552 178.8848,35.6704 179.096,35.5024 C179.3072,35.3328 179.4672,35.0624 179.5744,34.6864 Z" id="Fill-130" fill="#1A1919"></path>
        <path d="M185.8192,29.5968 L185.8192,31.1712 L184.4688,31.1712 L184.4688,34.1808 C184.4688,34.7904 184.4816,35.1456 184.5072,35.2464 C184.5328,35.3472 184.592,35.4304 184.6832,35.496 C184.7744,35.5616 184.8864,35.5936 185.0176,35.5936 C185.2,35.5936 185.4656,35.5296 185.8112,35.4032 L185.9808,36.936 C185.5216,37.1328 185,37.232 184.4192,37.232 C184.064,37.232 183.7424,37.1728 183.456,37.0528 C183.1696,36.9328 182.9616,36.7792 182.8272,36.5888 C182.6944,36.3984 182.6,36.1424 182.5488,35.8192 C182.5072,35.5888 182.4864,35.1248 182.4864,34.4272 L182.4864,31.1712 L181.5792,31.1712 L181.5792,29.5968 L182.4864,29.5968 L182.4864,28.112 L184.4688,26.96 L184.4688,29.5968 L185.8192,29.5968" id="Fill-131" fill="#1A1919"></path>
        <polyline id="Fill-132" fill="#1A1919" points="188.0784 37.0624 185.7152 29.5968 187.6352 29.5968 189.0336 34.4896 190.3216 29.5968 192.2272 29.5968 193.4704 34.4896 194.8992 29.5968 196.8464 29.5968 194.448 37.0624 192.5504 37.0624 191.264 32.2608 189.9984 37.0624 188.0784 37.0624"></polyline>
        <path d="M198.5904,33.3296 C198.5904,34.0704 198.7664,34.6368 199.1184,35.0304 C199.4688,35.4256 199.9024,35.6224 200.4192,35.6224 C200.9344,35.6224 201.3664,35.4256 201.7152,35.0304 C202.0656,34.6368 202.24,34.0656 202.24,33.3152 C202.24,32.584 202.0656,32.0224 201.7152,31.6288 C201.3664,31.2336 200.9344,31.0368 200.4192,31.0368 C199.9024,31.0368 199.4688,31.2336 199.1184,31.6288 C198.7664,32.0224 198.5904,32.5888 198.5904,33.3296 Z M196.5664,33.224 C196.5664,32.568 196.728,31.9328 197.0512,31.3184 C197.3744,30.704 197.832,30.2352 198.4256,29.912 C199.0176,29.5888 199.68,29.4272 200.4112,29.4272 C201.5408,29.4272 202.4672,29.7952 203.1888,30.528 C203.9104,31.2624 204.272,32.1888 204.272,33.3088 C204.272,34.4384 203.9072,35.3744 203.1776,36.1184 C202.4496,36.8608 201.5328,37.232 200.4256,37.232 C199.7408,37.232 199.088,37.0768 198.4672,36.768 C197.8464,36.4592 197.3744,36.0048 197.0512,35.4064 C196.728,34.8096 196.5664,34.0816 196.5664,33.224 Z" id="Fill-133" fill="#1A1919"></path>
        <path d="M206.8464,37.0624 L204.8704,37.0624 L204.8704,29.5968 L206.7056,29.5968 L206.7056,30.6576 C207.0192,30.1568 207.3008,29.8256 207.552,29.6656 C207.8032,29.5072 208.088,29.4272 208.4064,29.4272 C208.8576,29.4272 209.2912,29.552 209.7072,29.8 L209.096,31.5232 C208.7632,31.3072 208.4544,31.2 208.168,31.2 C207.8912,31.2 207.6576,31.2752 207.4656,31.4272 C207.272,31.5808 207.1216,31.856 207.0112,32.2544 C206.9008,32.6528 206.8464,33.4864 206.8464,34.7568 L206.8464,37.0624" id="Fill-134" fill="#1A1919"></path>
        <polyline id="Fill-135" fill="#1A1919" points="209.984 37.0624 209.984 26.7552 211.96 26.7552 211.96 32.2256 214.2736 29.5968 216.7056 29.5968 214.1536 32.3248 216.8896 37.0624 214.7584 37.0624 212.8816 33.7088 211.96 34.672 211.96 37.0624 209.984 37.0624"></polyline>
        <path d="M103.4784,46.16 C103.4784,46.9024 103.64,47.4608 103.9648,47.8304 C104.2896,48.2 104.6976,48.3856 105.1904,48.3856 C105.6784,48.3856 106.0848,48.1984 106.4096,47.8272 C106.7344,47.456 106.896,46.888 106.896,46.1264 C106.896,45.408 106.7328,44.864 106.4064,44.4944 C106.08,44.1248 105.6752,43.9392 105.1904,43.9392 C104.6976,43.9392 104.2896,44.1232 103.9648,44.4912 C103.64,44.8592 103.4784,45.416 103.4784,46.16 Z M102.4656,46.16 C102.4656,45.0832 102.7664,44.288 103.3632,43.7696 C103.8624,43.3392 104.472,43.1248 105.1904,43.1248 C105.9888,43.1248 106.64,43.3856 107.1472,43.9088 C107.6544,44.432 107.9072,45.1552 107.9072,46.0768 C107.9072,46.8256 107.7968,47.4128 107.5712,47.8416 C107.3472,48.2688 107.0208,48.6016 106.5936,48.8384 C106.1648,49.0752 105.6976,49.1952 105.1904,49.1952 C104.376,49.1952 103.72,48.9328 103.2176,48.4128 C102.7168,47.8912 102.4656,47.1392 102.4656,46.16 Z" id="Fill-136" fill="#1A1919"></path>
        <path d="M108.8496,49.064 L108.8496,44.0208 L107.9792,44.0208 L107.9792,43.256 L108.8496,43.256 L108.8496,42.6368 C108.8496,42.248 108.8832,41.9584 108.9536,41.768 C109.048,41.512 109.2144,41.3056 109.4544,41.1472 C109.6928,40.9888 110.0272,40.9088 110.4576,40.9088 C110.7344,40.9088 111.04,40.9424 111.376,41.008 L111.2288,41.8656 C111.024,41.8304 110.8304,41.8112 110.648,41.8112 C110.3488,41.8112 110.1376,41.8752 110.0144,42.0032 C109.8896,42.1296 109.8288,42.3696 109.8288,42.72 L109.8288,43.256 L110.96,43.256 L110.96,44.0208 L109.8288,44.0208 L109.8288,49.064 L108.8496,49.064" id="Fill-137" fill="#1A1919"></path>
        <path d="M114.0336,49.064 L114.0336,41.0464 L115.632,41.0464 L117.5296,46.7232 C117.704,47.2512 117.832,47.6464 117.912,47.9088 C118.0032,47.6176 118.1456,47.1888 118.3376,46.624 L120.2576,41.0464 L121.6848,41.0464 L121.6848,49.064 L120.6624,49.064 L120.6624,42.3536 L118.3328,49.064 L117.376,49.064 L115.0576,42.2384 L115.0576,49.064 L114.0336,49.064" id="Fill-138" fill="#1A1919"></path>
        <path d="M122.8288,49.064 L123.8128,49.064 L123.8128,43.256 L122.8288,43.256 L122.8288,49.064 Z M122.8288,42.1792 L123.8128,42.1792 L123.8128,41.0464 L122.8288,41.0464 L122.8288,42.1792 Z" id="Fill-139" fill="#1A1919"></path>
        <path d="M128.6528,46.936 L129.6208,47.0624 C129.5152,47.7296 129.2448,48.2512 128.8096,48.6288 C128.3728,49.0048 127.8384,49.1952 127.2032,49.1952 C126.4096,49.1952 125.7696,48.9344 125.288,48.4144 C124.8032,47.896 124.5632,47.1504 124.5632,46.1808 C124.5632,45.5536 124.6672,45.0048 124.8736,44.5344 C125.0816,44.064 125.3984,43.712 125.824,43.4768 C126.248,43.2416 126.7104,43.1248 127.2096,43.1248 C127.84,43.1248 128.3568,43.2832 128.7568,43.6032 C129.1584,43.9216 129.4144,44.3744 129.528,44.9616 L128.5712,45.1088 C128.48,44.72 128.3184,44.4256 128.088,44.2288 C127.856,44.032 127.576,43.9344 127.248,43.9344 C126.752,43.9344 126.3488,44.112 126.0384,44.4656 C125.7296,44.8224 125.5744,45.384 125.5744,46.1536 C125.5744,46.9344 125.7232,47.5008 126.0224,47.8544 C126.3216,48.208 126.712,48.3856 127.1936,48.3856 C127.5792,48.3856 127.9024,48.2672 128.1616,48.0304 C128.4192,47.7936 128.584,47.4288 128.6528,46.936" id="Fill-140" fill="#1A1919"></path>
        <path d="M130.0144,49.064 L130.0144,41.0464 L130.9984,41.0464 L130.9984,43.9232 C131.4592,43.3904 132.0384,43.1248 132.7376,43.1248 C133.168,43.1248 133.5424,43.208 133.8592,43.3792 C134.176,43.5472 134.4032,43.7824 134.5408,44.0816 C134.6768,44.3808 134.7456,44.8144 134.7456,45.3824 L134.7456,49.064 L133.7616,49.064 L133.7616,45.3824 C133.7616,44.8912 133.6544,44.5328 133.44,44.3088 C133.2288,44.0832 132.9264,43.9712 132.536,43.9712 C132.2448,43.9712 131.9696,44.048 131.712,44.1984 C131.456,44.3504 131.272,44.5552 131.1632,44.8144 C131.0544,45.072 130.9984,45.4304 130.9984,45.8864 L130.9984,49.064 L130.0144,49.064" id="Fill-141" fill="#1A1919"></path>
        <path d="M135.8016,49.064 L136.7856,49.064 L136.7856,43.256 L135.8016,43.256 L135.8016,49.064 Z M135.8016,42.1792 L136.7856,42.1792 L136.7856,41.0464 L135.8016,41.0464 L135.8016,42.1792 Z" id="Fill-142" fill="#1A1919"></path>
        <path d="M138.4704,46.056 C138.4704,46.8176 138.6224,47.3728 138.9248,47.7232 C139.2272,48.0736 139.6064,48.248 140.0624,48.248 C140.5136,48.248 140.8928,48.0736 141.1984,47.7264 C141.5056,47.3776 141.6592,46.832 141.6592,46.088 C141.6592,45.3776 141.5008,44.8416 141.1856,44.48 C140.8704,44.12 140.4896,43.9392 140.0448,43.9392 C139.608,43.9392 139.2352,44.1168 138.9296,44.472 C138.624,44.8272 138.4704,45.3552 138.4704,46.056 Z M137.656,49.544 L138.6128,49.6864 C138.6528,49.9824 138.7648,50.1968 138.9456,50.3328 C139.1904,50.5136 139.5248,50.6048 139.9472,50.6048 C140.4032,50.6048 140.7552,50.5136 141.0032,50.3328 C141.2496,50.1504 141.4176,49.8944 141.5056,49.5664 C141.5568,49.3648 141.5808,48.944 141.576,48.3024 C141.1456,48.8096 140.6096,49.064 139.968,49.064 C139.1696,49.064 138.552,48.7744 138.1152,48.1984 C137.6768,47.624 137.4592,46.9328 137.4592,46.1264 C137.4592,45.5728 137.5584,45.0608 137.76,44.5936 C137.96,44.1248 138.2512,43.7632 138.632,43.5072 C139.0128,43.2512 139.4608,43.1248 139.9744,43.1248 C140.6592,43.1248 141.2256,43.4016 141.6704,43.9552 L141.6704,43.256 L142.5776,43.256 L142.5776,48.2752 C142.5776,49.1792 142.4848,49.8208 142.3008,50.1968 C142.1168,50.576 141.8256,50.8736 141.4256,51.0928 C141.0272,51.3104 140.536,51.4208 139.952,51.4208 C139.2592,51.4208 138.6992,51.264 138.2736,50.952 C137.8464,50.6416 137.64,50.1712 137.656,49.544 Z" id="Fill-143" fill="#1A1919"></path>
        <path d="M147.3248,46.1488 C146.968,46.2944 146.432,46.4176 145.7168,46.52 C145.312,46.5792 145.0272,46.6448 144.8592,46.7168 C144.6912,46.7904 144.5616,46.896 144.4704,47.0368 C144.3792,47.1776 144.3344,47.3328 144.3344,47.504 C144.3344,47.7664 144.4336,47.9856 144.632,48.1616 C144.8304,48.336 145.1216,48.424 145.504,48.424 C145.8832,48.424 146.2208,48.3408 146.5152,48.1744 C146.8112,48.008 147.0288,47.7824 147.1664,47.4944 C147.272,47.2704 147.3248,46.9424 147.3248,46.5088 L147.3248,46.1488 Z M147.4064,48.3472 C147.0416,48.6576 146.6912,48.8752 146.3536,49.0032 C146.0176,49.1296 145.656,49.1952 145.2688,49.1952 C144.6304,49.1952 144.1408,49.0384 143.7984,48.728 C143.4544,48.4144 143.2832,48.0176 143.2832,47.5328 C143.2832,47.248 143.3488,46.9888 143.4768,46.752 C143.6064,46.5184 143.776,46.3296 143.9872,46.1872 C144.1968,46.0448 144.432,45.936 144.6944,45.864 C144.888,45.8128 145.1792,45.7648 145.5696,45.7168 C146.3648,45.6224 146.9488,45.5088 147.3248,45.3776 C147.3296,45.2416 147.3296,45.1568 147.3296,45.12 C147.3296,44.72 147.2368,44.4368 147.0512,44.272 C146.8,44.0496 146.4272,43.9392 145.9296,43.9392 C145.4672,43.9392 145.1264,44.0208 144.9056,44.1824 C144.6848,44.344 144.5216,44.632 144.416,45.0432 L143.4528,44.912 C143.5408,44.5008 143.6848,44.168 143.8848,43.9152 C144.0864,43.6608 144.376,43.4672 144.7552,43.3296 C145.1344,43.1936 145.5728,43.1248 146.072,43.1248 C146.568,43.1248 146.9712,43.1824 147.2816,43.2992 C147.592,43.416 147.8192,43.5632 147.9648,43.7392 C148.1104,43.9168 148.2128,44.1392 148.2704,44.4096 C148.304,44.5776 148.32,44.88 148.32,45.3168 L148.32,46.6304 C148.32,47.544 148.3408,48.1232 148.384,48.3664 C148.4256,48.608 148.5072,48.84 148.632,49.064 L147.6032,49.064 C147.5024,48.8592 147.4352,48.6208 147.4064,48.3472 Z" id="Fill-144" fill="#1A1919"></path>
        <path d="M149.3984,49.064 L149.3984,43.256 L150.2848,43.256 L150.2848,44.0816 C150.7104,43.4432 151.328,43.1248 152.1328,43.1248 C152.4832,43.1248 152.8048,43.1872 153.0976,43.3136 C153.392,43.4384 153.6112,43.6032 153.7568,43.808 C153.9024,44.0112 154.0048,44.2544 154.064,44.5344 C154.0992,44.7168 154.1184,45.0368 154.1184,45.4928 L154.1184,49.064 L153.1344,49.064 L153.1344,45.5296 C153.1344,45.1296 153.096,44.8304 153.0192,44.6304 C152.9424,44.432 152.8064,44.2736 152.6112,44.1552 C152.416,44.0368 152.1872,43.9776 151.9248,43.9776 C151.5056,43.9776 151.144,44.1104 150.84,44.376 C150.536,44.6432 150.3824,45.1472 150.3824,45.8912 L150.3824,49.064 L149.3984,49.064" id="Fill-145" fill="#1A1919"></path>
    </g>
</svg>