<?xml version="1.0" encoding="UTF-8"?>
<svg width="230px" height="81px" viewBox="0 0 230 81" version="1.1" xmlns="http://www.w3.org/2000/svg" xmlns:xlink="http://www.w3.org/1999/xlink">
    <!-- Generator: Sketch 50.2 (55047) - http://www.bohemiancoding.com/sketch -->
    <title>Group</title>
    <desc>Created with Sketch.</desc>
    <defs>
        <polygon id="path-1" points="0.475377371 0.192158775 216.84885 0.192158775 216.84885 15.4790263 0.475377371 15.4790263"></polygon>
        <polygon id="path-3" points="0.685171354 0.930734984 10.7194562 0.930734984 10.7194562 8.16666221 0.685171354 8.16666221"></polygon>
        <polygon id="path-5" points="0.386007194 0.740620378 60.6215062 0.740620378 60.6215062 8.16666221 0.386007194 8.16666221"></polygon>
        <polygon id="path-7" points="0.106311642 0.740620378 21.6776243 0.740620378 21.6776243 8.16666221 0.106311642 8.16666221"></polygon>
        <polygon id="path-9" points="0.218851864 0.930734984 52.4524101 0.930734984 52.4524101 8.16666221 0.218851864 8.16666221"></polygon>
        <polygon id="path-11" points="0.830811642 0.930734984 7.56667495 0.930734984 7.56667495 8.16666221 0.830811642 8.16666221"></polygon>
    </defs>
    <g id="Symbols" stroke="none" stroke-width="1" fill="none" fill-rule="evenodd">
        <g id="Navigation">
            <g id="Group">
                <path d="M17.0713587,68.0378846 L16.0138116,64.8935543 L15.9939516,64.8935543 L14.8486893,68.0378846 L17.0713587,68.0378846 Z M14.5507888,68.8925737 L13.8027273,70.9739153 L12.8064153,70.9739153 L15.4957956,63.8272593 L16.5930628,63.8272593 L19.1831429,70.9739153 L18.1272508,70.9739153 L17.4205644,68.8925737 L14.5507888,68.8925737 Z" id="Fill-1" fill="#003C68"></path>
                <path d="M26.9748983,70.9739153 L26.0994016,70.9739153 L26.0994016,67.7684178 C26.0994016,66.8641335 25.8379111,66.4062053 24.9822744,66.4062053 C24.4841184,66.4062053 23.6069666,66.723614 23.6069666,68.1370748 L23.6069666,70.9739153 L22.7314699,70.9739153 L22.7314699,65.7680815 L23.5556615,65.7680815 L23.5556615,66.5053955 L23.5771766,66.5053955 C23.765847,66.2260097 24.2557279,65.6192961 25.1527397,65.6192961 C25.9587263,65.6192961 26.9748983,65.9466239 26.9748983,67.431171 L26.9748983,70.9739153" id="Fill-2" fill="#003C68"></path>
                <path d="M30.3941351,70.3556296 C31.6502825,70.3556296 31.908463,69.0628503 31.908463,68.3668655 C31.908463,67.6692275 31.6502825,66.3764482 30.3941351,66.3764482 C29.1363326,66.3764482 28.8781521,67.6692275 28.8781521,68.3668655 C28.8781521,69.0628503 29.1363326,70.3556296 30.3941351,70.3556296 Z M30.3941351,65.6192961 C32.0574133,65.6192961 32.8154048,67.0228379 32.8154048,68.3668655 C32.8154048,69.7092399 32.0574133,71.1127817 30.3941351,71.1127817 C28.7292018,71.1127817 27.9712103,69.7092399 27.9712103,68.3668655 C27.9712103,67.0228379 28.7292018,65.6192961 30.3941351,65.6192961 Z" id="Fill-3" fill="#003C68"></path>
                <path d="M38.0551452,70.9739153 L37.1779935,70.9739153 L37.1779935,67.7684178 C37.1779935,66.8641335 36.9198129,66.4062053 36.0641763,66.4062053 C35.5643653,66.4062053 34.6872135,66.723614 34.6872135,68.1370748 L34.6872135,70.9739153 L33.8117168,70.9739153 L33.8117168,65.7680815 L34.6375634,65.7680815 L34.6375634,66.5053955 L34.6557685,66.5053955 C34.8477489,66.2260097 35.3359748,65.6192961 36.2329866,65.6192961 C37.0389732,65.6192961 38.0551452,65.9466239 38.0551452,67.431171 L38.0551452,70.9739153" id="Fill-4" fill="#003C68"></path>
                <path d="M41.5438921,70.3672018 C42.498829,70.3672018 42.9473349,69.5009404 42.9473349,68.3569465 C42.9473349,67.6890656 42.8794797,66.4062053 41.524032,66.4062053 C40.2596095,66.4062053 40.1172793,67.7684178 40.1172793,68.6148411 C40.1172793,69.9985448 40.984501,70.3672018 41.5438921,70.3672018 Z M39.2815026,65.7680815 L40.1073492,65.7680815 L40.1073492,66.5053955 L40.1272093,66.5053955 C40.3373947,66.2078248 40.7362505,65.6192961 41.6829124,65.6192961 C43.0664951,65.6192961 43.8559317,66.7533711 43.8559317,68.216427 C43.8559317,69.4612643 43.3362606,71.1227007 41.5654071,71.1227007 C40.8653407,71.1227007 40.4085598,70.7953729 40.1785144,70.4267159 L40.1569993,70.4267159 L40.1569993,73.0337658 L39.2815026,73.0337658 L39.2815026,65.7680815 Z" id="Fill-5" fill="#003C68"></path>
                <path d="M45.8882757,70.9739153 L45.0111239,70.9739153 L45.0111239,65.7680815 L45.8386256,65.7680815 L45.8386256,66.6343428 L45.8584856,66.6343428 C46.2060363,66.0276292 46.6644722,65.6192961 47.3215085,65.6192961 C47.4323937,65.6192961 47.4820438,65.6292152 47.553209,65.6474 L47.553209,66.5549906 L47.2238633,66.5549906 C46.4062917,66.5549906 45.8882757,67.1931144 45.8882757,67.9486134 L45.8882757,70.9739153" id="Fill-6" fill="#003C68"></path>
                <path d="M50.3319595,70.3556296 C51.5864519,70.3556296 51.8462874,69.0628503 51.8462874,68.3668655 C51.8462874,67.6692275 51.5864519,66.3764482 50.3319595,66.3764482 C49.077467,66.3764482 48.8159765,67.6692275 48.8159765,68.3668655 C48.8159765,69.0628503 49.077467,70.3556296 50.3319595,70.3556296 Z M50.3319595,65.6192961 C51.9952377,65.6192961 52.7532292,67.0228379 52.7532292,68.3668655 C52.7532292,69.7092399 51.9952377,71.1127817 50.3319595,71.1127817 C48.6670262,71.1127817 47.9106897,69.7092399 47.9106897,68.3668655 C47.9106897,67.0228379 48.6670262,65.6192961 50.3319595,65.6192961 Z" id="Fill-7" fill="#003C68"></path>
                <path d="M54.8352233,66.4938233 L54.8352233,70.9739153 L53.9580716,70.9739153 L53.9580716,66.4938233 L53.2414552,66.4938233 L53.2414552,65.7680815 L53.9580716,65.7680815 L53.9580716,64.8720631 C53.9580716,64.0868071 54.4578826,63.7280691 55.3118643,63.7280691 C55.4442646,63.7280691 55.5733548,63.7379881 55.7123751,63.7479071 L55.7123751,64.5348163 C55.6031449,64.5248973 55.4624696,64.5149782 55.3532394,64.5149782 C54.9758986,64.5149782 54.8352233,64.7034397 54.8352233,65.1216918 L54.8352233,65.7680815 L55.7123751,65.7680815 L55.7123751,66.4938233 L54.8352233,66.4938233" id="Fill-8" fill="#003C68"></path>
                <path d="M56.5382217,70.9739153 L57.4153734,70.9739153 L57.4153734,65.7680815 L56.5382217,65.7680815 L56.5382217,70.9739153 Z M56.5382217,64.822468 L57.4153734,64.822468 L57.4153734,63.8272593 L56.5382217,63.8272593 L56.5382217,64.822468 Z" id="Fill-9" fill="#003C68"></path>
                <path d="M59.8068532,66.4938233 L59.8068532,69.8795165 C59.8068532,70.2878496 60.1560589,70.2878496 60.3364542,70.2878496 L60.6459398,70.2878496 L60.6459398,70.9739153 C60.3265242,71.0053256 60.0766187,71.0433485 59.9872485,71.0433485 C59.1200268,71.0433485 58.9313564,70.5556632 58.9313564,69.9274584 L58.9313564,66.4938233 L58.223015,66.4938233 L58.223015,65.7680815 L58.9313564,65.7680815 L58.9313564,64.3149446 L59.8068532,64.3149446 L59.8068532,65.7680815 L60.6459398,65.7680815 L60.6459398,66.4938233 L59.8068532,66.4938233" id="Fill-10" fill="#003C68"></path>
                <path d="M67.5307534,67.5220954 C67.4198682,66.8211511 67.0309424,66.4062053 66.294466,66.4062053 C65.2071288,66.4062053 64.8579232,67.44109 64.8579232,68.3668655 C64.8579232,69.2628839 65.0780386,70.3672018 66.282881,70.3672018 C66.8720621,70.3672018 67.3801481,69.9274584 67.5307534,69.1322834 L68.3764601,69.1322834 C68.2870899,69.9588687 67.7790039,71.1227007 66.2530909,71.1227007 C64.788413,71.1227007 63.9228463,70.0183828 63.9228463,68.5156508 C63.9228463,66.9021564 64.7006978,65.6192961 66.4235562,65.6192961 C67.7889339,65.6192961 68.305295,66.6128516 68.3764601,67.5220954 L67.5307534,67.5220954" id="Fill-11" fill="#003C68"></path>
                <path d="M71.375326,70.3556296 C72.6314735,70.3556296 72.889654,69.0628503 72.889654,68.3668655 C72.889654,67.6692275 72.6314735,66.3764482 71.375326,66.3764482 C70.1208336,66.3764482 69.860998,67.6692275 69.860998,68.3668655 C69.860998,69.0628503 70.1208336,70.3556296 71.375326,70.3556296 Z M71.375326,65.6192961 C73.0386043,65.6192961 73.7949408,67.0228379 73.7949408,68.3668655 C73.7949408,69.7092399 73.0386043,71.1127817 71.375326,71.1127817 C69.7120477,71.1127817 68.9540562,69.7092399 68.9540562,68.3668655 C68.9540562,67.0228379 69.7120477,65.6192961 71.375326,65.6192961 Z" id="Fill-12" fill="#003C68"></path>
                <path d="M75.7892198,70.9739153 L74.913723,70.9739153 L74.913723,65.7680815 L75.7395697,65.7680815 L75.7395697,66.6343428 L75.7594297,66.6343428 C76.1086354,66.0276292 76.5670713,65.6192961 77.2241076,65.6192961 C77.3349928,65.6192961 77.3846429,65.6292152 77.454153,65.6474 L77.454153,66.5549906 L77.1248074,66.5549906 C76.3072358,66.5549906 75.7892198,67.1931144 75.7892198,67.9486134 L75.7892198,70.9739153" id="Fill-13" fill="#003C68"></path>
                <path d="M80.3024137,70.3672018 C81.2590056,70.3672018 81.7091664,69.5009404 81.7091664,68.3569465 C81.7091664,67.6890656 81.6396563,66.4062053 80.2842086,66.4062053 C79.0181311,66.4062053 78.8791109,67.7684178 78.8791109,68.6148411 C78.8791109,69.9985448 79.7463326,70.3672018 80.3024137,70.3672018 Z M78.0400242,65.7680815 L78.8691808,65.7680815 L78.8691808,66.5053955 L78.8890409,66.5053955 C79.0975713,66.2078248 79.4980821,65.6192961 80.4430889,65.6192961 C81.8283267,65.6192961 82.6144532,66.7533711 82.6144532,68.216427 C82.6144532,69.4612643 82.0964372,71.1227007 80.3239287,71.1227007 C79.6255173,71.1227007 79.1670814,70.7953729 78.938691,70.4267159 L78.9188309,70.4267159 L78.9188309,73.0337658 L78.0400242,73.0337658 L78.0400242,65.7680815 Z" id="Fill-14" fill="#003C68"></path>
                <path d="M85.7738545,70.3556296 C87.028347,70.3556296 87.2881825,69.0628503 87.2881825,68.3668655 C87.2881825,67.6692275 87.028347,66.3764482 85.7738545,66.3764482 C84.517707,66.3764482 84.2595265,67.6692275 84.2595265,68.3668655 C84.2595265,69.0628503 84.517707,70.3556296 85.7738545,70.3556296 Z M85.7738545,65.6192961 C87.4387878,65.6192961 88.1951243,67.0228379 88.1951243,68.3668655 C88.1951243,69.7092399 87.4387878,71.1127817 85.7738545,71.1127817 C84.1105762,71.1127817 83.3525847,69.7092399 83.3525847,68.3668655 C83.3525847,67.0228379 84.1105762,65.6192961 85.7738545,65.6192961 Z" id="Fill-15" fill="#003C68"></path>
                <path d="M90.1877482,70.9739153 L89.3105965,70.9739153 L89.3105965,65.7680815 L90.1380981,65.7680815 L90.1380981,66.6343428 L90.1579581,66.6343428 C90.5071638,66.0276292 90.9639447,65.6192961 91.622636,65.6192961 C91.7335213,65.6192961 91.7831714,65.6292152 91.8526815,65.6474 L91.8526815,66.5549906 L91.5233358,66.5549906 C90.7074192,66.5549906 90.1877482,67.1931144 90.1877482,67.9486134 L90.1877482,70.9739153" id="Fill-16" fill="#003C68"></path>
                <path d="M95.6873241,68.3156172 C95.5483038,68.4263796 95.3298434,68.5057318 94.2425062,68.6445981 C93.8155154,68.7057654 93.128689,68.8347127 93.128689,69.4910214 C93.128689,70.0580589 93.4166596,70.3969588 94.0753509,70.3969588 C94.8912675,70.3969588 95.6873241,69.8679443 95.6873241,69.1719595 L95.6873241,68.3156172 Z M92.4799277,67.3518188 C92.5196478,66.1086346 93.3471494,65.6192961 94.633087,65.6192961 C95.0518028,65.6192961 96.5644758,65.7383244 96.5644758,67.072433 L96.5644758,70.0679779 C96.5644758,70.2878496 96.675361,70.3771208 96.8541014,70.3771208 C96.9335415,70.3771208 97.0444267,70.3556296 97.1437269,70.3357915 L97.1437269,70.9739153 C96.9931216,71.0135914 96.8656864,71.0731056 96.663776,71.0731056 C95.8875795,71.0731056 95.7684192,70.6746915 95.7369742,70.2779306 C95.3993535,70.6465876 94.8714075,71.1227007 93.8552354,71.1227007 C92.8986436,71.1227007 92.2200922,70.5159871 92.2200922,69.6199687 C92.2200922,69.1818785 92.3508375,68.1668319 93.8055853,67.9866363 L95.2487482,67.8064407 C95.4589336,67.7882558 95.7088391,67.7089036 95.7088391,67.1931144 C95.7088391,66.645915 95.3083283,66.3466911 94.4808267,66.3466911 C93.4861697,66.3466911 93.3471494,66.9534047 93.2859143,67.3518188 L92.4799277,67.3518188 Z" id="Fill-17" fill="#003C68"></path>
                <path d="M99.1264209,66.4938233 L99.1264209,69.8795165 C99.1264209,70.2878496 99.4739716,70.2878496 99.6543669,70.2878496 L99.9638525,70.2878496 L99.9638525,70.9739153 C99.6444369,71.0053256 99.3961864,71.0433485 99.3068162,71.0433485 C98.4379395,71.0433485 98.2492691,70.5556632 98.2492691,69.9274584 L98.2492691,66.4938233 L97.5409277,66.4938233 L97.5409277,65.7680815 L98.2492691,65.7680815 L98.2492691,64.3149446 L99.1264209,64.3149446 L99.1264209,65.7680815 L99.9638525,65.7680815 L99.9638525,66.4938233 L99.1264209,66.4938233" id="Fill-18" fill="#003C68"></path>
                <path d="M100.839349,70.9739153 L101.716501,70.9739153 L101.716501,65.7680815 L100.839349,65.7680815 L100.839349,70.9739153 Z M100.839349,64.822468 L101.716501,64.822468 L101.716501,63.8272593 L100.839349,63.8272593 L100.839349,64.822468 Z" id="Fill-19" fill="#003C68"></path>
                <path d="M105.153943,70.3556296 C106.408435,70.3556296 106.668271,69.0628503 106.668271,68.3668655 C106.668271,67.6692275 106.408435,66.3764482 105.153943,66.3764482 C103.89945,66.3764482 103.639615,67.6692275 103.639615,68.3668655 C103.639615,69.0628503 103.89945,70.3556296 105.153943,70.3556296 Z M105.153943,65.6192961 C106.818876,65.6192961 107.575213,67.0228379 107.575213,68.3668655 C107.575213,69.7092399 106.818876,71.1127817 105.153943,71.1127817 C103.489009,71.1127817 102.732673,69.7092399 102.732673,68.3668655 C102.732673,67.0228379 103.489009,65.6192961 105.153943,65.6192961 Z" id="Fill-20" fill="#003C68"></path>
                <path d="M112.816608,70.9739153 L111.939456,70.9739153 L111.939456,67.7684178 C111.939456,66.8641335 111.679621,66.4062053 110.822329,66.4062053 C110.325828,66.4062053 109.448676,66.723614 109.448676,68.1370748 L109.448676,70.9739153 L108.57318,70.9739153 L108.57318,65.7680815 L109.399026,65.7680815 L109.399026,66.5053955 L109.418886,66.5053955 C109.609212,66.2260097 110.097438,65.6192961 110.992794,65.6192961 C111.798781,65.6192961 112.816608,65.9466239 112.816608,67.431171 L112.816608,70.9739153" id="Fill-21" fill="#003C68"></path>
                <path d="M120.060557,68.3156172 C119.921537,68.4263796 119.701422,68.5057318 118.615739,68.6445981 C118.187094,68.7057654 117.500267,68.8347127 117.500267,69.4910214 C117.500267,70.0580589 117.789893,70.3969588 118.446929,70.3969588 C119.262846,70.3969588 120.060557,69.8679443 120.060557,69.1719595 L120.060557,68.3156172 Z M116.851506,67.3518188 C116.891226,66.1086346 117.720383,65.6192961 119.00301,65.6192961 C119.421726,65.6192961 120.937709,65.7383244 120.937709,67.072433 L120.937709,70.0679779 C120.937709,70.2878496 121.048594,70.3771208 121.22568,70.3771208 C121.306775,70.3771208 121.416005,70.3556296 121.515305,70.3357915 L121.515305,70.9739153 C121.366355,71.0135914 121.237265,71.0731056 121.037009,71.0731056 C120.260813,71.0731056 120.139997,70.6746915 120.110207,70.2779306 C119.770932,70.6465876 119.244641,71.1227007 118.226814,71.1227007 C117.268567,71.1227007 116.593325,70.5159871 116.593325,69.6199687 C116.593325,69.1818785 116.720761,68.1668319 118.177164,67.9866363 L119.621981,67.8064407 C119.832167,67.7882558 120.078762,67.7089036 120.078762,67.1931144 C120.078762,66.645915 119.681561,66.3466911 118.855715,66.3466911 C117.857748,66.3466911 117.720383,66.9534047 117.659147,67.3518188 L116.851506,67.3518188 Z" id="Fill-22" fill="#003C68"></path>
                <path d="M126.66733,70.9739153 L125.790179,70.9739153 L125.790179,67.7684178 C125.790179,66.8641335 125.530343,66.4062053 124.673051,66.4062053 C124.174895,66.4062053 123.299399,66.723614 123.299399,68.1370748 L123.299399,70.9739153 L122.420592,70.9739153 L122.420592,65.7680815 L123.248094,65.7680815 L123.248094,66.5053955 L123.269609,66.5053955 C123.458279,66.2260097 123.94816,65.6192961 124.841862,65.6192961 C125.649503,65.6192961 126.66733,65.9466239 126.66733,67.431171 L126.66733,70.9739153" id="Fill-23" fill="#003C68"></path>
                <path d="M129.975682,70.3672018 C130.531763,70.3672018 131.398985,69.9985448 131.398985,68.6148411 C131.398985,67.7684178 131.261619,66.4062053 129.993887,66.4062053 C128.641749,66.4062053 128.570584,67.6890656 128.570584,68.3569465 C128.570584,69.5009404 129.017435,70.3672018 129.975682,70.3672018 Z M132.287721,70.9739153 L131.458565,70.9739153 L131.458565,70.2580925 L131.44036,70.2580925 C131.061364,70.9639963 130.462253,71.1227007 129.955822,71.1227007 C128.181658,71.1227007 127.661987,69.4612643 127.661987,68.216427 C127.661987,66.7533711 128.451424,65.6192961 129.835007,65.6192961 C130.781668,65.6192961 131.180524,66.2078248 131.389055,66.5053955 L131.408915,66.5053955 L131.408915,63.8272593 L132.287721,63.8272593 L132.287721,70.9739153 Z" id="Fill-24" fill="#003C68"></path>
                <path d="M136.292829,70.9739153 L137.169981,70.9739153 L137.169981,65.7680815 L136.292829,65.7680815 L136.292829,70.9739153 Z M136.292829,64.822468 L137.169981,64.822468 L137.169981,63.8272593 L136.292829,63.8272593 L136.292829,64.822468 Z" id="Fill-25" fill="#003C68"></path>
                <path d="M142.729137,70.9739153 L141.85033,70.9739153 L141.85033,67.7684178 C141.85033,66.8641335 141.593805,66.4062053 140.736513,66.4062053 C140.238357,66.4062053 139.361205,66.723614 139.361205,68.1370748 L139.361205,70.9739153 L138.482399,70.9739153 L138.482399,65.7680815 L139.311555,65.7680815 L139.311555,66.5053955 L139.331415,66.5053955 C139.520086,66.2260097 140.008312,65.6192961 140.905323,65.6192961 C141.712965,65.6192961 142.729137,65.9466239 142.729137,67.431171 L142.729137,70.9739153" id="Fill-26" fill="#003C68"></path>
                <path d="M146.037489,70.3672018 C146.595225,70.3672018 147.462446,69.9985448 147.462446,68.6148411 C147.462446,67.7684178 147.321771,66.4062053 146.057349,66.4062053 C144.701901,66.4062053 144.632391,67.6890656 144.632391,68.3569465 C144.632391,69.5009404 145.080897,70.3672018 146.037489,70.3672018 Z M148.349528,70.9739153 L147.522026,70.9739153 L147.522026,70.2580925 L147.503821,70.2580925 C147.123171,70.9639963 146.525715,71.1227007 146.017629,71.1227007 C144.243465,71.1227007 143.725449,69.4612643 143.725449,68.216427 C143.725449,66.7533711 144.513231,65.6192961 145.898468,65.6192961 C146.84513,65.6192961 147.242331,66.2078248 147.452516,66.5053955 L147.470721,66.5053955 L147.470721,63.8272593 L148.349528,63.8272593 L148.349528,70.9739153 Z" id="Fill-27" fill="#003C68"></path>
                <path d="M153.152348,67.9568792 C153.101043,67.1517852 152.763422,66.4062053 151.6976,66.4062053 C150.889958,66.4062053 150.252782,67.1517852 150.252782,67.9568792 L153.152348,67.9568792 Z M153.988124,69.3422361 C153.958334,69.5902116 153.718359,70.3275257 153.061322,70.7639627 C152.823002,70.9243202 152.483726,71.1227007 151.646295,71.1227007 C150.181617,71.1227007 149.314395,70.0183828 149.314395,68.5156508 C149.314395,66.9021564 150.092247,65.6192961 151.815105,65.6192961 C153.321158,65.6192961 154.057634,66.8128852 154.057634,68.6545171 L150.252782,68.6545171 C150.252782,69.7406502 150.760868,70.3672018 151.765455,70.3672018 C152.592957,70.3672018 153.082837,69.729078 153.114283,69.3422361 L153.988124,69.3422361 Z" id="Fill-28" fill="#003C68"></path>
                <path d="M157.296476,70.3672018 C158.253068,70.3672018 158.701574,69.5009404 158.701574,68.3569465 C158.701574,67.6890656 158.632063,66.4062053 157.276616,66.4062053 C156.010538,66.4062053 155.871518,67.7684178 155.871518,68.6148411 C155.871518,69.9985448 156.73874,70.3672018 157.296476,70.3672018 Z M155.034086,65.7680815 L155.861588,65.7680815 L155.861588,66.5053955 L155.881448,66.5053955 C156.091633,66.2078248 156.490489,65.6192961 157.435496,65.6192961 C158.820734,65.6192961 159.608515,66.7533711 159.608515,68.216427 C159.608515,69.4612643 159.090499,71.1227007 157.316336,71.1227007 C156.619579,71.1227007 156.161144,70.7953729 155.931098,70.4267159 L155.911238,70.4267159 L155.911238,73.0337658 L155.034086,73.0337658 L155.034086,65.7680815 Z" id="Fill-29" fill="#003C68"></path>
                <path d="M164.23094,67.9568792 C164.181289,67.1517852 163.842014,66.4062053 162.776192,66.4062053 C161.970205,66.4062053 161.331374,67.1517852 161.331374,67.9568792 L164.23094,67.9568792 Z M165.068371,69.3422361 C165.038581,69.5902116 164.800261,70.3275257 164.141569,70.7639627 C163.903249,70.9243202 163.563973,71.1227007 162.726542,71.1227007 C161.261864,71.1227007 160.394642,70.0183828 160.394642,68.5156508 C160.394642,66.9021564 161.172493,65.6192961 162.895352,65.6192961 C164.401405,65.6192961 165.137881,66.8128852 165.137881,68.6545171 L161.331374,68.6545171 C161.331374,69.7406502 161.841115,70.3672018 162.845702,70.3672018 C163.673203,70.3672018 164.161429,69.729078 164.192874,69.3422361 L165.068371,69.3422361 Z" id="Fill-30" fill="#003C68"></path>
                <path d="M170.428927,70.9739153 L169.55343,70.9739153 L169.55343,67.7684178 C169.55343,66.8641335 169.293595,66.4062053 168.436303,66.4062053 C167.938147,66.4062053 167.060995,66.723614 167.060995,68.1370748 L167.060995,70.9739153 L166.183843,70.9739153 L166.183843,65.7680815 L167.011345,65.7680815 L167.011345,66.5053955 L167.031205,66.5053955 C167.22153,66.2260097 167.708101,65.6192961 168.605113,65.6192961 C169.41441,65.6192961 170.428927,65.9466239 170.428927,67.431171 L170.428927,70.9739153" id="Fill-31" fill="#003C68"></path>
                <path d="M173.737278,70.3672018 C174.295014,70.3672018 175.162236,69.9985448 175.162236,68.6148411 C175.162236,67.7684178 175.023216,66.4062053 173.757138,66.4062053 C172.403346,66.4062053 172.332181,67.6890656 172.332181,68.3569465 C172.332181,69.5009404 172.780686,70.3672018 173.737278,70.3672018 Z M176.047663,70.9739153 L175.221816,70.9739153 L175.221816,70.2580925 L175.201956,70.2580925 C174.824615,70.9639963 174.225504,71.1227007 173.717418,71.1227007 C171.94491,71.1227007 171.426894,69.4612643 171.426894,68.216427 C171.426894,66.7533711 172.21302,65.6192961 173.598258,65.6192961 C174.54492,65.6192961 174.943776,66.2078248 175.153961,66.5053955 L175.172166,66.5053955 L175.172166,63.8272593 L176.047663,63.8272593 L176.047663,70.9739153 Z" id="Fill-32" fill="#003C68"></path>
                <path d="M180.850482,67.9568792 C180.802487,67.1517852 180.464867,66.4062053 179.397389,66.4062053 C178.589748,66.4062053 177.952572,67.1517852 177.952572,67.9568792 L180.850482,67.9568792 Z M181.689569,69.3422361 C181.659779,69.5902116 181.419803,70.3275257 180.762767,70.7639627 C180.522792,70.9243202 180.185171,71.1227007 179.347739,71.1227007 C177.883061,71.1227007 177.01584,70.0183828 177.01584,68.5156508 C177.01584,66.9021564 177.793691,65.6192961 179.51655,65.6192961 C181.022603,65.6192961 181.757424,66.8128852 181.757424,68.6545171 L177.952572,68.6545171 C177.952572,69.7406502 178.460658,70.3672018 179.465245,70.3672018 C180.294401,70.3672018 180.780972,69.729078 180.812417,69.3422361 L181.689569,69.3422361 Z" id="Fill-33" fill="#003C68"></path>
                <path d="M187.050125,70.9739153 L186.172973,70.9739153 L186.172973,67.7684178 C186.172973,66.8641335 185.913137,66.4062053 185.057501,66.4062053 C184.55769,66.4062053 183.682193,66.723614 183.682193,68.1370748 L183.682193,70.9739153 L182.805041,70.9739153 L182.805041,65.7680815 L183.632543,65.7680815 L183.632543,66.5053955 L183.652403,66.5053955 C183.841073,66.2260097 184.329299,65.6192961 185.224656,65.6192961 C186.033953,65.6192961 187.050125,65.9466239 187.050125,67.431171 L187.050125,70.9739153" id="Fill-34" fill="#003C68"></path>
                <path d="M189.421744,66.4938233 L189.421744,69.8795165 C189.421744,70.2878496 189.769295,70.2878496 189.94969,70.2878496 L190.257521,70.2878496 L190.257521,70.9739153 C189.93976,71.0053256 189.689855,71.0433485 189.59883,71.0433485 C188.733263,71.0433485 188.544593,70.5556632 188.544593,69.9274584 L188.544593,66.4938233 L187.837906,66.4938233 L187.837906,65.7680815 L188.544593,65.7680815 L188.544593,64.3149446 L189.421744,64.3149446 L189.421744,65.7680815 L190.257521,65.7680815 L190.257521,66.4938233 L189.421744,66.4938233" id="Fill-35" fill="#003C68"></path>
                <polygon id="Fill-36" fill="#003C68" points="193.905148 70.9739153 194.780645 70.9739153 194.780645 63.8272593 193.905148 63.8272593"></polygon>
                <path d="M196.116233,70.9739153 L196.993384,70.9739153 L196.993384,65.7680815 L196.116233,65.7680815 L196.116233,70.9739153 Z M196.116233,64.822468 L196.993384,64.822468 L196.993384,63.8272593 L196.116233,63.8272593 L196.116233,64.822468 Z" id="Fill-37" fill="#003C68"></path>
                <path d="M201.566158,67.5220954 C201.456928,66.8211511 201.069657,66.4062053 200.331526,66.4062053 C199.244189,66.4062053 198.898293,67.44109 198.898293,68.3668655 C198.898293,69.2628839 199.116753,70.3672018 200.321596,70.3672018 C200.909122,70.3672018 201.417208,69.9274584 201.566158,69.1322834 L202.415175,69.1322834 C202.32415,69.9588687 201.816064,71.1227007 200.291806,71.1227007 C198.827128,71.1227007 197.959906,70.0183828 197.959906,68.5156508 C197.959906,66.9021564 198.737758,65.6192961 200.460616,65.6192961 C201.827649,65.6192961 202.34401,66.6128516 202.415175,67.5220954 L201.566158,67.5220954" id="Fill-38" fill="#003C68"></path>
                <path d="M206.877064,67.9568792 C206.827414,67.1517852 206.489793,66.4062053 205.423971,66.4062053 C204.616329,66.4062053 203.977498,67.1517852 203.977498,67.9568792 L206.877064,67.9568792 Z M207.714495,69.3422361 C207.684705,69.5902116 207.446385,70.3275257 206.787694,70.7639627 C206.549373,70.9243202 206.210097,71.1227007 205.372666,71.1227007 C203.909643,71.1227007 203.042421,70.0183828 203.042421,68.5156508 C203.042421,66.9021564 203.818618,65.6192961 205.541476,65.6192961 C207.047529,65.6192961 207.784006,66.8128852 207.784006,68.6545171 L203.977498,68.6545171 C203.977498,69.7406502 204.487239,70.3672018 205.493481,70.3672018 C206.319328,70.3672018 206.807554,69.729078 206.837344,69.3422361 L207.714495,69.3422361 Z" id="Fill-39" fill="#003C68"></path>
                <path d="M213.076706,70.9739153 L212.197899,70.9739153 L212.197899,67.7684178 C212.197899,66.8641335 211.941374,66.4062053 211.082427,66.4062053 C210.585926,66.4062053 209.707119,66.723614 209.707119,68.1370748 L209.707119,70.9739153 L208.829968,70.9739153 L208.829968,65.7680815 L209.659124,65.7680815 L209.659124,66.5053955 L209.678984,66.5053955 C209.867655,66.2260097 210.355881,65.6192961 211.252892,65.6192961 C212.058879,65.6192961 213.076706,65.9466239 213.076706,67.431171 L213.076706,70.9739153" id="Fill-40" fill="#003C68"></path>
                <path d="M217.330064,67.2526286 C217.320134,66.9219945 217.200974,66.3764482 216.095432,66.3764482 C215.825666,66.3764482 215.0594,66.4657194 215.0594,67.1121091 C215.0594,67.5402802 215.32751,67.6394705 216.004407,67.8064407 L216.881559,68.0279655 C217.967241,68.2974323 218.347891,68.6941932 218.347891,69.400097 C218.347891,70.476311 217.46081,71.1227007 216.284102,71.1227007 C214.220313,71.1227007 214.073018,69.9274584 214.043228,69.3009068 L214.89059,69.3009068 C214.918725,69.7092399 215.03954,70.3672018 216.274172,70.3672018 C216.903074,70.3672018 217.469085,70.117573 217.469085,69.5406165 C217.469085,69.1240176 217.181114,68.9834981 216.433053,68.7950366 L215.416881,68.5454079 C214.688679,68.3668655 214.210383,67.9965553 214.210383,67.2823856 C214.210383,66.1367385 215.1587,65.6192961 216.184802,65.6192961 C218.048336,65.6192961 218.177426,66.9914276 218.177426,67.2526286 L217.330064,67.2526286" id="Fill-41" fill="#003C68"></path>
                <path d="M222.938871,67.9568792 C222.890875,67.1517852 222.5516,66.4062053 221.485778,66.4062053 C220.678136,66.4062053 220.039305,67.1517852 220.039305,67.9568792 L222.938871,67.9568792 Z M223.777957,69.3422361 C223.748167,69.5902116 223.508192,70.3275257 222.851155,70.7639627 C222.61118,70.9243202 222.271904,71.1227007 221.436128,71.1227007 C219.969795,71.1227007 219.104228,70.0183828 219.104228,68.5156508 C219.104228,66.9021564 219.878769,65.6192961 221.604938,65.6192961 C223.109336,65.6192961 223.847467,66.8128852 223.847467,68.6545171 L220.039305,68.6545171 C220.039305,69.7406502 220.550701,70.3672018 221.555288,70.3672018 C222.381134,70.3672018 222.871015,69.729078 222.900805,69.3422361 L223.777957,69.3422361 Z" id="Fill-42" fill="#003C68"></path>
                <g id="Group-46" transform="translate(12.539568, 65.427137)">
                    <mask id="mask-2" fill="white">
                        <use xlink:href="#path-1"></use>
                    </mask>
                    <g id="Clip-44"></g>
                    <path d="M215.940253,2.52974184 C215.890603,1.72464782 215.551327,0.979067927 214.48716,0.979067927 C213.679519,0.979067927 213.040687,1.72464782 213.040687,2.52974184 L215.940253,2.52974184 Z M216.77934,3.91509871 C216.747895,4.16307428 216.509574,4.90038832 215.850883,5.33682533 C215.610907,5.49718287 215.271632,5.69556333 214.43751,5.69556333 C212.971177,5.69556333 212.105611,4.59124544 212.105611,3.08851347 C212.105611,1.47501907 212.881807,0.192158775 214.60632,0.192158775 C216.109063,0.192158775 216.84885,1.38574787 216.84885,3.22737979 L213.040687,3.22737979 C213.040687,4.3135128 213.548773,4.94006441 214.55667,4.94006441 C215.380862,4.94006441 215.870743,4.30194061 215.900533,3.91509871 L216.77934,3.91509871 Z" id="Fill-43" fill="#003C68" mask="url(#mask-2)"></path>
                    <path d="M2.89830216,14.7698161 C4.15444964,14.7698161 4.41263015,13.4770368 4.41263015,12.781052 C4.41263015,12.0834141 4.15444964,10.7906348 2.89830216,10.7906348 C1.64215468,10.7906348 1.38231916,12.0834141 1.38231916,12.781052 C1.38231916,13.4770368 1.64215468,14.7698161 2.89830216,14.7698161 Z M2.89830216,10.0334827 C4.56158044,10.0334827 5.31957194,11.4386776 5.31957194,12.781052 C5.31957194,14.1234265 4.56158044,15.5286214 2.89830216,15.5286214 C1.23336887,15.5286214 0.475377371,14.1234265 0.475377371,12.781052 C0.475377371,11.4386776 1.23336887,10.0334827 2.89830216,10.0334827 Z" id="Fill-45" fill="#003C68" mask="url(#mask-2)"></path>
                </g>
                <path d="M19.9427894,76.3368004 L19.9427894,80.8135861 L19.0639827,80.8135861 L19.0639827,76.3368004 L18.3457112,76.3368004 L18.3457112,75.6094054 L19.0639827,75.6094054 L19.0639827,74.7150402 C19.0639827,73.9297842 19.5637937,73.5677398 20.4177753,73.5677398 C20.5485206,73.5677398 20.6776109,73.579312 20.8182861,73.5892311 L20.8182861,74.3761402 C20.7074009,74.3662212 20.5683806,74.3563022 20.4591504,74.3563022 C20.0818097,74.3563022 19.9427894,74.5447636 19.9427894,74.9630157 L19.9427894,75.6094054 L20.8182861,75.6094054 L20.8182861,76.3368004 L19.9427894,76.3368004" id="Fill-47" fill="#003C68"></path>
                <path d="M25.4721553,76.3368004 L25.4721553,79.7208404 C25.4721553,80.1291735 25.819706,80.1291735 25.9984464,80.1291735 L26.307932,80.1291735 L26.307932,80.8135861 C25.9901714,80.8466495 25.7402659,80.8846724 25.6492407,80.8846724 C24.783674,80.8846724 24.5933486,80.3986403 24.5933486,79.7687823 L24.5933486,76.3368004 L23.8866622,76.3368004 L23.8866622,75.6094054 L24.5933486,75.6094054 L24.5933486,74.1579217 L25.4721553,74.1579217 L25.4721553,75.6094054 L26.307932,75.6094054 L26.307932,76.3368004 L25.4721553,76.3368004" id="Fill-48" fill="#003C68"></path>
                <g id="Group-52" transform="translate(26.480052, 72.739501)">
                    <mask id="mask-4" fill="white">
                        <use xlink:href="#path-3"></use>
                    </mask>
                    <g id="Clip-50"></g>
                    <path d="M4.92859974,8.07408466 L4.05310301,8.07408466 L4.05310301,4.67351297 C4.05310301,3.965956 3.85284761,3.50802777 3.01707096,3.50802777 C2.29714454,3.50802777 1.56232309,3.92462674 1.56232309,5.23889727 L1.56232309,8.07408466 L0.685171354,8.07408466 L0.685171354,0.930734984 L1.56232309,0.930734984 L1.56232309,3.56754191 L1.58218313,3.56754191 C1.83043362,3.24021415 2.27066449,2.72111862 3.10644114,2.72111862 C3.91408273,2.72111862 4.92859974,3.05009955 4.92859974,4.53299347 L4.92859974,8.07408466" id="Fill-49" fill="#003C68" mask="url(#mask-4)"></path>
                    <path d="M9.81251439,5.06035486 C9.76120929,4.25360766 9.42524362,3.50802777 8.35776651,3.50802777 C7.55012492,3.50802777 6.91460366,4.25360766 6.91460366,5.06035486 L9.81251439,5.06035486 Z M10.649946,6.44405856 C10.618501,6.69203413 10.3785255,7.42934817 9.72479922,7.86578518 C9.48316874,8.02779588 9.14554807,8.22452317 8.30811642,8.22452317 C6.84343852,8.22452317 5.97621681,7.12020529 5.97621681,5.61747331 C5.97621681,4.00563209 6.75406835,2.72111862 8.47692675,2.72111862 C9.98132472,2.72111862 10.7194562,3.91636088 10.7194562,5.75799281 L6.91460366,5.75799281 C6.91460366,6.84247265 7.41937966,7.46902426 8.42727665,7.46902426 C9.25477829,7.46902426 9.74300425,6.83255362 9.77279431,6.44405856 L10.649946,6.44405856 Z" id="Fill-51" fill="#003C68" mask="url(#mask-4)"></path>
                </g>
                <path d="M42.0701831,79.988654 L44.1339722,79.988654 C45.1385592,79.988654 45.6483002,79.484437 45.6483002,78.6843025 C45.6483002,77.680828 44.7612184,77.4807944 43.9750919,77.4807944 L42.0701831,77.4807944 L42.0701831,79.988654 Z M42.0701831,76.6955384 L43.8162116,76.6955384 C44.7430134,76.6955384 45.3090245,76.4161526 45.3090245,75.5416254 C45.3090245,74.8737445 44.9018937,74.4951685 43.8261416,74.4951685 L42.0701831,74.4951685 L42.0701831,76.6955384 Z M41.1053162,73.6702364 L44.2531324,73.6702364 C45.5887201,73.6702364 46.2772014,74.4951685 46.2772014,75.4705391 C46.2772014,75.9383863 46.1067361,76.5963482 45.3189545,76.9650052 C45.7873205,77.1534666 46.6164771,77.4807944 46.6164771,78.7041405 C46.6164771,79.8497877 45.7674604,80.8135861 44.1836223,80.8135861 L41.1053162,80.8135861 L41.1053162,73.6702364 Z" id="Fill-53" fill="#003C68"></path>
                <g id="Group-66" transform="translate(47.294637, 72.739501)">
                    <mask id="mask-6" fill="white">
                        <use xlink:href="#path-5"></use>
                    </mask>
                    <g id="Clip-55"></g>
                    <polygon id="Fill-54" fill="#003C68" mask="url(#mask-6)" points="0.386007194 8.07573783 1.26150392 8.07573783 1.26150392 0.930734984 0.386007194 0.930734984"></polygon>
                    <path d="M5.97495324,8.07408466 L5.97495324,7.32023892 L5.9550932,7.2987477 C5.58768247,7.90711444 5.13917659,8.22452317 4.30339993,8.22452317 C3.53382341,8.22452317 2.60702158,7.85751932 2.60702158,6.61268195 L2.60702158,2.86990397 L3.48417332,2.86990397 L3.48417332,6.32503028 C3.48417332,7.18137259 3.92440419,7.46902426 4.49207031,7.46902426 C5.59595749,7.46902426 5.92530314,6.49365367 5.92530314,5.73650159 L5.92530314,2.86990397 L6.80245487,2.86990397 L6.80245487,8.07408466 L5.97495324,8.07408466" id="Fill-56" fill="#003C68" mask="url(#mask-6)"></path>
                    <path d="M11.7062296,5.06035486 C11.6565795,4.25360766 11.3173038,3.50802777 10.2514817,3.50802777 C9.44384009,3.50802777 8.80500883,4.25360766 8.80500883,5.06035486 L11.7062296,5.06035486 Z M12.5420062,6.44405856 C12.5122162,6.69203413 12.2738957,7.42934817 11.6152044,7.86578518 C11.3768839,8.02779588 11.0376082,8.22452317 10.2018316,8.22452317 C8.73549869,8.22452317 7.86993198,7.12020529 7.86993198,5.61747331 C7.86993198,4.00563209 8.64612852,2.72111862 10.3706419,2.72111862 C11.8750399,2.72111862 12.6131714,3.91636088 12.6131714,5.75799281 L8.80500883,5.75799281 C8.80500883,6.84247265 9.31474984,7.46902426 10.3209918,7.46902426 C11.1468385,7.46902426 11.6367194,6.83255362 11.6648545,6.44405856 L12.5420062,6.44405856 Z" id="Fill-57" fill="#003C68" mask="url(#mask-6)"></path>
                    <path d="M21.560119,3.07820345 C21.2903535,1.82510022 20.2443914,1.59530952 19.5575651,1.59530952 C18.2633525,1.59530952 17.2157354,2.55249523 17.2157354,4.43380325 C17.2157354,6.11507763 17.8131916,7.40951012 19.5857001,7.40951012 C20.2162564,7.40951012 21.3002835,7.11028626 21.6296292,5.44884992 L22.566361,5.44884992 C22.1691602,8.14517099 19.9746259,8.26585243 19.4400598,8.26585243 C17.8131916,8.26585243 16.2194235,7.20947649 16.2194235,4.46356031 C16.2194235,2.2631904 17.475571,0.740620378 19.5575651,0.740620378 C21.4012387,0.740620378 22.3561756,1.88461436 22.4968509,3.07820345 L21.560119,3.07820345" id="Fill-58" fill="#003C68" mask="url(#mask-6)"></path>
                    <path d="M24.6185651,8.07408466 L23.7430683,8.07408466 L23.7430683,2.86990397 L24.568915,2.86990397 L24.568915,3.7361653 L24.59043,3.7361653 C24.9379807,3.1311049 25.3964166,2.72111862 26.0551079,2.72111862 C26.1643381,2.72111862 26.2139882,2.73103764 26.2818434,2.75087569 L26.2818434,3.65681312 L25.9541527,3.65681312 C25.1365811,3.65681312 24.6185651,4.29493692 24.6185651,5.05043584 L24.6185651,8.07408466" id="Fill-59" fill="#003C68" mask="url(#mask-6)"></path>
                    <path d="M29.0639039,7.45745207 C30.3183963,7.45745207 30.5765768,6.16467275 30.5765768,5.46868797 C30.5765768,4.77105003 30.3183963,3.4782707 29.0639039,3.4782707 C27.8061014,3.4782707 27.5495759,4.77105003 27.5495759,5.46868797 C27.5495759,6.16467275 27.8061014,7.45745207 29.0639039,7.45745207 Z M29.0639039,2.72111862 C30.7271821,2.72111862 31.4851736,4.12631354 31.4851736,5.46868797 C31.4851736,6.81106241 30.7271821,8.21625732 29.0639039,8.21625732 C27.3989706,8.21625732 26.6409791,6.81106241 26.6409791,5.46868797 C26.6409791,4.12631354 27.3989706,2.72111862 29.0639039,2.72111862 Z" id="Fill-60" fill="#003C68" mask="url(#mask-6)"></path>
                    <path d="M35.4406315,4.35445106 C35.4290464,4.02547014 35.3115412,3.4782707 34.204344,3.4782707 C33.9362335,3.4782707 33.169967,3.56754191 33.169967,4.21393157 C33.169967,4.64210273 33.4364225,4.74129296 34.1149738,4.91156952 L34.9921256,5.12978802 C36.0778077,5.39925481 36.4568035,5.79601573 36.4568035,6.5035727 C36.4568035,7.57813351 35.5697217,8.22452317 34.3946694,8.22452317 C32.3308803,8.22452317 32.18193,7.02928091 32.15214,6.40438247 L32.9995016,6.40438247 C33.0292917,6.81106241 33.1467969,7.46902426 34.3847394,7.46902426 C35.0119856,7.46902426 35.5813067,7.21939552 35.5813067,6.64409219 C35.5813067,6.22584005 35.2900262,6.08532056 34.5436197,5.89685913 L33.5274477,5.64888355 C32.8009012,5.46868797 32.3209503,5.10003095 32.3209503,4.38420813 C32.3209503,3.24021415 33.2676122,2.72111862 34.2937142,2.72111862 C36.1572479,2.72111862 36.2863381,4.0949033 36.2863381,4.35445106 L35.4406315,4.35445106" id="Fill-61" fill="#003C68" mask="url(#mask-6)"></path>
                    <path d="M40.4221913,4.35445106 C40.4122613,4.02547014 40.291446,3.4782707 39.1859039,3.4782707 C38.9177933,3.4782707 38.1498718,3.56754191 38.1498718,4.21393157 C38.1498718,4.64210273 38.4196373,4.74129296 39.0965337,4.91156952 L39.9736854,5.12978802 C41.0610226,5.39925481 41.4383633,5.79601573 41.4383633,6.5035727 C41.4383633,7.57813351 40.5512816,8.22452317 39.3762292,8.22452317 C37.3140952,8.22452317 37.1634899,7.02928091 37.1353548,6.40438247 L37.9810615,6.40438247 C38.0108515,6.81106241 38.1300118,7.46902426 39.3662992,7.46902426 C39.9935455,7.46902426 40.5612116,7.21939552 40.5612116,6.64409219 C40.5612116,6.22584005 40.273241,6.08532056 39.5251795,5.89685913 L38.5106625,5.64888355 C37.7824611,5.46868797 37.3025101,5.10003095 37.3025101,4.38420813 C37.3025101,3.24021415 38.250827,2.72111862 39.276929,2.72111862 C41.1421177,2.72111862 41.269553,4.0949033 41.269553,4.35445106 L40.4221913,4.35445106" id="Fill-62" fill="#003C68" mask="url(#mask-6)"></path>
                    <path d="M48.3926871,5.41909286 C48.2536668,5.52985528 48.0352063,5.60755429 46.9478692,5.74642061 C46.5208784,5.80593475 45.834052,5.93488205 45.834052,6.5928439 C45.834052,7.16153455 46.1220226,7.5004345 46.7807139,7.5004345 C47.5966305,7.5004345 48.3926871,6.97141994 48.3926871,6.273782 L48.3926871,5.41909286 Z M45.1852907,4.45364129 C45.2250108,3.20880392 46.0525124,2.72111862 47.33845,2.72111862 C47.7571658,2.72111862 49.2698388,2.8401469 49.2698388,4.17425548 L49.2698388,7.17145357 C49.2698388,7.38967208 49.380724,7.47894328 49.5594644,7.47894328 C49.6389045,7.47894328 49.7497897,7.45745207 49.8490899,7.43926719 L49.8490899,8.07408466 C49.6984846,8.11541392 49.5710494,8.17492806 49.369139,8.17492806 C48.5929424,8.17492806 48.4737822,7.77816714 48.4423371,7.37975305 C48.1047165,7.74841007 47.5767704,8.22452317 46.5605984,8.22452317 C45.6040065,8.22452317 44.9254552,7.6178096 44.9254552,6.72344437 C44.9254552,6.28370102 45.0562005,5.27030751 46.5109483,5.09011193 L47.9541112,4.91156952 C48.1642966,4.8900783 48.4142021,4.81237929 48.4142021,4.29493692 C48.4142021,3.74608432 48.0136913,3.44851364 47.1861897,3.44851364 C46.1915327,3.44851364 46.0525124,4.0552272 45.9912773,4.45364129 L45.1852907,4.45364129 Z" id="Fill-63" fill="#003C68" mask="url(#mask-6)"></path>
                    <path d="M55.0011151,8.07408466 L54.1239634,8.07408466 L54.1239634,4.87189342 C54.1239634,3.965956 53.8641279,3.50802777 53.0068362,3.50802777 C52.5086802,3.50802777 51.6315284,3.82543651 51.6315284,5.23889727 L51.6315284,8.07408466 L50.7543767,8.07408466 L50.7543767,2.86990397 L51.5835334,2.86990397 L51.5835334,3.607218 L51.6017384,3.607218 C51.7920638,3.32783219 52.2802897,2.72111862 53.1756465,2.72111862 C53.9832881,2.72111862 55.0011151,3.05009955 55.0011151,4.53299347 L55.0011151,8.07408466" id="Fill-64" fill="#003C68" mask="url(#mask-6)"></path>
                    <path d="M58.3078116,7.46902426 C58.8655477,7.46902426 59.7327695,7.10036724 59.7327695,5.71666354 C59.7327695,4.87189342 59.5937492,3.50802777 58.3293267,3.50802777 C56.972224,3.50802777 56.9027139,4.79088807 56.9027139,5.45876895 C56.9027139,6.6044161 57.3528748,7.46902426 58.3078116,7.46902426 Z M60.6215062,8.07408466 L59.7923496,8.07408466 L59.7923496,7.35991501 L59.7724895,7.35991501 C59.3934938,8.06581881 58.7960376,8.22452317 58.2879516,8.22452317 C56.5137881,8.22452317 55.9957721,6.56308683 55.9957721,5.31990263 C55.9957721,3.85684675 56.7835536,2.72111862 58.1687914,2.72111862 C59.1137982,2.72111862 59.512654,3.30799414 59.7228394,3.607218 L59.7426995,3.607218 L59.7426995,0.930734984 L60.6215062,0.930734984 L60.6215062,8.07408466 Z" id="Fill-65" fill="#003C68" mask="url(#mask-6)"></path>
                </g>
                <path d="M112.955628,79.988654 L115.017762,79.988654 C116.024004,79.988654 116.533745,79.484437 116.533745,78.6843025 C116.533745,77.680828 115.646664,77.4807944 114.858882,77.4807944 L112.955628,77.4807944 L112.955628,79.988654 Z M112.955628,76.6955384 L114.700002,76.6955384 C115.626803,76.6955384 116.19447,76.4161526 116.19447,75.5416254 C116.19447,74.8737445 115.785684,74.4951685 114.709932,74.4951685 L112.955628,74.4951685 L112.955628,76.6955384 Z M111.990761,73.6702364 L115.138578,73.6702364 C116.474165,73.6702364 117.160991,74.4951685 117.160991,75.4705391 C117.160991,75.9383863 116.992181,76.5963482 116.2044,76.9650052 C116.674421,77.1534666 117.500267,77.4807944 117.500267,78.7041405 C117.500267,79.8497877 116.652905,80.8135861 115.067412,80.8135861 L111.990761,80.8135861 L111.990761,73.6702364 Z" id="Fill-67" fill="#003C68"></path>
                <g id="Group-73" transform="translate(118.459778, 72.739501)">
                    <mask id="mask-8" fill="white">
                        <use xlink:href="#path-7"></use>
                    </mask>
                    <g id="Clip-69"></g>
                    <polygon id="Fill-68" fill="#003C68" mask="url(#mask-8)" points="0.106311642 8.07573783 0.981808371 8.07573783 0.981808371 0.930734984 0.106311642 0.930734984"></polygon>
                    <path d="M5.69691269,8.07408466 L5.69691269,7.32023892 L5.67705265,7.2987477 C5.30798692,7.90711444 4.85782603,8.22452317 4.02039438,8.22452317 C3.25412786,8.22452317 2.32732603,7.85751932 2.32732603,6.61268195 L2.32732603,2.86990397 L3.20447776,2.86990397 L3.20447776,6.32503028 C3.20447776,7.18137259 3.64305363,7.46902426 4.21071975,7.46902426 C5.31791694,7.46902426 5.64726259,6.49365367 5.64726259,5.73650159 L5.64726259,2.86990397 L6.52110432,2.86990397 L6.52110432,8.07408466 L5.69691269,8.07408466" id="Fill-70" fill="#003C68" mask="url(#mask-8)"></path>
                    <path d="M11.424879,5.06035486 C11.3752289,4.25360766 11.0376082,3.50802777 9.97178613,3.50802777 C9.16248954,3.50802777 8.52696828,4.25360766 8.52696828,5.06035486 L11.424879,5.06035486 Z M12.2623107,6.44405856 C12.2325206,6.69203413 11.9925451,7.42934817 11.3338538,7.86578518 C11.0971884,8.02779588 10.7579127,8.22452317 9.92048103,8.22452317 C8.45580314,8.22452317 7.58858143,7.12020529 7.58858143,5.61747331 C7.58858143,4.00563209 8.36643296,2.72111862 10.0909464,2.72111862 C11.5953443,2.72111862 12.3334758,3.91636088 12.3334758,5.75799281 L8.52696828,5.75799281 C8.52696828,6.84247265 9.03339928,7.46902426 10.0412963,7.46902426 C10.8671429,7.46902426 11.3553689,6.83255362 11.3851589,6.44405856 L12.2623107,6.44405856 Z" id="Fill-71" fill="#003C68" mask="url(#mask-8)"></path>
                    <path d="M20.5720821,3.02034248 C20.522432,1.91437142 19.6055602,1.56720562 18.7995736,1.56720562 C18.1921874,1.56720562 17.1644303,1.73582901 17.1644303,2.82196202 C17.1644303,3.42702242 17.5930762,3.62705605 18.011792,3.72624628 L20.0524111,4.19409353 C20.9808679,4.4139652 21.6776243,4.97108365 21.6776243,6.10515861 C21.6776243,7.79635202 20.1037162,8.26585243 18.8790137,8.26585243 C17.5533561,8.26585243 17.0353401,7.86578518 16.7159245,7.57813351 C16.1085383,7.02928091 15.989378,6.43413953 15.989378,5.76791183 L16.8963198,5.76791183 C16.8963198,7.06069115 17.9505569,7.43926719 18.8690837,7.43926719 C19.5658401,7.43926719 20.7425474,7.26072478 20.7425474,6.23410591 C20.7425474,5.48852602 20.3933417,5.2488163 19.2182894,4.97108365 L17.7536115,4.63053053 C17.2835906,4.52307445 16.2276985,4.19409353 16.2276985,2.95090932 C16.2276985,1.83501924 16.9558999,0.740620378 18.6903434,0.740620378 C21.1893983,0.740620378 21.4393038,2.23343333 21.4806789,3.02034248 L20.5720821,3.02034248" id="Fill-72" fill="#003C68" mask="url(#mask-8)"></path>
                </g>
                <path d="M145.499612,80.8135861 L144.622461,80.8135861 L144.622461,77.4130144 C144.622461,76.7054574 144.42386,76.2475292 143.586429,76.2475292 C142.868157,76.2475292 142.131681,76.6641282 142.131681,77.9783987 L142.131681,80.8135861 L141.252874,80.8135861 L141.252874,73.6702364 L142.131681,73.6702364 L142.131681,76.3070433 L142.151541,76.3070433 C142.398136,75.9797156 142.838367,75.46062 143.675799,75.46062 C144.481785,75.46062 145.499612,75.789601 145.499612,77.2724949 L145.499612,80.8135861" id="Fill-74" fill="#003C68"></path>
                <g id="Group-87" transform="translate(146.594833, 72.739501)">
                    <mask id="mask-10" fill="white">
                        <use xlink:href="#path-9"></use>
                    </mask>
                    <g id="Clip-76"></g>
                    <path d="M0.218851864,8.07408466 L1.0960036,8.07408466 L1.0960036,2.86990397 L0.218851864,2.86990397 L0.218851864,8.07408466 Z M0.218851864,1.92594362 L1.0960036,1.92594362 L1.0960036,0.930734984 L0.218851864,0.930734984 L0.218851864,1.92594362 Z" id="Fill-75" fill="#003C68" mask="url(#mask-10)"></path>
                    <path d="M5.99812328,5.06035486 C5.94847319,4.25360766 5.60919751,3.50802777 4.54337541,3.50802777 C3.73738882,3.50802777 3.09855755,4.25360766 3.09855755,5.06035486 L5.99812328,5.06035486 Z M6.83555494,6.44405856 C6.80576488,6.69203413 6.56744441,7.42934817 5.90875311,7.86578518 C5.66877763,8.02779588 5.32950196,8.22452317 4.49538031,8.22452317 C3.02904742,8.22452317 2.16348071,7.12020529 2.16348071,5.61747331 C2.16348071,4.00563209 2.93802224,2.72111862 4.66419065,2.72111862 C6.16858862,2.72111862 6.90506508,3.91636088 6.90506508,5.75799281 L3.09855755,5.75799281 C3.09855755,6.84247265 3.60829856,7.46902426 4.61454055,7.46902426 C5.44038718,7.46902426 5.92861315,6.83255362 5.9584032,6.44405856 L6.83555494,6.44405856 Z" id="Fill-77" fill="#003C68" mask="url(#mask-10)"></path>
                    <polygon id="Fill-78" fill="#003C68" mask="url(#mask-10)" points="7.97088718 8.07573783 8.84803891 8.07573783 8.84803891 0.930734984 7.97088718 0.930734984"></polygon>
                    <path d="M12.1762505,7.46902426 C12.7339866,7.46902426 13.5995533,7.10036724 13.5995533,5.71666354 C13.5995533,4.87189342 13.460533,3.50802777 12.1961105,3.50802777 C10.8406629,3.50802777 10.7711527,4.79088807 10.7711527,5.45876895 C10.7711527,6.6044161 11.2196586,7.46902426 12.1762505,7.46902426 Z M14.4882901,8.07408466 L13.6591334,8.07408466 L13.6591334,7.35991501 L13.6409284,7.35991501 C13.2602776,8.06581881 12.6644765,8.22452317 12.1547354,8.22452317 C10.3822269,8.22452317 9.86421092,6.56308683 9.86421092,5.31990263 C9.86421092,3.85684675 10.6519925,2.72111862 12.0372302,2.72111862 C12.9838921,2.72111862 13.3810929,3.30799414 13.5912783,3.607218 L13.6111383,3.607218 L13.6111383,0.930734984 L14.4882901,0.930734984 L14.4882901,8.07408466 Z" id="Fill-79" fill="#003C68" mask="url(#mask-10)"></path>
                    <path d="M22.2303954,5.13970704 L21.1728483,1.99537678 L21.1546432,1.99537678 L20.009381,5.13970704 L22.2303954,5.13970704 Z M19.7081704,5.99604936 L18.9617639,8.07408466 L17.9654519,8.07408466 L20.6564872,0.930734984 L21.7520994,0.930734984 L24.3421795,8.07408466 L23.2862874,8.07408466 L22.577946,5.99604936 L19.7081704,5.99604936 Z" id="Fill-80" fill="#003C68" mask="url(#mask-10)"></path>
                    <path d="M28.0775219,4.35445106 C28.0692469,4.02547014 27.9484317,3.4782707 26.8428895,3.4782707 C26.5747789,3.4782707 25.8068574,3.56754191 25.8068574,4.21393157 C25.8068574,4.64210273 26.076623,4.74129296 26.7518643,4.91156952 L27.630671,5.12978802 C28.7163532,5.39925481 29.0953489,5.79601573 29.0953489,6.5035727 C29.0953489,7.57813351 28.2099222,8.22452317 27.0332148,8.22452317 C24.9710808,8.22452317 24.8204755,7.02928091 24.7906854,6.40438247 L25.6380471,6.40438247 C25.6678371,6.81106241 25.7869974,7.46902426 27.0232848,7.46902426 C27.6488761,7.46902426 28.2181972,7.21939552 28.2181972,6.64409219 C28.2181972,6.22584005 27.9285716,6.08532056 27.1805101,5.89685913 L26.1676481,5.64888355 C25.4377917,5.46868797 24.9611508,5.10003095 24.9611508,4.38420813 C24.9611508,3.24021415 25.9061576,2.72111862 26.9322596,2.72111862 C28.7957933,2.72111862 28.9265386,4.0949033 28.9265386,4.35445106 L28.0775219,4.35445106" id="Fill-81" fill="#003C68" mask="url(#mask-10)"></path>
                    <path d="M33.0607368,4.35445106 C33.0508067,4.02547014 32.9316465,3.4782707 31.8277593,3.4782707 C31.5579938,3.4782707 30.7900723,3.56754191 30.7900723,4.21393157 C30.7900723,4.64210273 31.0581828,4.74129296 31.7350791,4.91156952 L32.6122309,5.12978802 C33.697913,5.39925481 34.0769088,5.79601573 34.0769088,6.5035727 C34.0769088,7.57813351 33.189827,8.22452317 32.0147747,8.22452317 C29.9509856,8.22452317 29.8020353,7.02928091 29.7722453,6.40438247 L30.6212619,6.40438247 C30.649397,6.81106241 30.7685572,7.46902426 32.0048447,7.46902426 C32.6320909,7.46902426 33.199757,7.21939552 33.199757,6.64409219 C33.199757,6.22584005 32.9117865,6.08532056 32.16207,5.89685913 L31.147553,5.64888355 C30.4210065,5.46868797 29.9410556,5.10003095 29.9410556,4.38420813 C29.9410556,3.24021415 30.8893725,2.72111862 31.9154745,2.72111862 C33.7790082,2.72111862 33.9080984,4.0949033 33.9080984,4.35445106 L33.0607368,4.35445106" id="Fill-82" fill="#003C68" mask="url(#mask-10)"></path>
                    <path d="M37.2065199,7.45745207 C38.4610124,7.45745207 38.7208479,6.16467275 38.7208479,5.46868797 C38.7208479,4.77105003 38.4610124,3.4782707 37.2065199,3.4782707 C35.9520275,3.4782707 35.692192,4.77105003 35.692192,5.46868797 C35.692192,6.16467275 35.9520275,7.45745207 37.2065199,7.45745207 Z M37.2065199,2.72111862 C38.8697982,2.72111862 39.6261347,4.12631354 39.6261347,5.46868797 C39.6261347,6.81106241 38.8697982,8.21625732 37.2065199,8.21625732 C35.5415867,8.21625732 34.7852502,6.81106241 34.7852502,5.46868797 C34.7852502,4.12631354 35.5415867,2.72111862 37.2065199,2.72111862 Z" id="Fill-83" fill="#003C68" mask="url(#mask-10)"></path>
                    <path d="M43.8811481,4.62226468 C43.7719179,3.92462674 43.3829922,3.50802777 42.6465157,3.50802777 C41.5591785,3.50802777 41.2116279,4.54456567 41.2116279,5.46868797 C41.2116279,6.36470637 41.4300883,7.46902426 42.6349307,7.46902426 C43.2224568,7.46902426 43.7321978,7.02928091 43.8811481,6.23410591 L44.7301648,6.23410591 C44.6391396,7.06069115 44.1310536,8.22452317 42.6067956,8.22452317 C41.1421177,8.22452317 40.274896,7.12020529 40.274896,5.61747331 C40.274896,4.00563209 41.0527475,2.72111862 42.775606,2.72111862 C44.1409836,2.72111862 44.6606547,3.71632725 44.7301648,4.62226468 L43.8811481,4.62226468" id="Fill-84" fill="#003C68" mask="url(#mask-10)"></path>
                    <path d="M45.6271766,8.07408466 L46.5026733,8.07408466 L46.5026733,2.86990397 L45.6271766,2.86990397 L45.6271766,8.07408466 Z M45.6271766,1.92594362 L46.5026733,1.92594362 L46.5026733,0.930734984 L45.6271766,0.930734984 L45.6271766,1.92594362 Z" id="Fill-85" fill="#003C68" mask="url(#mask-10)"></path>
                    <path d="M50.9976622,5.41909286 C50.8569869,5.52985528 50.6368715,5.60755429 49.5511893,5.74642061 C49.1225435,5.80593475 48.4357171,5.93488205 48.4357171,6.5928439 C48.4357171,7.16153455 48.7253427,7.5004345 49.382379,7.5004345 C50.1982956,7.5004345 50.9976622,6.97141994 50.9976622,6.273782 L50.9976622,5.41909286 Z M47.7886109,4.45364129 C47.8299859,3.20880392 48.6541776,2.72111862 49.9401151,2.72111862 C50.3588309,2.72111862 51.8715039,2.8401469 51.8715039,4.17425548 L51.8715039,7.17145357 C51.8715039,7.38967208 51.9823891,7.47894328 52.1627845,7.47894328 C52.2422247,7.47894328 52.3514549,7.45745207 52.4524101,7.43926719 L52.4524101,8.07408466 C52.3018048,8.11541392 52.1727145,8.17492806 51.9724591,8.17492806 C51.1962626,8.17492806 51.0771024,7.77816714 51.0456573,7.37975305 C50.7063816,7.74841007 50.1784356,8.22452317 49.1622636,8.22452317 C48.2073267,8.22452317 47.5287753,7.6178096 47.5287753,6.72344437 C47.5287753,6.28370102 47.6595206,5.27030751 49.1109585,5.09011193 L50.5574313,4.91156952 C50.7676167,4.8900783 51.0158672,4.81237929 51.0158672,4.29493692 C51.0158672,3.74608432 50.6170114,3.44851364 49.7928198,3.44851364 C48.7948528,3.44851364 48.6541776,4.0552272 48.5929424,4.45364129 L47.7886109,4.45364129 Z" id="Fill-86" fill="#003C68" mask="url(#mask-10)"></path>
                </g>
                <path d="M201.028282,76.3368004 L201.028282,79.7208404 C201.028282,80.1291735 201.377488,80.1291735 201.556228,80.1291735 L201.865714,80.1291735 L201.865714,80.8135861 C201.546298,80.8466495 201.298048,80.8846724 201.207023,80.8846724 C200.341456,80.8846724 200.152785,80.3986403 200.152785,79.7687823 L200.152785,76.3368004 L199.444444,76.3368004 L199.444444,75.6094054 L200.152785,75.6094054 L200.152785,74.1579217 L201.028282,74.1579217 L201.028282,75.6094054 L201.865714,75.6094054 L201.865714,76.3368004 L201.028282,76.3368004" id="Fill-88" fill="#003C68"></path>
                <g id="Group-92" transform="translate(201.910399, 72.739501)">
                    <mask id="mask-12" fill="white">
                        <use xlink:href="#path-11"></use>
                    </mask>
                    <g id="Clip-90"></g>
                    <path d="M0.830811642,8.07408466 L1.70796337,8.07408466 L1.70796337,2.86990397 L0.830811642,2.86990397 L0.830811642,8.07408466 Z M0.830811642,1.92594362 L1.70796337,1.92594362 L1.70796337,0.930734984 L0.830811642,0.930734984 L0.830811642,1.92594362 Z" id="Fill-89" fill="#003C68" mask="url(#mask-12)"></path>
                    <path d="M5.14706017,7.45745207 C6.40320765,7.45745207 6.66138816,6.16467275 6.66138816,5.46868797 C6.66138816,4.77105003 6.40320765,3.4782707 5.14706017,3.4782707 C3.89091269,3.4782707 3.63107717,4.77105003 3.63107717,5.46868797 C3.63107717,6.16467275 3.89091269,7.45745207 5.14706017,7.45745207 Z M5.14706017,2.72111862 C6.81199346,2.72111862 7.56667495,4.12631354 7.56667495,5.46868797 C7.56667495,6.81106241 6.81199346,8.21625732 5.14706017,8.21625732 C3.48212688,8.21625732 2.72413538,6.81106241 2.72413538,5.46868797 C2.72413538,4.12631354 3.48212688,2.72111862 5.14706017,2.72111862 Z" id="Fill-91" fill="#003C68" mask="url(#mask-12)"></path>
                </g>
                <path d="M214.718469,80.8135861 L213.842973,80.8135861 L213.842973,77.6113948 C213.842973,76.7054574 213.583137,76.2475292 212.7275,76.2475292 C212.227689,76.2475292 211.352193,76.5649379 211.352193,77.9783987 L211.352193,80.8135861 L210.475041,80.8135861 L210.475041,75.6094054 L211.300888,75.6094054 L211.300888,76.3467194 L211.322403,76.3467194 C211.511073,76.0673336 211.999299,75.46062 212.896311,75.46062 C213.702297,75.46062 214.718469,75.789601 214.718469,77.2724949 L214.718469,80.8135861" id="Fill-93" fill="#003C68"></path>
                <path d="M108.664205,9.77685026 L111.353585,9.77685026 C112.421062,9.77685026 113.035068,9.30900301 113.035068,8.24270805 C113.035068,7.32519843 112.245632,6.97307311 111.456195,6.97307311 L108.664205,6.97307311 L108.664205,9.77685026 Z M108.664205,5.20583386 L111.237735,5.20583386 C112.099991,5.20583386 112.786818,4.87024025 112.786818,4.04034867 C112.786818,3.17904685 112.172812,2.91453957 111.17981,2.91453957 L108.664205,2.91453957 L108.664205,5.20583386 Z M106.560696,1.10597106 L111.661416,1.10597106 C114.233291,1.10597106 114.890327,2.70954643 114.890327,3.79071993 C114.890327,5.29510507 114.042965,5.71831671 113.604389,5.93653522 C114.890327,6.419261 115.226293,7.44092036 115.226293,8.47745826 C115.226293,9.30900301 114.877087,10.0975653 114.321006,10.6381521 C113.721895,11.2217213 113.152574,11.5854188 111.002724,11.5854188 L106.560696,11.5854188 L106.560696,1.10597106 Z" id="Fill-94" fill="#003C68"></path>
                <polygon id="Fill-95" fill="#003C68" points="116.030624 11.5854188 118.077863 11.5854188 118.077863 1.10597106 116.030624 1.10597106"></polygon>
                <path d="M126.069874,11.5854188 L124.112005,11.5854188 L124.112005,10.4910199 L124.08387,10.4910199 C123.615504,11.3242178 122.796278,11.7920651 121.71556,11.7920651 C120.179717,11.7920651 119.070865,10.9158847 119.070865,8.9287738 L119.070865,3.820477 L121.116449,3.820477 L121.116449,8.63781579 C121.116449,9.8363644 121.816516,10.0694614 122.447072,10.0694614 C123.119003,10.0694614 124.02429,9.68923222 124.02429,8.30222219 L124.02429,3.820477 L126.069874,3.820477 L126.069874,11.5854188" id="Fill-96" fill="#003C68"></path>
                <path d="M132.252966,6.93009068 C132.135461,5.67533428 131.332784,5.29510507 130.674093,5.29510507 C129.709226,5.29510507 129.19783,5.90843132 129.08198,6.93009068 L132.252966,6.93009068 Z M134.26876,9.30900301 C133.729229,11.1770857 132.180146,11.7920651 130.847869,11.7920651 C128.656644,11.7920651 126.976816,10.7389955 126.976816,7.54341693 C126.976816,6.60937561 127.297887,3.61548385 130.703883,3.61548385 C132.238071,3.61548385 134.356475,4.34618521 134.356475,7.89388907 L134.356475,8.25758658 L129.024055,8.25758658 C129.08198,8.84280893 129.19783,10.1570795 130.847869,10.1570795 C131.418845,10.1570795 132.003061,9.86612147 132.163596,9.30900301 L134.26876,9.30900301 Z" id="Fill-97" fill="#003C68"></path>
                <path d="M145.259637,4.53795299 C145.084207,3.90809503 144.746586,2.72442496 142.936012,2.72442496 C141.881775,2.72442496 140.334347,3.42702242 140.334347,6.3911571 C140.334347,8.27246512 141.079099,9.96696487 142.936012,9.96696487 C144.147475,9.96696487 144.996491,9.28089911 145.259637,7.9930793 L147.452516,7.9930793 C147.012285,10.2728014 145.522783,11.8631514 142.891327,11.8631514 C140.100992,11.8631514 138.096783,9.9818434 138.096783,6.36140003 C138.096783,2.69466789 140.216842,0.828238414 142.921117,0.828238414 C146.062314,0.828238414 147.333356,2.98727907 147.452516,4.53795299 L145.259637,4.53795299" id="Fill-98" fill="#003C68"></path>
                <path d="M148.255193,3.820477 L150.213062,3.820477 L150.213062,5.16285143 L150.241197,5.16285143 C150.666533,4.37594228 151.133244,3.61548385 152.376151,3.61548385 C152.506896,3.61548385 152.637642,3.63036239 152.770042,3.64524092 L152.770042,5.71831671 C152.594612,5.69021282 152.376151,5.69021282 152.185826,5.69021282 C150.593713,5.69021282 150.300777,6.68211511 150.300777,7.54341693 L150.300777,11.5854188 L148.255193,11.5854188 L148.255193,3.820477" id="Fill-99" fill="#003C68"></path>
                <path d="M156.790045,5.3380875 C155.211172,5.3380875 154.916581,6.71187218 154.916581,7.70542764 C154.916581,8.69732993 155.211172,10.0694614 156.790045,10.0694614 C158.367263,10.0694614 158.660198,8.69732993 158.660198,7.70542764 C158.660198,6.71187218 158.367263,5.3380875 156.790045,5.3380875 Z M156.790045,11.7920651 C154.698121,11.7920651 152.814727,10.5058984 152.814727,7.70542764 C152.814727,4.89834415 154.698121,3.61548385 156.790045,3.61548385 C158.878659,3.61548385 160.765363,4.89834415 160.765363,7.70542764 C160.765363,10.5058984 158.878659,11.7920651 156.790045,11.7920651 Z" id="Fill-100" fill="#003C68"></path>
                <path d="M165.907458,6.18616396 C165.819743,5.69021282 165.644312,5.16285143 164.533805,5.16285143 C163.423298,5.16285143 163.277658,5.58771625 163.277658,5.92330985 C163.277658,7.14996236 168.141712,6.25890346 168.141712,9.12054158 C168.141712,11.3820788 165.952143,11.7920651 164.739026,11.7920651 C162.969827,11.7920651 161.056643,11.1770857 160.997063,9.10400987 L163.102227,9.10400987 C163.102227,9.7636249 163.511013,10.2446975 164.796951,10.2446975 C165.849533,10.2446975 166.097783,9.73221466 166.097783,9.44125665 C166.097783,8.14021148 161.275104,9.12054158 161.275104,6.21426786 C161.275104,5.07688657 161.990065,3.61548385 164.417955,3.61548385 C165.935593,3.61548385 167.749476,3.99571307 167.910012,6.18616396 L165.907458,6.18616396" id="Fill-101" fill="#003C68"></path>
                <path d="M173.345043,6.18616396 C173.258982,5.69021282 173.085207,5.16285143 171.9747,5.16285143 C170.860883,5.16285143 170.715242,5.58771625 170.715242,5.92330985 C170.715242,7.14996236 175.582607,6.25890346 175.582607,9.12054158 C175.582607,11.3820788 173.389728,11.7920651 172.178265,11.7920651 C170.409067,11.7920651 168.494228,11.1770857 168.434648,9.10400987 L170.539812,9.10400987 C170.539812,9.7636249 170.948598,10.2446975 172.234535,10.2446975 C173.287117,10.2446975 173.535368,9.73221466 173.535368,9.44125665 C173.535368,8.14021148 168.712688,9.12054158 168.712688,6.21426786 C168.712688,5.07688657 169.43096,3.61548385 171.85554,3.61548385 C173.374833,3.61548385 175.187061,3.99571307 175.349251,6.18616396 L173.345043,6.18616396" id="Fill-102" fill="#003C68"></path>
                <path d="M108.664205,23.0815663 L111.353585,23.0815663 C112.421062,23.0815663 113.035068,22.6153723 113.035068,21.5490773 C113.035068,20.6299145 112.245632,20.2794424 111.456195,20.2794424 L108.664205,20.2794424 L108.664205,23.0815663 Z M108.664205,18.5122031 L111.237735,18.5122031 C112.099991,18.5122031 112.786818,18.1782627 112.786818,17.3450647 C112.786818,16.4837629 112.172812,16.2209088 111.17981,16.2209088 L108.664205,16.2209088 L108.664205,18.5122031 Z M106.560696,14.4106871 L111.661416,14.4106871 C114.233291,14.4106871 114.890327,16.0159157 114.890327,17.0970892 C114.890327,18.5998211 114.042965,19.0230328 113.604389,19.2429045 C114.890327,19.7256302 115.226293,20.7472896 115.226293,21.7821743 C115.226293,22.6153723 114.877087,23.4039346 114.321006,23.9445213 C113.721895,24.5264373 113.152574,24.891788 111.002724,24.891788 L106.560696,24.891788 L106.560696,14.4106871 Z" id="Fill-103" fill="#003C68"></path>
                <polygon id="Fill-104" fill="#003C68" points="116.030624 24.891788 118.077863 24.891788 118.077863 14.4106871 116.030624 14.4106871"></polygon>
                <path d="M126.069874,24.891788 L124.112005,24.891788 L124.112005,23.7990423 L124.08387,23.7990423 C123.615504,24.6272807 122.796278,25.0967812 121.71556,25.0967812 C120.179717,25.0967812 119.070865,24.2206008 119.070865,22.235143 L119.070865,17.1251931 L121.116449,17.1251931 L121.116449,21.9425319 C121.116449,23.1410805 121.816516,23.3741775 122.447072,23.3741775 C123.119003,23.3741775 124.02429,22.9956015 124.02429,21.6069383 L124.02429,17.1251931 L126.069874,17.1251931 L126.069874,24.891788" id="Fill-105" fill="#003C68"></path>
                <path d="M132.252966,20.2348068 C132.135461,18.9783972 131.332784,18.5998211 130.674093,18.5998211 C129.709226,18.5998211 129.19783,19.2148006 129.08198,20.2348068 L132.252966,20.2348068 Z M134.26876,22.6153723 C133.729229,24.4818017 132.180146,25.0967812 130.847869,25.0967812 C128.656644,25.0967812 126.976816,24.0453647 126.976816,20.8497862 C126.976816,19.9124385 127.297887,16.9218531 130.703883,16.9218531 C132.238071,16.9218531 134.356475,17.6542076 134.356475,21.1986052 L134.356475,21.5623027 L129.024055,21.5623027 C129.08198,22.147525 129.19783,23.4617955 130.847869,23.4617955 C131.418845,23.4617955 132.003061,23.1691844 132.163596,22.6153723 L134.26876,22.6153723 Z" id="Fill-106" fill="#003C68"></path>
                <path d="M140.129127,21.6647992 C140.144022,22.2483684 140.435302,23.359299 142.350141,23.359299 C143.387828,23.359299 144.543021,23.1113234 144.543021,22.002046 C144.543021,21.1837266 143.753584,20.9655081 142.643077,20.7043072 L141.517675,20.4397999 C139.821296,20.0446922 138.184498,19.6661161 138.184498,17.3599433 C138.184498,16.1911517 138.813399,14.1346077 142.221051,14.1346077 C145.435067,14.1346077 146.295669,16.2357874 146.310564,17.5203008 L144.207055,17.5203008 C144.147475,17.0524536 143.972044,15.9431762 142.058861,15.9431762 C141.223084,15.9431762 140.231737,16.2506659 140.231737,17.1979326 C140.231737,18.016252 140.902013,18.191488 141.342244,18.2956378 L143.899224,18.9188831 C145.332457,19.2710084 146.644875,19.8545775 146.644875,21.7391919 C146.644875,24.891788 143.430858,25.1711738 142.510677,25.1711738 C138.680999,25.1711738 138.023963,22.9658444 138.023963,21.6647992 L140.129127,21.6647992" id="Fill-107" fill="#003C68"></path>
                <path d="M154.494555,24.891788 L152.448971,24.891788 L152.448971,20.1769458 C152.448971,19.6082551 152.419181,18.6444568 151.120004,18.6444568 C150.213062,18.6444568 149.509685,19.2561298 149.509685,20.4397999 L149.509685,24.891788 L147.465756,24.891788 L147.465756,14.4106871 L149.509685,14.4106871 L149.509685,18.1336271 L149.539475,18.1336271 C149.804276,17.4921969 150.679773,16.9218531 151.79028,16.9218531 C153.309573,16.9218531 154.494555,17.8112588 154.494555,19.5206371 L154.494555,24.891788" id="Fill-108" fill="#003C68"></path>
                <path d="M155.767253,24.891788 L157.812837,24.891788 L157.812837,17.1251931 L155.767253,17.1251931 L155.767253,24.891788 Z M155.767253,16.2060303 L157.812837,16.2060303 L157.812837,14.3098437 L155.767253,14.3098437 L155.767253,16.2060303 Z" id="Fill-109" fill="#003C68"></path>
                <path d="M163.744369,20.2348068 C163.628518,18.9783972 162.824187,18.5998211 162.16715,18.5998211 C161.202284,18.5998211 160.690888,19.2148006 160.573382,20.2348068 L163.744369,20.2348068 Z M165.761818,22.6153723 C165.220631,24.4818017 163.673203,25.0967812 162.340926,25.0967812 C160.149701,25.0967812 158.469873,24.0453647 158.469873,20.8497862 C158.469873,19.9124385 158.790944,16.9218531 162.19694,16.9218531 C163.731129,16.9218531 165.849533,17.6542076 165.849533,21.1986052 L165.849533,21.5623027 L160.515457,21.5623027 C160.573382,22.147525 160.690888,23.4617955 162.340926,23.4617955 C162.911902,23.4617955 163.497773,23.1691844 163.658308,22.6153723 L165.761818,22.6153723 Z" id="Fill-110" fill="#003C68"></path>
                <polygon id="Fill-111" fill="#003C68" points="166.581044 24.891788 168.626628 24.891788 168.626628 14.4106871 166.581044 14.4106871"></polygon>
                <path d="M173.227537,23.4188131 C174.53168,23.4188131 175.043076,22.3376396 175.043076,21.1837266 C175.043076,19.9421956 174.692215,18.6874392 173.287117,18.6874392 C171.98794,18.6874392 171.549364,19.839699 171.549364,21.0680047 C171.549364,21.9871675 171.913465,23.4188131 173.227537,23.4188131 Z M177.000945,24.891788 L174.998391,24.891788 L174.998391,23.9131111 L174.968601,23.9131111 C174.4721,24.7909446 173.565158,25.0967812 172.717796,25.0967812 C170.409067,25.0967812 169.445855,23.0534624 169.445855,20.9241789 C169.445855,18.2361236 170.965148,16.9218531 172.674766,16.9218531 C173.988839,16.9218531 174.6045,17.6376759 174.925571,18.1336271 L174.953706,18.1336271 L174.953706,14.4106871 L177.000945,14.4106871 L177.000945,24.891788 Z" id="Fill-112" fill="#003C68"></path>
                <path d="M108.406024,36.1763298 C109.743267,36.1763298 110.021307,34.7975856 110.021307,34.0536589 C110.021307,33.3113853 109.743267,31.930988 108.406024,31.930988 C107.065472,31.930988 106.789086,33.3113853 106.789086,34.0536589 C106.789086,34.7975856 107.065472,36.1763298 108.406024,36.1763298 Z M108.406024,31.1242408 C110.180188,31.1242408 110.987829,32.62036 110.987829,34.0536589 C110.987829,35.4869577 110.180188,36.9863833 108.406024,36.9863833 C106.630206,36.9863833 105.822564,35.4869577 105.822564,34.0536589 C105.822564,32.62036 106.630206,31.1242408 108.406024,31.1242408 Z" id="Fill-113" fill="#003C68"></path>
                <path d="M113.208844,32.0582821 L113.208844,36.8359448 L112.273767,36.8359448 L112.273767,32.0582821 L111.509155,32.0582821 L111.509155,31.2845983 L112.273767,31.2845983 L112.273767,30.3290658 C112.273767,29.4909083 112.806678,29.1073728 113.718585,29.1073728 C113.857605,29.1073728 113.99497,29.118945 114.143921,29.1305171 L114.143921,29.9653682 C114.026415,29.9554492 113.87912,29.9455302 113.761615,29.9455302 C113.359449,29.9455302 113.208844,30.147217 113.208844,30.593573 L113.208844,31.2845983 L114.143921,31.2845983 L114.143921,32.0582821 L113.208844,32.0582821" id="Fill-114" fill="#003C68"></path>
                <path d="M124.358601,36.8359448 L124.358601,32.3343616 C124.358601,32.1111835 124.378461,31.145732 124.378461,30.4348687 L124.358601,30.4348687 L122.210406,36.8359448 L121.190924,36.8359448 L119.044385,30.4464409 L119.02287,30.4464409 C119.02287,31.145732 119.044385,32.1111835 119.044385,32.3343616 L119.044385,36.8359448 L118.044763,36.8359448 L118.044763,29.2131757 L119.521026,29.2131757 L121.70232,35.6572342 L121.720526,35.6572342 L123.890235,29.2131757 L125.358223,29.2131757 L125.358223,36.8359448 L124.358601,36.8359448" id="Fill-115" fill="#003C68"></path>
                <path d="M126.834486,36.8359448 L127.769562,36.8359448 L127.769562,31.2845983 L126.834486,31.2845983 L126.834486,36.8359448 Z M126.834486,30.2745111 L127.769562,30.2745111 L127.769562,29.2131757 L126.834486,29.2131757 L126.834486,30.2745111 Z" id="Fill-116" fill="#003C68"></path>
                <path d="M132.648512,33.1526809 C132.531007,32.4071011 132.117256,31.9623982 131.331129,31.9623982 C130.172627,31.9623982 129.798596,33.0650629 129.798596,34.0536589 C129.798596,35.0091914 130.033607,36.187902 131.319544,36.187902 C131.946791,36.187902 132.487977,35.7200547 132.648512,34.8719782 L133.550489,34.8719782 C133.456154,35.7531181 132.914968,36.9963023 131.288099,36.9963023 C129.725776,36.9963023 128.800629,35.8192449 128.800629,34.2140164 C128.800629,32.4930659 129.629786,31.1242408 131.468495,31.1242408 C132.923243,31.1242408 133.476014,32.1855762 133.550489,33.1526809 L132.648512,33.1526809" id="Fill-117" fill="#003C68"></path>
                <path d="M139.01531,36.8359448 L138.080233,36.8359448 L138.080233,33.2039292 C138.080233,32.4500835 137.866737,31.9623982 136.973036,31.9623982 C136.208424,31.9623982 135.422298,32.4071011 135.422298,33.812296 L135.422298,36.8359448 L134.487221,36.8359448 L134.487221,29.2131757 L135.422298,29.2131757 L135.422298,32.0268718 L135.442158,32.0268718 C135.708613,31.6780529 136.176979,31.1242408 137.069026,31.1242408 C137.929628,31.1242408 139.01531,31.4763661 139.01531,33.0551439 L139.01531,36.8359448" id="Fill-118" fill="#003C68"></path>
                <path d="M140.418752,36.8359448 L141.353829,36.8359448 L141.353829,31.2845983 L140.418752,31.2845983 L140.418752,36.8359448 Z M140.418752,30.2745111 L141.353829,30.2745111 L141.353829,29.2131757 L140.418752,29.2131757 L140.418752,30.2745111 Z" id="Fill-119" fill="#003C68"></path>
                <path d="M144.955116,36.187902 C145.550918,36.187902 146.474409,35.7961006 146.474409,34.3198193 C146.474409,33.4171882 146.327114,31.9623982 144.978286,31.9623982 C143.533469,31.9623982 143.457338,33.3312234 143.457338,34.0420867 C143.457338,35.2637797 143.933979,36.187902 144.955116,36.187902 Z M147.368111,36.3796697 C147.368111,37.1764979 147.358181,39.1718747 144.784651,39.1718747 C144.12596,39.1718747 142.841677,38.9916791 142.661282,37.5137447 L143.594704,37.5137447 C143.765169,38.3948846 144.625771,38.3948846 144.849196,38.3948846 C146.464479,38.3948846 146.433034,37.1021052 146.433034,36.4441434 L146.433034,36.2093932 C146.166579,36.6557492 145.678353,36.9963023 144.933601,36.9963023 C143.043588,36.9963023 142.490817,35.2207972 142.490817,33.8966077 C142.490817,32.3343616 143.329903,31.1242408 144.806166,31.1242408 C145.817373,31.1242408 146.252639,31.7607114 146.485994,32.0996113 L146.485994,31.2845983 L147.368111,31.2845983 L147.368111,36.3796697 Z" id="Fill-120" fill="#003C68"></path>
                <path d="M152.05508,34.0024106 C151.90613,34.1181325 151.672775,34.2024442 150.514272,34.3528827 C150.057491,34.41405 149.32267,34.5529163 149.32267,35.2522075 C149.32267,35.858921 149.632156,36.2193122 150.333877,36.2193122 C151.206064,36.2193122 152.05508,35.6572342 152.05508,34.9149607 L152.05508,34.0024106 Z M148.634189,32.9708322 C148.677219,31.6449895 149.557681,31.1242408 150.929678,31.1242408 C151.376529,31.1242408 152.990157,31.2531881 152.990157,32.6749147 L152.990157,35.8704932 C152.990157,36.1019371 153.107663,36.1994742 153.299643,36.1994742 C153.385703,36.1994742 153.499898,36.1763298 153.607474,36.1564917 L153.607474,36.8359448 C153.446938,36.8789272 153.309573,36.9434009 153.096078,36.9434009 C152.268576,36.9434009 152.139486,36.5168829 152.108041,36.0920181 C151.745595,36.4854726 151.186204,36.9963023 150.100522,36.9963023 C149.079385,36.9963023 148.357803,36.3466063 148.357803,35.3910738 C148.357803,34.9248797 148.495168,33.8437062 150.045906,33.6502853 L151.58837,33.4601707 C151.81014,33.4386794 152.076595,33.3543677 152.076595,32.8022088 C152.076595,32.2169864 151.649605,31.8995777 150.770798,31.8995777 C149.706631,31.8995777 149.557681,32.5476205 149.49479,32.9708322 L148.634189,32.9708322 Z" id="Fill-121" fill="#003C68"></path>
                <path d="M159.103739,36.8359448 L158.167008,36.8359448 L158.167008,33.4171882 C158.167008,32.4500835 157.890622,31.9623982 156.975405,31.9623982 C156.444149,31.9623982 155.510727,32.3012981 155.510727,33.812296 L155.510727,36.8359448 L154.573995,36.8359448 L154.573995,31.2845983 L155.456112,31.2845983 L155.456112,32.0682011 L155.477627,32.0682011 C155.679538,31.7706304 156.200864,31.1242408 157.155801,31.1242408 C158.018057,31.1242408 159.103739,31.4763661 159.103739,33.0551439 L159.103739,36.8359448" id="Fill-122" fill="#003C68"></path>
                <path d="M84.8718777,46.3681258 C85.3187286,46.3681258 85.7175844,46.3350624 85.7175844,45.8043947 C85.7175844,45.3729172 85.3270036,45.2919118 84.9595929,45.2919118 L84.2413215,45.2919118 L84.2413215,46.3681258 L84.8718777,46.3681258 Z M84.2413215,48.318867 L83.7150304,48.318867 L83.7150304,44.847209 L85.039033,44.847209 C85.8599147,44.847209 86.2687005,45.1497392 86.2687005,45.8341517 C86.2687005,46.4557439 85.8764647,46.7268638 85.3667237,46.7896843 L86.3547606,48.318867 L85.7655795,48.318867 L84.8470526,46.8128287 L84.2413215,46.8128287 L84.2413215,48.318867 Z M84.8801527,49.0908976 C86.2438754,49.0908976 87.3196275,48.0229495 87.3196275,46.5747721 C87.3196275,45.1497392 86.2438754,44.0735252 84.8801527,44.0735252 C83.501535,44.0735252 82.4241279,45.1497392 82.4241279,46.5747721 C82.4241279,48.0229495 83.501535,49.0908976 84.8801527,49.0908976 Z M81.8183967,46.5747721 C81.8183967,44.847209 83.2218394,43.5726145 84.8801527,43.5726145 C86.521916,43.5726145 87.9237037,44.847209 87.9237037,46.5747721 C87.9237037,48.318867 86.521916,49.5918083 84.8801527,49.5918083 C83.2218394,49.5918083 81.8183967,48.318867 81.8183967,46.5747721 Z" id="Fill-123" fill="#003C68"></path>
                <path d="M40.509515,46.3681258 C40.9547109,46.3681258 41.3535667,46.3350624 41.3535667,45.8043947 C41.3535667,45.3729172 40.9629859,45.2919118 40.5955752,45.2919118 L39.8773038,45.2919118 L39.8773038,46.3681258 L40.509515,46.3681258 Z M39.8773038,48.318867 L39.3526678,48.318867 L39.3526678,44.847209 L40.6766704,44.847209 C41.497552,44.847209 41.9030278,45.1497392 41.9030278,45.8341517 C41.9030278,46.4557439 41.512447,46.7268638 41.001051,46.7896843 L41.990743,48.318867 L41.4015618,48.318867 L40.483035,46.8128287 L39.8773038,46.8128287 L39.8773038,48.318867 Z M40.5161351,49.0908976 C41.8782027,49.0908976 42.9556099,48.0229495 42.9556099,46.5747721 C42.9556099,45.1497392 41.8782027,44.0735252 40.5161351,44.0735252 C39.1375173,44.0735252 38.0601102,45.1497392 38.0601102,46.5747721 C38.0601102,48.0229495 39.1375173,49.0908976 40.5161351,49.0908976 Z M37.456034,46.5747721 C37.456034,44.847209 38.8578218,43.5726145 40.5161351,43.5726145 C42.1578983,43.5726145 43.5613411,44.847209 43.5613411,46.5747721 C43.5613411,48.318867 42.1578983,49.5918083 40.5161351,49.5918083 C38.8578218,49.5918083 37.456034,48.318867 37.456034,46.5747721 Z" id="Fill-124" fill="#003C68"></path>
                <polyline id="Fill-125" fill="#003C68" points="13.2665062 1.12250276 34.8262338 1.12084959 34.8262338 14.4239125 48.071225 14.4106871 48.071225 35.9035566 34.8262338 35.9035566 34.8262338 49.0413025 13.2665062 49.0413025 13.2665062 35.9035566 0 35.9035566 0 14.4239125 13.2665062 14.4239125 13.2665062 1.12250276"></polyline>
                <path d="M57.4104084,1.43164564 C49.4779778,20.3108526 59.6893479,40.8762935 74.1011164,49.1223078 C88.4334447,40.8762935 98.7259101,20.3935111 90.7388643,1.43164564 C80.0806432,6.19938933 68.1248996,6.07540154 57.4104084,1.43164564" id="Fill-126" fill="#003C68"></path>
                <path d="M10.621811,25.0703304 C10.621811,17.6492481 16.6443679,11.6333607 24.0736776,11.6333607 C31.5013322,11.6333607 37.5238891,17.6492481 37.5238891,25.0703304 C37.5238891,32.4897596 31.5013322,38.505647 24.0736776,38.505647 C16.6443679,38.505647 10.621811,32.4897596 10.621811,25.0703304" id="Fill-127" fill="#FFFFFE"></path>
                <path d="M73.9836112,10.3438877 C74.2815118,10.3571131 81.3334807,10.6117014 87.8558486,8.09061636 L86.8264366,7.72857203 C90.0288679,13.2931439 89.3701766,32.1359811 73.5351053,43.3725809 L74.5032822,43.3725809 C58.6665559,32.1359811 58.0062096,13.2931439 61.2102959,7.72857203 L60.1825389,8.09061636 C66.7049068,10.6117014 73.7552207,10.3571131 73.9836112,10.3438877 Z M73.9836112,8.67418554 L73.9852662,8.67418554 C73.915756,8.67749189 66.9763273,8.92381429 60.7866151,6.53167659 L60.1179938,6.27212883 L59.7588581,6.89372093 C56.3280363,12.8567069 56.8808074,32.9195839 73.5351053,44.7380997 L74.0183663,45.080306 L74.5032822,44.7380997 C91.1575801,32.9195839 91.7086962,12.8567069 88.2795294,6.89372093 L87.9220487,6.27212883 L87.2517724,6.53167659 C81.0620602,8.92381429 74.1209765,8.67749189 73.9836112,8.67418554 Z" id="Fill-128" fill="#FFFFFE"></path>
                <path d="M20.6097557,14.3528262 C20.6097557,14.3528262 19.4992485,14.6206398 17.9832655,15.5364962 C16.5367927,16.4093703 15.5934408,17.512035 15.5934408,17.512035 C15.5934408,17.512035 20.3250952,17.5136881 20.738846,17.512035 C21.3445772,17.5103818 21.0963267,17.1070082 20.9920615,16.959876 C20.7818761,16.6705712 20.5038355,16.1911517 20.4409454,15.3761387 C20.3946053,14.8157139 20.6097557,14.3528262 20.6097557,14.3528262" id="Fill-129" fill="#003C68"></path>
                <path d="M27.3737541,14.3627452 C27.3737541,14.3627452 28.4826063,14.6305588 29.9985893,15.5464153 C31.4450621,16.4192893 32.390069,17.521954 32.390069,17.521954 C32.390069,17.521954 27.6600697,17.5236072 27.2430088,17.521954 C26.6372776,17.5203008 26.8855281,17.1185804 26.9914483,16.969795 C27.2016337,16.6804902 27.4780193,16.2010708 27.5442194,15.3844046 C27.5872495,14.8272861 27.3737541,14.3627452 27.3737541,14.3627452" id="Fill-130" fill="#003C68"></path>
                <path d="M24.1034676,25.900222 C24.5486635,25.900222 24.788639,26.0969493 25.2040448,26.7201946 C25.6177956,27.3417867 31.7214477,36.2672541 31.7214477,36.2672541 L32.7177596,35.4687728 L32.2709088,35.1364855 C32.2709088,35.1364855 26.4899823,24.4685764 26.302967,24.0536306 C26.0828515,23.5675985 25.9487963,22.8517756 26.1589817,22.2301835 C26.334412,21.7044753 27.1205386,21.2895295 27.5574595,21.2283622 C27.9927253,21.1655417 36.9115379,20.3885516 36.9115379,20.3885516 L36.431587,19.3470542 C36.431587,19.3470542 26.8640131,19.2429045 26.4088872,19.2445576 C25.6823407,19.2462108 25.0584045,18.9188831 24.788639,18.4460763 C24.5188734,17.96831 24.8415991,17.2739784 24.9177292,17.0243497 C25.0368895,16.6358546 25.7369559,16.009303 25.7022008,14.943008 C25.6492407,13.3939873 24.0505075,13.3642302 24.0505075,13.3642302 C24.0505075,13.3642302 22.4666694,13.3939873 22.4153643,14.943008 C22.3806092,16.009303 23.0806756,16.6358546 23.1998358,17.0243497 C23.277621,17.2739784 23.5986916,17.96831 23.3289261,18.4460763 C23.0608156,18.9188831 22.4352243,19.2462108 21.7103329,19.2445576 C21.253552,19.2429045 11.6859781,19.3470542 11.6859781,19.3470542 L11.2060271,20.3885516 C11.2060271,20.3885516 20.1248398,21.1655417 20.5601056,21.2283622 C20.9970265,21.2895295 21.784808,21.7044753 21.9602384,22.2301835 C22.1671138,22.8517756 22.0330585,23.5675985 21.8129431,24.0536306 C21.6275827,24.4685764 15.8450013,35.1364855 15.8450013,35.1364855 L15.3981504,35.4687728 L16.3961174,36.2672541 C16.3961174,36.2672541 22.4997695,27.3417867 22.9135203,26.7201946 C23.3289261,26.0969493 23.6549617,25.900222 24.1034676,25.900222" id="Fill-131" fill="#003C68"></path>
                <path d="M12.5813349,25.2273816 C12.5813349,24.2553174 12.7038051,23.3146634 12.9321956,22.4136855 L19.4959385,23.0187459 C20.1082897,23.0749537 20.1777999,23.3278887 19.9527194,23.7428345 L15.2111351,32.5029849 C13.5693718,30.5290994 12.5813349,27.994789 12.5813349,25.2273816" id="Fill-132" fill="#003C68"></path>
                <path d="M23.9958924,36.6177263 C22.3938492,36.6177263 20.8679362,36.2870922 19.4843535,35.6902976 C20.1827649,34.627309 23.5705566,29.4743766 23.6864068,29.2759962 C23.8171521,29.0577776 23.9065222,28.7816982 24.1100876,28.7816982 C24.313653,28.7816982 24.4493633,29.0577776 24.5784536,29.2759962 C24.6909938,29.4694171 27.9017001,34.3561891 28.7192717,35.5977201 C27.2794189,36.2523756 25.6790307,36.6177263 23.9958924,36.6177263" id="Fill-133" fill="#003C68"></path>
                <path d="M35.3905899,25.2273816 C35.3905899,24.2553174 35.2697747,23.3146634 35.0397292,22.4136855 L28.4792963,23.0187459 C27.8652901,23.0749537 27.7924699,23.3278887 28.0208604,23.7428345 L32.7624447,32.5029849 C34.402553,30.5290994 35.3905899,27.994789 35.3905899,25.2273816" id="Fill-134" fill="#003C68"></path>
                <path d="M75.1404585,18.6841328 C73.894241,18.5998211 72.9194441,18.3931748 72.4610082,18.3121695 L72.2756478,16.8160502 C72.9806792,16.6920624 73.2504447,16.4027576 73.376225,16.2142961 C73.872726,16.2572786 74.8491779,16.4027576 74.8706929,16.2771166 C74.923653,15.9597079 73.2305847,15.738183 73.2305847,15.6356865 C73.2305847,15.5513748 74.2484117,15.4488782 74.2897868,15.3463816 C74.3592969,15.1727987 73.8644509,14.476814 73.4176001,13.9973945 C72.9955742,13.5427726 72.358398,13.2303234 72.358398,13.2303234 C72.358398,12.8881171 72.3368829,12.5244196 72.378258,12.1722943 C72.4229431,11.8019841 75.0742583,12.6500606 75.0577083,13.2303234 C75.0163332,14.5760042 75.4515991,15.2207407 75.4515991,15.2207407 C76.4694261,14.8272861 76.8682819,14.1395672 77.3614729,13.8304243 C78.2535196,13.2699995 79.1257063,14.4321784 78.8360808,14.8057949 C77.962239,16.0489791 77.2092126,16.3068737 76.2211756,17.4607867 C75.9696151,17.7484383 75.1404585,18.6841328 75.1404585,18.6841328" id="Fill-135" fill="#FFFFFE"></path>
                <path d="M70.0132583,18.0410495 C71.7344617,18.8048143 73.7287407,19.0792406 75.6998496,19.3040718 C78.9817211,19.6793415 80.0806432,24.7793724 75.4731141,25.5051143 L75.415189,25.2488728 L75.430084,22.9145961 C76.2625507,22.7691171 76.1351154,21.7937465 75.0974284,21.7094348 C72.0538774,21.4664188 70.5114143,21.4383149 68.5386504,20.3009336 C65.811205,18.7254621 65.4106942,14.7611593 68.9689513,13.4452356 C70.1158685,13.0236771 71.8139019,13.4336634 72.2342727,13.6651072 C72.7473237,13.9444931 73.1925196,14.4503632 73.5003502,14.7429744 C73.9356161,15.1595734 73.4589751,15.1380821 73.0650844,15.1380821 L71.0112253,15.1595734 C70.7596648,15.1595734 70.5759595,15.1794114 70.5511344,15.2637231 C70.4898993,15.4902075 71.7394267,15.8687835 72.1730376,16.0274879 C72.879724,16.2886888 72.6893986,16.3614283 72.3170229,16.4027576 C71.6848116,16.4721907 70.7977299,16.3977981 70.364119,16.3399371 C70.0546334,16.2969547 69.347947,16.1117996 69.347947,16.1117996 C68.6842907,16.465578 69.0881115,17.6277569 70.0132583,18.0410495 Z M71.1965857,13.8304243 C70.8242099,13.8089331 70.7182897,13.8717536 71.0939755,14.1015443 C71.2859559,14.2189194 71.4663512,14.2701676 71.5292413,14.3495198 C71.6153015,14.4619354 71.7692168,14.5528598 72.0058823,14.4718544 C72.2541328,14.3925023 72.2971629,14.205694 72.2342727,14.0370706 C72.1879326,13.914736 71.5358613,13.8502623 71.1965857,13.8304243 Z" id="Fill-136" fill="#FFFFFE"></path>
                <path d="M72.7738038,25.8374015 C73.1693496,26.0027186 73.894241,26.0671922 74.8491779,26.1267064 L74.8706929,22.1855479 L72.378258,22.0202309 C72.378258,22.0202309 71.860242,22.7062966 71.6119915,23.1212424 L72.7738038,25.8374015" id="Fill-137" fill="#FFFFFE"></path>
                <path d="M74.8706929,29.3007937 L74.7233976,32.4302454 C73.7701158,32.1607787 73.3133349,31.727648 73.3133349,31.727648 L73.1461795,29.1354767 L74.1855216,29.2379732 L74.8706929,29.3007937" id="Fill-138" fill="#FFFFFE"></path>
                <path d="M73.376225,34.9827407 L73.7287407,40.5572316 C73.7651508,40.8019008 74.6058924,40.7787564 74.6207874,40.5373935 C74.6555425,40.0100321 74.8094578,36.0606078 74.8094578,36.0606078 C74.3096468,35.0025787 73.7088806,34.9612495 73.376225,34.9827407" id="Fill-139" fill="#FFFFFE"></path>
                <path d="M72.0273973,39.1702215 C72.1316625,39.9587838 72.6281635,40.0844248 72.6281635,39.5223468 C72.6281635,39.2743713 72.7936638,38.6726172 73.1279745,38.4031504 L73.0849444,36.8078409 C72.3170229,37.3236301 71.875137,38.0229212 72.0273973,39.1702215" id="Fill-140" fill="#FFFFFE"></path>
                <path d="M75.3274738,29.7339244 C75.0825334,29.9488365 75.1818336,31.602007 75.1818336,31.602007 C75.1818336,31.602007 75.5906194,31.6053134 75.90838,31.4780192 C79.2928617,30.1290321 77.6312384,26.7268073 74.1656615,26.5829814 C73.2305847,26.5019761 72.3997731,26.6044726 72.1829676,25.8241762 L71.4448362,23.9296428 C71.4448362,23.9296428 70.3823241,24.3925305 70.2002737,25.2141563 C70.0066383,26.0853771 70.0347734,27.3384803 71.4034611,28.0741412 C72.4593532,28.7321031 74.2649617,28.556867 74.9319281,28.6775484 C76.428051,28.9486684 75.4929742,29.5900985 75.3274738,29.7339244" id="Fill-141" fill="#FFFFFE"></path>
                <path d="M74.4966622,32.9906702 C77.1330824,34.0784564 77.2356926,36.0606078 75.1818336,37.2409716 L75.1205984,35.4373626 C74.890553,34.5859798 73.0402593,34.2305481 72.1730376,33.8635443 C70.4485242,32.9278498 70.5511344,31.3523783 71.7559768,30.418337 C72.0952525,30.1587892 72.7539438,30.0662116 72.7539438,30.0662116 L72.9194441,31.7061568 C72.1084925,32.1211026 72.8366939,32.3062577 74.4966622,32.9906702" id="Fill-142" fill="#FFFFFE"></path>
            </g>
        </g>
    </g>
</svg>